<svg width="312" height="224" viewBox="0 0 312 224" fill="none" xmlns="http://www.w3.org/2000/svg">
<rect x="120" y="24" width="72" height="72" rx="36" fill="white"/>
<g clip-path="url(#clip0_1647_32021)">
<path opacity="0.2" d="M146.808 69.1924C145.657 68.0419 146.42 65.6265 145.835 64.2111C145.228 62.744 143 61.5631 143 60C143 58.4368 145.228 57.256 145.835 55.7888C146.42 54.3735 145.657 51.9581 146.808 50.8076C147.958 49.6571 150.374 50.4202 151.789 49.8346C153.256 49.2275 154.437 47 156 47C157.563 47 158.744 49.2276 160.211 49.8346C161.626 50.4202 164.042 49.6571 165.192 50.8076C166.343 51.9581 165.58 54.3735 166.165 55.7889C166.772 57.256 169 58.4369 169 60C169 61.5632 166.772 62.744 166.165 64.2112C165.58 65.6265 166.343 68.0419 165.192 69.1924C164.042 70.3429 161.626 69.5798 160.211 70.1654C158.744 70.7725 157.563 73 156 73C154.437 73 153.256 70.7724 151.789 70.1654C150.374 69.5798 147.958 70.3429 146.808 69.1924Z" fill="#0A65CC"/>
<path d="M146.808 69.1924C145.657 68.0419 146.42 65.6265 145.835 64.2111C145.228 62.744 143 61.5631 143 60C143 58.4368 145.228 57.256 145.835 55.7888C146.42 54.3735 145.657 51.9581 146.808 50.8076C147.958 49.6571 150.374 50.4202 151.789 49.8346C153.256 49.2275 154.437 47 156 47C157.563 47 158.744 49.2276 160.211 49.8346C161.626 50.4202 164.042 49.6571 165.192 50.8076C166.343 51.9581 165.58 54.3735 166.165 55.7889C166.772 57.256 169 58.4369 169 60C169 61.5632 166.772 62.744 166.165 64.2112C165.58 65.6265 166.343 68.0419 165.192 69.1924C164.042 70.3429 161.626 69.5798 160.211 70.1654C158.744 70.7725 157.563 73 156 73C154.437 73 153.256 70.7724 151.789 70.1654C150.374 69.5798 147.958 70.3429 146.808 69.1924Z" stroke="#0A65CC" stroke-width="2" stroke-linecap="round" stroke-linejoin="round"/>
<path d="M161.5 57L154.167 64L150.5 60.5" stroke="#0A65CC" stroke-width="2" stroke-linecap="round" stroke-linejoin="round"/>
</g>
<path d="M118.114 141H116.018L120.729 127.909H123.011L127.722 141H125.625L121.924 130.287H121.822L118.114 141ZM118.466 135.874H125.267V137.536H118.466V135.874ZM129.459 144.682V131.182H131.325V132.773H131.485C131.596 132.569 131.756 132.332 131.964 132.064C132.173 131.795 132.463 131.561 132.834 131.361C133.204 131.156 133.694 131.054 134.304 131.054C135.096 131.054 135.804 131.254 136.426 131.655C137.048 132.055 137.536 132.633 137.89 133.387C138.248 134.141 138.427 135.049 138.427 136.11C138.427 137.171 138.25 138.081 137.896 138.839C137.542 139.594 137.057 140.175 136.439 140.585C135.821 140.989 135.116 141.192 134.323 141.192C133.726 141.192 133.238 141.092 132.859 140.891C132.484 140.691 132.19 140.457 131.977 140.188C131.764 139.92 131.6 139.681 131.485 139.472H131.37V144.682H129.459ZM131.331 136.091C131.331 136.781 131.432 137.386 131.632 137.906C131.832 138.426 132.122 138.833 132.501 139.127C132.881 139.417 133.345 139.562 133.895 139.562C134.466 139.562 134.943 139.411 135.327 139.108C135.71 138.801 136 138.386 136.196 137.862C136.396 137.337 136.496 136.747 136.496 136.091C136.496 135.443 136.398 134.862 136.202 134.346C136.01 133.83 135.721 133.423 135.333 133.125C134.949 132.827 134.47 132.678 133.895 132.678C133.341 132.678 132.872 132.82 132.488 133.106C132.109 133.391 131.822 133.79 131.626 134.301C131.43 134.812 131.331 135.409 131.331 136.091ZM140.568 144.682V131.182H142.434V132.773H142.594C142.705 132.569 142.865 132.332 143.074 132.064C143.282 131.795 143.572 131.561 143.943 131.361C144.314 131.156 144.804 131.054 145.413 131.054C146.206 131.054 146.913 131.254 147.535 131.655C148.157 132.055 148.645 132.633 148.999 133.387C149.357 134.141 149.536 135.049 149.536 136.11C149.536 137.171 149.359 138.081 149.006 138.839C148.652 139.594 148.166 140.175 147.548 140.585C146.93 140.989 146.225 141.192 145.432 141.192C144.836 141.192 144.348 141.092 143.969 140.891C143.594 140.691 143.3 140.457 143.086 140.188C142.873 139.92 142.709 139.681 142.594 139.472H142.479V144.682H140.568ZM142.441 136.091C142.441 136.781 142.541 137.386 142.741 137.906C142.942 138.426 143.231 138.833 143.611 139.127C143.99 139.417 144.454 139.562 145.004 139.562C145.575 139.562 146.052 139.411 146.436 139.108C146.819 138.801 147.109 138.386 147.305 137.862C147.506 137.337 147.606 136.747 147.606 136.091C147.606 135.443 147.508 134.862 147.312 134.346C147.12 133.83 146.83 133.423 146.442 133.125C146.059 132.827 145.579 132.678 145.004 132.678C144.45 132.678 143.981 132.82 143.598 133.106C143.219 133.391 142.931 133.79 142.735 134.301C142.539 134.812 142.441 135.409 142.441 136.091ZM153.589 127.909V141H151.677V127.909H153.589ZM157.368 144.682C157.082 144.682 156.822 144.658 156.588 144.612C156.354 144.569 156.179 144.522 156.064 144.471L156.524 142.905C156.874 142.999 157.185 143.039 157.457 143.026C157.73 143.013 157.971 142.911 158.18 142.719C158.393 142.528 158.58 142.214 158.742 141.78L158.979 141.128L155.386 131.182H157.432L159.918 138.801H160.021L162.507 131.182H164.559L160.513 142.31C160.325 142.822 160.087 143.254 159.797 143.608C159.507 143.966 159.162 144.234 158.761 144.413C158.361 144.592 157.896 144.682 157.368 144.682ZM171.119 131.182H173.03V141.639C173.03 142.295 172.911 142.849 172.672 143.301C172.438 143.753 172.088 144.096 171.624 144.33C171.164 144.565 170.595 144.682 169.917 144.682C169.849 144.682 169.785 144.682 169.725 144.682C169.661 144.682 169.595 144.68 169.527 144.675V143.033C169.587 143.033 169.64 143.033 169.687 143.033C169.73 143.033 169.779 143.033 169.834 143.033C170.286 143.033 170.612 142.911 170.812 142.668C171.017 142.43 171.119 142.082 171.119 141.626V131.182ZM172.065 129.667C171.732 129.667 171.447 129.556 171.208 129.335C170.974 129.109 170.857 128.84 170.857 128.529C170.857 128.214 170.974 127.945 171.208 127.724C171.447 127.498 171.732 127.385 172.065 127.385C172.397 127.385 172.681 127.498 172.915 127.724C173.154 127.945 173.273 128.214 173.273 128.529C173.273 128.84 173.154 129.109 172.915 129.335C172.681 129.556 172.397 129.667 172.065 129.667ZM179.737 141.198C178.816 141.198 178.013 140.987 177.327 140.565C176.641 140.143 176.108 139.553 175.729 138.795C175.35 138.036 175.16 137.15 175.16 136.136C175.16 135.117 175.35 134.227 175.729 133.464C176.108 132.701 176.641 132.109 177.327 131.687C178.013 131.265 178.816 131.054 179.737 131.054C180.657 131.054 181.461 131.265 182.147 131.687C182.833 132.109 183.365 132.701 183.745 133.464C184.124 134.227 184.314 135.117 184.314 136.136C184.314 137.15 184.124 138.036 183.745 138.795C183.365 139.553 182.833 140.143 182.147 140.565C181.461 140.987 180.657 141.198 179.737 141.198ZM179.743 139.594C180.34 139.594 180.834 139.436 181.226 139.121C181.618 138.805 181.908 138.386 182.096 137.862C182.287 137.337 182.383 136.76 182.383 136.129C182.383 135.503 182.287 134.928 182.096 134.403C181.908 133.875 181.618 133.451 181.226 133.131C180.834 132.812 180.34 132.652 179.743 132.652C179.142 132.652 178.644 132.812 178.248 133.131C177.855 133.451 177.564 133.875 177.372 134.403C177.184 134.928 177.091 135.503 177.091 136.129C177.091 136.76 177.184 137.337 177.372 137.862C177.564 138.386 177.855 138.805 178.248 139.121C178.644 139.436 179.142 139.594 179.743 139.594ZM186.6 141V127.909H188.512V132.773H188.627C188.737 132.569 188.897 132.332 189.106 132.064C189.315 131.795 189.605 131.561 189.975 131.361C190.346 131.156 190.836 131.054 191.445 131.054C192.238 131.054 192.945 131.254 193.568 131.655C194.19 132.055 194.678 132.633 195.031 133.387C195.389 134.141 195.568 135.049 195.568 136.11C195.568 137.171 195.392 138.081 195.038 138.839C194.684 139.594 194.198 140.175 193.58 140.585C192.963 140.989 192.257 141.192 191.465 141.192C190.868 141.192 190.38 141.092 190.001 140.891C189.626 140.691 189.332 140.457 189.119 140.188C188.906 139.92 188.742 139.681 188.627 139.472H188.467V141H186.6ZM188.473 136.091C188.473 136.781 188.573 137.386 188.774 137.906C188.974 138.426 189.264 138.833 189.643 139.127C190.022 139.417 190.487 139.562 191.036 139.562C191.607 139.562 192.085 139.411 192.468 139.108C192.852 138.801 193.142 138.386 193.338 137.862C193.538 137.337 193.638 136.747 193.638 136.091C193.638 135.443 193.54 134.862 193.344 134.346C193.152 133.83 192.862 133.423 192.475 133.125C192.091 132.827 191.612 132.678 191.036 132.678C190.482 132.678 190.014 132.82 189.63 133.106C189.251 133.391 188.963 133.79 188.767 134.301C188.571 134.812 188.473 135.409 188.473 136.091Z" fill="#18191C"/>
<path d="M36.3773 168H35.1444C35.0714 167.645 34.9438 167.334 34.7615 167.065C34.5826 166.797 34.3638 166.571 34.1053 166.389C33.8501 166.204 33.5667 166.064 33.2551 165.972C32.9436 165.879 32.6188 165.832 32.2807 165.832C31.6642 165.832 31.1058 165.988 30.6053 166.3C30.1081 166.611 29.7121 167.07 29.4171 167.677C29.1254 168.283 28.9796 169.027 28.9796 169.909C28.9796 170.791 29.1254 171.535 29.4171 172.141C29.7121 172.748 30.1081 173.207 30.6053 173.518C31.1058 173.83 31.6642 173.986 32.2807 173.986C32.6188 173.986 32.9436 173.939 33.2551 173.847C33.5667 173.754 33.8501 173.616 34.1053 173.434C34.3638 173.248 34.5826 173.021 34.7615 172.753C34.9438 172.481 35.0714 172.17 35.1444 171.818H36.3773C36.2845 172.339 36.1155 172.804 35.8702 173.215C35.6249 173.626 35.32 173.976 34.9554 174.264C34.5909 174.549 34.1815 174.766 33.7275 174.915C33.2767 175.065 32.7944 175.139 32.2807 175.139C31.4123 175.139 30.6401 174.927 29.964 174.503C29.2878 174.079 28.7559 173.475 28.3681 172.693C27.9803 171.911 27.7864 170.983 27.7864 169.909C27.7864 168.835 27.9803 167.907 28.3681 167.125C28.7559 166.343 29.2878 165.74 29.964 165.315C30.6401 164.891 31.4123 164.679 32.2807 164.679C32.7944 164.679 33.2767 164.754 33.7275 164.903C34.1815 165.052 34.5909 165.271 34.9554 165.559C35.32 165.844 35.6249 166.192 35.8702 166.603C36.1155 167.011 36.2845 167.476 36.3773 168ZM43.0231 171.878V167.364H44.1964V175H43.0231V173.707H42.9435C42.7646 174.095 42.4862 174.425 42.1083 174.697C41.7305 174.965 41.2532 175.099 40.6765 175.099C40.1992 175.099 39.775 174.995 39.4038 174.786C39.0326 174.574 38.7409 174.256 38.5288 173.832C38.3166 173.404 38.2106 172.866 38.2106 172.216V167.364H39.3839V172.136C39.3839 172.693 39.5397 173.137 39.8512 173.469C40.1661 173.8 40.5671 173.966 41.0543 173.966C41.346 173.966 41.6426 173.891 41.9442 173.742C42.2492 173.593 42.5044 173.364 42.7099 173.056C42.9187 172.748 43.0231 172.355 43.0231 171.878ZM46.3453 175V167.364H47.4789V168.517H47.5584C47.6976 168.139 47.9495 167.833 48.3141 167.597C48.6787 167.362 49.0897 167.244 49.5471 167.244C49.6332 167.244 49.7409 167.246 49.8702 167.249C49.9995 167.253 50.0972 167.258 50.1635 167.264V168.457C50.1238 168.447 50.0326 168.433 49.8901 168.413C49.7509 168.389 49.6034 168.378 49.4476 168.378C49.0764 168.378 48.745 168.456 48.4533 168.612C48.165 168.764 47.9363 168.976 47.7672 169.248C47.6015 169.516 47.5186 169.823 47.5186 170.168V175H46.3453ZM53.8015 175.179C53.3176 175.179 52.8784 175.088 52.484 174.906C52.0896 174.72 51.7764 174.453 51.5444 174.105C51.3124 173.754 51.1964 173.33 51.1964 172.832C51.1964 172.395 51.2826 172.04 51.4549 171.768C51.6272 171.493 51.8576 171.278 52.146 171.122C52.4343 170.966 52.7525 170.85 53.1005 170.774C53.4518 170.695 53.8048 170.632 54.1594 170.585C54.6235 170.526 54.9996 170.481 55.288 170.451C55.5797 170.418 55.7918 170.363 55.9244 170.287C56.0603 170.211 56.1282 170.078 56.1282 169.889V169.849C56.1282 169.359 55.994 168.978 55.7255 168.706C55.4603 168.434 55.0576 168.298 54.5174 168.298C53.9573 168.298 53.5181 168.421 53.1999 168.666C52.8817 168.911 52.658 169.173 52.5288 169.452L51.4151 169.054C51.614 168.59 51.8791 168.229 52.2106 167.97C52.5453 167.708 52.9099 167.526 53.3043 167.423C53.7021 167.317 54.0932 167.264 54.4776 167.264C54.7229 167.264 55.0046 167.294 55.3228 167.354C55.6443 167.41 55.9542 167.528 56.2525 167.707C56.5541 167.886 56.8043 168.156 57.0032 168.517C57.2021 168.878 57.3015 169.362 57.3015 169.969V175H56.1282V173.966H56.0685C55.989 174.132 55.8564 174.309 55.6708 174.498C55.4852 174.687 55.2383 174.848 54.93 174.98C54.6218 175.113 54.2456 175.179 53.8015 175.179ZM53.9805 174.125C54.4445 174.125 54.8356 174.034 55.1538 173.852C55.4753 173.669 55.7172 173.434 55.8796 173.146C56.0453 172.857 56.1282 172.554 56.1282 172.236V171.162C56.0785 171.222 55.9691 171.276 55.8001 171.326C55.6344 171.372 55.4421 171.414 55.2234 171.45C55.0079 171.483 54.7975 171.513 54.592 171.54C54.3898 171.563 54.2257 171.583 54.0998 171.599C53.7949 171.639 53.5098 171.704 53.2447 171.793C52.9828 171.879 52.7707 172.01 52.6083 172.186C52.4492 172.358 52.3697 172.594 52.3697 172.892C52.3697 173.3 52.5205 173.608 52.8221 173.817C53.127 174.022 53.5131 174.125 53.9805 174.125ZM59.6021 175V164.818H60.7754V168.577H60.8748C60.961 168.444 61.0803 168.275 61.2328 168.07C61.3886 167.861 61.6106 167.675 61.899 167.513C62.1906 167.347 62.585 167.264 63.0822 167.264C63.7252 167.264 64.292 167.425 64.7825 167.746C65.273 168.068 65.6558 168.524 65.9309 169.114C66.206 169.704 66.3436 170.4 66.3436 171.202C66.3436 172.01 66.206 172.711 65.9309 173.305C65.6558 173.895 65.2747 174.352 64.7875 174.677C64.3002 174.998 63.7385 175.159 63.1021 175.159C62.6116 175.159 62.2188 175.078 61.9238 174.915C61.6288 174.75 61.4018 174.562 61.2427 174.354C61.0836 174.142 60.961 173.966 60.8748 173.827H60.7356V175H59.6021ZM60.7555 171.182C60.7555 171.759 60.84 172.267 61.0091 172.708C61.1781 173.146 61.425 173.489 61.7498 173.737C62.0746 173.982 62.4724 174.105 62.943 174.105C63.4335 174.105 63.8429 173.976 64.171 173.717C64.5024 173.455 64.751 173.104 64.9167 172.663C65.0858 172.219 65.1703 171.725 65.1703 171.182C65.1703 170.645 65.0874 170.161 64.9217 169.73C64.7593 169.296 64.5124 168.953 64.1809 168.701C63.8528 168.446 63.4402 168.318 62.943 168.318C62.4657 168.318 62.0647 168.439 61.7399 168.681C61.4151 168.92 61.1698 169.254 61.0041 169.685C60.8384 170.113 60.7555 170.612 60.7555 171.182ZM68.1383 175V167.364H69.3116V175H68.1383ZM68.7349 166.091C68.5062 166.091 68.309 166.013 68.1433 165.857C67.9809 165.701 67.8997 165.514 67.8997 165.295C67.8997 165.077 67.9809 164.889 68.1433 164.734C68.309 164.578 68.5062 164.5 68.7349 164.5C68.9636 164.5 69.1592 164.578 69.3216 164.734C69.4873 164.889 69.5701 165.077 69.5701 165.295C69.5701 165.514 69.4873 165.701 69.3216 165.857C69.1592 166.013 68.9636 166.091 68.7349 166.091ZM74.7816 167.364V168.358H70.8242V167.364H74.7816ZM71.9776 165.534H73.1509V172.812C73.1509 173.144 73.199 173.393 73.2951 173.558C73.3945 173.721 73.5205 173.83 73.6729 173.886C73.8287 173.939 73.9928 173.966 74.1651 173.966C74.2944 173.966 74.4005 173.959 74.4833 173.946C74.5662 173.929 74.6325 173.916 74.6822 173.906L74.9208 174.96C74.8413 174.99 74.7302 175.02 74.5877 175.05C74.4452 175.083 74.2646 175.099 74.0458 175.099C73.7144 175.099 73.3896 175.028 73.0714 174.886C72.7565 174.743 72.4947 174.526 72.2859 174.234C72.0804 173.943 71.9776 173.575 71.9776 173.131V165.534ZM81.359 171.878V167.364H82.5323V175H81.359V173.707H81.2795C81.1005 174.095 80.8221 174.425 80.4442 174.697C80.0664 174.965 79.5891 175.099 79.0124 175.099C78.5352 175.099 78.1109 174.995 77.7397 174.786C77.3685 174.574 77.0768 174.256 76.8647 173.832C76.6526 173.404 76.5465 172.866 76.5465 172.216V167.364H77.7198V172.136C77.7198 172.693 77.8756 173.137 78.1871 173.469C78.502 173.8 78.9031 173.966 79.3903 173.966C79.6819 173.966 79.9786 173.891 80.2802 173.742C80.5851 173.593 80.8403 173.364 81.0458 173.056C81.2546 172.748 81.359 172.355 81.359 171.878ZM84.6813 175V167.364H85.8148V168.517H85.8944C86.0336 168.139 86.2855 167.833 86.65 167.597C87.0146 167.362 87.4256 167.244 87.883 167.244C87.9692 167.244 88.0769 167.246 88.2061 167.249C88.3354 167.253 88.4332 167.258 88.4995 167.264V168.457C88.4597 168.447 88.3685 168.433 88.226 168.413C88.0868 168.389 87.9393 168.378 87.7836 168.378C87.4123 168.378 87.0809 168.456 86.7892 168.612C86.5009 168.764 86.2722 168.976 86.1032 169.248C85.9374 169.516 85.8546 169.823 85.8546 170.168V175H84.6813ZM99.2369 169.074L98.1829 169.372C98.1166 169.196 98.0188 169.026 97.8896 168.86C97.7636 168.691 97.5913 168.552 97.3725 168.442C97.1538 168.333 96.8737 168.278 96.5323 168.278C96.065 168.278 95.6755 168.386 95.364 168.602C95.0558 168.814 94.9016 169.084 94.9016 169.412C94.9016 169.704 95.0077 169.934 95.2198 170.103C95.4319 170.272 95.7634 170.413 96.2141 170.526L97.3477 170.804C98.0304 170.97 98.5392 171.223 98.8739 171.565C99.2087 171.903 99.3761 172.339 99.3761 172.872C99.3761 173.31 99.2501 173.701 98.9982 174.045C98.7496 174.39 98.4016 174.662 97.9542 174.861C97.5067 175.06 96.9864 175.159 96.3931 175.159C95.6142 175.159 94.9696 174.99 94.4592 174.652C93.9487 174.314 93.6256 173.82 93.4897 173.17L94.6033 172.892C94.7094 173.303 94.9099 173.611 95.2049 173.817C95.5032 174.022 95.8926 174.125 96.3732 174.125C96.9201 174.125 97.3543 174.009 97.6758 173.777C98.0006 173.542 98.163 173.26 98.163 172.932C98.163 172.667 98.0702 172.445 97.8846 172.266C97.699 172.083 97.4139 171.947 97.0295 171.858L95.7567 171.56C95.0574 171.394 94.5437 171.137 94.2156 170.789C93.8907 170.438 93.7283 169.999 93.7283 169.472C93.7283 169.041 93.8493 168.66 94.0913 168.328C94.3365 167.997 94.6696 167.737 95.0906 167.548C95.5148 167.359 95.9954 167.264 96.5323 167.264C97.288 167.264 97.8813 167.43 98.3121 167.761C98.7463 168.093 99.0546 168.53 99.2369 169.074ZM101.142 175V167.364H102.316V175H101.142ZM101.739 166.091C101.51 166.091 101.313 166.013 101.147 165.857C100.985 165.701 100.904 165.514 100.904 165.295C100.904 165.077 100.985 164.889 101.147 164.734C101.313 164.578 101.51 164.5 101.739 164.5C101.968 164.5 102.163 164.578 102.325 164.734C102.491 164.889 102.574 165.077 102.574 165.295C102.574 165.514 102.491 165.701 102.325 165.857C102.163 166.013 101.968 166.091 101.739 166.091ZM107.786 167.364V168.358H103.828V167.364H107.786ZM104.982 165.534H106.155V172.812C106.155 173.144 106.203 173.393 106.299 173.558C106.398 173.721 106.524 173.83 106.677 173.886C106.833 173.939 106.997 173.966 107.169 173.966C107.298 173.966 107.404 173.959 107.487 173.946C107.57 173.929 107.636 173.916 107.686 173.906L107.925 174.96C107.845 174.99 107.734 175.02 107.592 175.05C107.449 175.083 107.268 175.099 107.05 175.099C106.718 175.099 106.393 175.028 106.075 174.886C105.76 174.743 105.499 174.526 105.29 174.234C105.084 173.943 104.982 173.575 104.982 173.131V165.534ZM115.735 175.179C115.251 175.179 114.812 175.088 114.418 174.906C114.023 174.72 113.71 174.453 113.478 174.105C113.246 173.754 113.13 173.33 113.13 172.832C113.13 172.395 113.216 172.04 113.388 171.768C113.561 171.493 113.791 171.278 114.08 171.122C114.368 170.966 114.686 170.85 115.034 170.774C115.385 170.695 115.738 170.632 116.093 170.585C116.557 170.526 116.933 170.481 117.222 170.451C117.513 170.418 117.725 170.363 117.858 170.287C117.994 170.211 118.062 170.078 118.062 169.889V169.849C118.062 169.359 117.928 168.978 117.659 168.706C117.394 168.434 116.991 168.298 116.451 168.298C115.891 168.298 115.452 168.421 115.134 168.666C114.815 168.911 114.592 169.173 114.462 169.452L113.349 169.054C113.548 168.59 113.813 168.229 114.144 167.97C114.479 167.708 114.844 167.526 115.238 167.423C115.636 167.317 116.027 167.264 116.411 167.264C116.656 167.264 116.938 167.294 117.256 167.354C117.578 167.41 117.888 167.528 118.186 167.707C118.488 167.886 118.738 168.156 118.937 168.517C119.136 168.878 119.235 169.362 119.235 169.969V175H118.062V173.966H118.002C117.923 174.132 117.79 174.309 117.604 174.498C117.419 174.687 117.172 174.848 116.864 174.98C116.555 175.113 116.179 175.179 115.735 175.179ZM115.914 174.125C116.378 174.125 116.769 174.034 117.087 173.852C117.409 173.669 117.651 173.434 117.813 173.146C117.979 172.857 118.062 172.554 118.062 172.236V171.162C118.012 171.222 117.903 171.276 117.734 171.326C117.568 171.372 117.376 171.414 117.157 171.45C116.942 171.483 116.731 171.513 116.526 171.54C116.323 171.563 116.159 171.583 116.033 171.599C115.728 171.639 115.443 171.704 115.178 171.793C114.916 171.879 114.704 172.01 114.542 172.186C114.383 172.358 114.303 172.594 114.303 172.892C114.303 173.3 114.454 173.608 114.756 173.817C115.061 174.022 115.447 174.125 115.914 174.125ZM121.377 175V167.364H122.51V168.557H122.61C122.769 168.149 123.026 167.833 123.38 167.607C123.735 167.379 124.161 167.264 124.658 167.264C125.162 167.264 125.581 167.379 125.916 167.607C126.254 167.833 126.517 168.149 126.706 168.557H126.786C126.981 168.162 127.275 167.849 127.666 167.617C128.057 167.382 128.526 167.264 129.073 167.264C129.755 167.264 130.314 167.478 130.748 167.906C131.182 168.33 131.399 168.991 131.399 169.889V175H130.226V169.889C130.226 169.326 130.072 168.923 129.764 168.681C129.455 168.439 129.093 168.318 128.675 168.318C128.138 168.318 127.722 168.481 127.427 168.805C127.132 169.127 126.985 169.535 126.985 170.028V175H125.791V169.77C125.791 169.336 125.651 168.986 125.369 168.721C125.087 168.452 124.724 168.318 124.28 168.318C123.975 168.318 123.69 168.399 123.425 168.562C123.163 168.724 122.951 168.95 122.789 169.238C122.629 169.523 122.55 169.853 122.55 170.227V175H121.377ZM136.746 175.159C136.01 175.159 135.376 174.997 134.842 174.672C134.312 174.344 133.903 173.886 133.614 173.3C133.329 172.71 133.187 172.024 133.187 171.241C133.187 170.459 133.329 169.77 133.614 169.173C133.903 168.573 134.304 168.106 134.817 167.771C135.334 167.433 135.938 167.264 136.627 167.264C137.025 167.264 137.417 167.33 137.805 167.463C138.193 167.596 138.546 167.811 138.864 168.109C139.182 168.404 139.436 168.795 139.625 169.283C139.814 169.77 139.908 170.37 139.908 171.082V171.58H134.022V170.565H138.715C138.715 170.134 138.629 169.75 138.456 169.412C138.287 169.074 138.046 168.807 137.731 168.612C137.419 168.416 137.051 168.318 136.627 168.318C136.16 168.318 135.755 168.434 135.414 168.666C135.076 168.895 134.816 169.193 134.633 169.561C134.451 169.929 134.36 170.323 134.36 170.744V171.42C134.36 171.997 134.459 172.486 134.658 172.887C134.86 173.285 135.14 173.588 135.498 173.797C135.856 174.002 136.272 174.105 136.746 174.105C137.055 174.105 137.333 174.062 137.581 173.976C137.833 173.886 138.05 173.754 138.233 173.578C138.415 173.399 138.556 173.177 138.655 172.912L139.789 173.23C139.67 173.615 139.469 173.953 139.187 174.244C138.906 174.533 138.558 174.758 138.143 174.92C137.729 175.08 137.263 175.159 136.746 175.159ZM145.014 167.364V168.358H141.057V167.364H145.014ZM142.21 165.534H143.383V172.812C143.383 173.144 143.431 173.393 143.528 173.558C143.627 173.721 143.753 173.83 143.905 173.886C144.061 173.939 144.225 173.966 144.398 173.966C144.527 173.966 144.633 173.959 144.716 173.946C144.799 173.929 144.865 173.916 144.915 173.906L145.153 174.96C145.074 174.99 144.963 175.02 144.82 175.05C144.678 175.083 144.497 175.099 144.278 175.099C143.947 175.099 143.622 175.028 143.304 174.886C142.989 174.743 142.727 174.526 142.518 174.234C142.313 173.943 142.21 173.575 142.21 173.131V165.534ZM150.716 175V167.364H151.85V168.557H151.949C152.108 168.149 152.365 167.833 152.72 167.607C153.075 167.379 153.501 167.264 153.998 167.264C154.501 167.264 154.921 167.379 155.256 167.607C155.594 167.833 155.857 168.149 156.046 168.557H156.126C156.321 168.162 156.614 167.849 157.006 167.617C157.397 167.382 157.866 167.264 158.412 167.264C159.095 167.264 159.654 167.478 160.088 167.906C160.522 168.33 160.739 168.991 160.739 169.889V175H159.566V169.889C159.566 169.326 159.412 168.923 159.104 168.681C158.795 168.439 158.432 168.318 158.015 168.318C157.478 168.318 157.062 168.481 156.767 168.805C156.472 169.127 156.324 169.535 156.324 170.028V175H155.131V169.77C155.131 169.336 154.99 168.986 154.709 168.721C154.427 168.452 154.064 168.318 153.62 168.318C153.315 168.318 153.03 168.399 152.765 168.562C152.503 168.724 152.291 168.95 152.128 169.238C151.969 169.523 151.89 169.853 151.89 170.227V175H150.716ZM165.132 175.179C164.648 175.179 164.209 175.088 163.814 174.906C163.42 174.72 163.106 174.453 162.874 174.105C162.642 173.754 162.526 173.33 162.526 172.832C162.526 172.395 162.613 172.04 162.785 171.768C162.957 171.493 163.188 171.278 163.476 171.122C163.764 170.966 164.083 170.85 164.431 170.774C164.782 170.695 165.135 170.632 165.49 170.585C165.954 170.526 166.33 170.481 166.618 170.451C166.91 170.418 167.122 170.363 167.254 170.287C167.39 170.211 167.458 170.078 167.458 169.889V169.849C167.458 169.359 167.324 168.978 167.056 168.706C166.79 168.434 166.388 168.298 165.847 168.298C165.287 168.298 164.848 168.421 164.53 168.666C164.212 168.911 163.988 169.173 163.859 169.452L162.745 169.054C162.944 168.59 163.209 168.229 163.541 167.97C163.875 167.708 164.24 167.526 164.634 167.423C165.032 167.317 165.423 167.264 165.808 167.264C166.053 167.264 166.335 167.294 166.653 167.354C166.974 167.41 167.284 167.528 167.583 167.707C167.884 167.886 168.134 168.156 168.333 168.517C168.532 168.878 168.632 169.362 168.632 169.969V175H167.458V173.966H167.399C167.319 174.132 167.186 174.309 167.001 174.498C166.815 174.687 166.568 174.848 166.26 174.98C165.952 175.113 165.576 175.179 165.132 175.179ZM165.311 174.125C165.775 174.125 166.166 174.034 166.484 173.852C166.805 173.669 167.047 173.434 167.21 173.146C167.375 172.857 167.458 172.554 167.458 172.236V171.162C167.409 171.222 167.299 171.276 167.13 171.326C166.964 171.372 166.772 171.414 166.553 171.45C166.338 171.483 166.128 171.513 165.922 171.54C165.72 171.563 165.556 171.583 165.43 171.599C165.125 171.639 164.84 171.704 164.575 171.793C164.313 171.879 164.101 172.01 163.938 172.186C163.779 172.358 163.7 172.594 163.7 172.892C163.7 173.3 163.851 173.608 164.152 173.817C164.457 174.022 164.843 174.125 165.311 174.125ZM171.648 167.364L173.478 170.486L175.307 167.364H176.659L174.194 171.182L176.659 175H175.307L173.478 172.037L171.648 175H170.296L172.722 171.182L170.296 167.364H171.648ZM178.334 175V167.364H179.507V175H178.334ZM178.93 166.091C178.702 166.091 178.504 166.013 178.339 165.857C178.176 165.701 178.095 165.514 178.095 165.295C178.095 165.077 178.176 164.889 178.339 164.734C178.504 164.578 178.702 164.5 178.93 164.5C179.159 164.5 179.354 164.578 179.517 164.734C179.683 164.889 179.765 165.077 179.765 165.295C179.765 165.514 179.683 165.701 179.517 165.857C179.354 166.013 179.159 166.091 178.93 166.091ZM181.656 175V167.364H182.789V168.557H182.889C183.048 168.149 183.305 167.833 183.659 167.607C184.014 167.379 184.44 167.264 184.937 167.264C185.441 167.264 185.86 167.379 186.195 167.607C186.533 167.833 186.797 168.149 186.985 168.557H187.065C187.261 168.162 187.554 167.849 187.945 167.617C188.336 167.382 188.805 167.264 189.352 167.264C190.035 167.264 190.593 167.478 191.027 167.906C191.462 168.33 191.679 168.991 191.679 169.889V175H190.505V169.889C190.505 169.326 190.351 168.923 190.043 168.681C189.735 168.439 189.372 168.318 188.954 168.318C188.417 168.318 188.001 168.481 187.706 168.805C187.411 169.127 187.264 169.535 187.264 170.028V175H186.071V169.77C186.071 169.336 185.93 168.986 185.648 168.721C185.366 168.452 185.003 168.318 184.559 168.318C184.254 168.318 183.969 168.399 183.704 168.562C183.442 168.724 183.23 168.95 183.068 169.238C182.909 169.523 182.829 169.853 182.829 170.227V175H181.656ZM198.636 171.878V167.364H199.81V175H198.636V173.707H198.557C198.378 174.095 198.099 174.425 197.722 174.697C197.344 174.965 196.866 175.099 196.29 175.099C195.812 175.099 195.388 174.995 195.017 174.786C194.646 174.574 194.354 174.256 194.142 173.832C193.93 173.404 193.824 172.866 193.824 172.216V167.364H194.997V172.136C194.997 172.693 195.153 173.137 195.464 173.469C195.779 173.8 196.18 173.966 196.668 173.966C196.959 173.966 197.256 173.891 197.558 173.742C197.862 173.593 198.118 173.364 198.323 173.056C198.532 172.748 198.636 172.355 198.636 171.878ZM207.368 169.074L206.314 169.372C206.247 169.196 206.15 169.026 206.02 168.86C205.894 168.691 205.722 168.552 205.503 168.442C205.285 168.333 205.005 168.278 204.663 168.278C204.196 168.278 203.806 168.386 203.495 168.602C203.187 168.814 203.032 169.084 203.032 169.412C203.032 169.704 203.139 169.934 203.351 170.103C203.563 170.272 203.894 170.413 204.345 170.526L205.479 170.804C206.161 170.97 206.67 171.223 207.005 171.565C207.34 171.903 207.507 172.339 207.507 172.872C207.507 173.31 207.381 173.701 207.129 174.045C206.881 174.39 206.532 174.662 206.085 174.861C205.638 175.06 205.117 175.159 204.524 175.159C203.745 175.159 203.1 174.99 202.59 174.652C202.08 174.314 201.756 173.82 201.621 173.17L202.734 172.892C202.84 173.303 203.041 173.611 203.336 173.817C203.634 174.022 204.023 174.125 204.504 174.125C205.051 174.125 205.485 174.009 205.807 173.777C206.131 173.542 206.294 173.26 206.294 172.932C206.294 172.667 206.201 172.445 206.015 172.266C205.83 172.083 205.545 171.947 205.16 171.858L203.888 171.56C203.188 171.394 202.675 171.137 202.346 170.789C202.022 170.438 201.859 169.999 201.859 169.472C201.859 169.041 201.98 168.66 202.222 168.328C202.467 167.997 202.8 167.737 203.221 167.548C203.646 167.359 204.126 167.264 204.663 167.264C205.419 167.264 206.012 167.43 206.443 167.761C206.877 168.093 207.185 168.53 207.368 169.074ZM214.384 164.818V175H213.211V164.818H214.384ZM216.533 175V167.364H217.706V175H216.533ZM217.129 166.091C216.901 166.091 216.704 166.013 216.538 165.857C216.375 165.701 216.294 165.514 216.294 165.295C216.294 165.077 216.375 164.889 216.538 164.734C216.704 164.578 216.901 164.5 217.129 164.5C217.358 164.5 217.554 164.578 217.716 164.734C217.882 164.889 217.965 165.077 217.965 165.295C217.965 165.514 217.882 165.701 217.716 165.857C217.554 166.013 217.358 166.091 217.129 166.091ZM222.938 178.023C222.371 178.023 221.884 177.95 221.476 177.804C221.068 177.661 220.728 177.473 220.457 177.237C220.188 177.005 219.974 176.757 219.815 176.491L220.75 175.835C220.856 175.974 220.99 176.134 221.153 176.312C221.315 176.495 221.537 176.652 221.819 176.785C222.104 176.921 222.477 176.989 222.938 176.989C223.554 176.989 224.063 176.839 224.464 176.541C224.865 176.243 225.065 175.776 225.065 175.139V173.588H224.966C224.88 173.727 224.757 173.9 224.598 174.105C224.442 174.307 224.217 174.488 223.922 174.647C223.63 174.803 223.236 174.881 222.739 174.881C222.122 174.881 221.569 174.735 221.078 174.443C220.591 174.152 220.205 173.727 219.92 173.17C219.638 172.614 219.497 171.937 219.497 171.142C219.497 170.36 219.635 169.679 219.91 169.099C220.185 168.515 220.568 168.065 221.058 167.746C221.549 167.425 222.116 167.264 222.759 167.264C223.256 167.264 223.65 167.347 223.942 167.513C224.237 167.675 224.462 167.861 224.618 168.07C224.777 168.275 224.9 168.444 224.986 168.577H225.105V167.364H226.239V175.219C226.239 175.875 226.089 176.409 225.791 176.82C225.496 177.234 225.098 177.537 224.598 177.729C224.101 177.925 223.547 178.023 222.938 178.023ZM222.898 173.827C223.368 173.827 223.766 173.719 224.091 173.504C224.416 173.288 224.663 172.978 224.832 172.574C225.001 172.17 225.085 171.686 225.085 171.122C225.085 170.572 225.002 170.086 224.837 169.665C224.671 169.245 224.426 168.915 224.101 168.676C223.776 168.437 223.375 168.318 222.898 168.318C222.401 168.318 221.986 168.444 221.655 168.696C221.327 168.948 221.08 169.286 220.914 169.71C220.752 170.134 220.67 170.605 220.67 171.122C220.67 171.652 220.753 172.121 220.919 172.529C221.088 172.933 221.337 173.252 221.665 173.484C221.996 173.712 222.407 173.827 222.898 173.827ZM233.199 171.878V167.364H234.372V175H233.199V173.707H233.119C232.94 174.095 232.662 174.425 232.284 174.697C231.906 174.965 231.429 175.099 230.852 175.099C230.375 175.099 229.951 174.995 229.58 174.786C229.208 174.574 228.917 174.256 228.705 173.832C228.492 173.404 228.386 172.866 228.386 172.216V167.364H229.56V172.136C229.56 172.693 229.715 173.137 230.027 173.469C230.342 173.8 230.743 173.966 231.23 173.966C231.522 173.966 231.818 173.891 232.12 173.742C232.425 173.593 232.68 173.364 232.886 173.056C233.094 172.748 233.199 172.355 233.199 171.878ZM237.694 164.818V175H236.521V164.818H237.694ZM242.091 175.179C241.607 175.179 241.167 175.088 240.773 174.906C240.379 174.72 240.065 174.453 239.833 174.105C239.601 173.754 239.485 173.33 239.485 172.832C239.485 172.395 239.572 172.04 239.744 171.768C239.916 171.493 240.147 171.278 240.435 171.122C240.723 170.966 241.042 170.85 241.39 170.774C241.741 170.695 242.094 170.632 242.449 170.585C242.913 170.526 243.289 170.481 243.577 170.451C243.869 170.418 244.081 170.363 244.213 170.287C244.349 170.211 244.417 170.078 244.417 169.889V169.849C244.417 169.359 244.283 168.978 244.015 168.706C243.749 168.434 243.347 168.298 242.806 168.298C242.246 168.298 241.807 168.421 241.489 168.666C241.171 168.911 240.947 169.173 240.818 169.452L239.704 169.054C239.903 168.59 240.168 168.229 240.5 167.97C240.834 167.708 241.199 167.526 241.593 167.423C241.991 167.317 242.382 167.264 242.767 167.264C243.012 167.264 243.294 167.294 243.612 167.354C243.933 167.41 244.243 167.528 244.542 167.707C244.843 167.886 245.093 168.156 245.292 168.517C245.491 168.878 245.591 169.362 245.591 169.969V175H244.417V173.966H244.358C244.278 174.132 244.145 174.309 243.96 174.498C243.774 174.687 243.527 174.848 243.219 174.98C242.911 175.113 242.535 175.179 242.091 175.179ZM242.27 174.125C242.734 174.125 243.125 174.034 243.443 173.852C243.764 173.669 244.006 173.434 244.169 173.146C244.334 172.857 244.417 172.554 244.417 172.236V171.162C244.368 171.222 244.258 171.276 244.089 171.326C243.923 171.372 243.731 171.414 243.512 171.45C243.297 171.483 243.087 171.513 242.881 171.54C242.679 171.563 242.515 171.583 242.389 171.599C242.084 171.639 241.799 171.704 241.534 171.793C241.272 171.879 241.06 172.01 240.897 172.186C240.738 172.358 240.659 172.594 240.659 172.892C240.659 173.3 240.81 173.608 241.111 173.817C241.416 174.022 241.802 174.125 242.27 174.125ZM248.587 175.08C248.342 175.08 248.131 174.992 247.956 174.816C247.78 174.64 247.692 174.43 247.692 174.185C247.692 173.939 247.78 173.729 247.956 173.553C248.131 173.378 248.342 173.29 248.587 173.29C248.832 173.29 249.043 173.378 249.219 173.553C249.394 173.729 249.482 173.939 249.482 174.185C249.482 174.347 249.441 174.496 249.358 174.632C249.278 174.768 249.171 174.877 249.035 174.96C248.902 175.04 248.753 175.08 248.587 175.08ZM263.758 164.818V175H262.565L257.017 167.006H256.917V175H255.684V164.818H256.877L262.445 172.832H262.545V164.818H263.758ZM268.313 175.179C267.829 175.179 267.39 175.088 266.996 174.906C266.601 174.72 266.288 174.453 266.056 174.105C265.824 173.754 265.708 173.33 265.708 172.832C265.708 172.395 265.794 172.04 265.967 171.768C266.139 171.493 266.369 171.278 266.658 171.122C266.946 170.966 267.264 170.85 267.612 170.774C267.964 170.695 268.317 170.632 268.671 170.585C269.135 170.526 269.511 170.481 269.8 170.451C270.091 170.418 270.304 170.363 270.436 170.287C270.572 170.211 270.64 170.078 270.64 169.889V169.849C270.64 169.359 270.506 168.978 270.237 168.706C269.972 168.434 269.569 168.298 269.029 168.298C268.469 168.298 268.03 168.421 267.712 168.666C267.393 168.911 267.17 169.173 267.04 169.452L265.927 169.054C266.126 168.59 266.391 168.229 266.722 167.97C267.057 167.708 267.422 167.526 267.816 167.423C268.214 167.317 268.605 167.264 268.989 167.264C269.235 167.264 269.516 167.294 269.835 167.354C270.156 167.41 270.466 167.528 270.764 167.707C271.066 167.886 271.316 168.156 271.515 168.517C271.714 168.878 271.813 169.362 271.813 169.969V175H270.64V173.966H270.58C270.501 174.132 270.368 174.309 270.183 174.498C269.997 174.687 269.75 174.848 269.442 174.98C269.134 175.113 268.757 175.179 268.313 175.179ZM268.492 174.125C268.956 174.125 269.347 174.034 269.665 173.852C269.987 173.669 270.229 173.434 270.391 173.146C270.557 172.857 270.64 172.554 270.64 172.236V171.162C270.59 171.222 270.481 171.276 270.312 171.326C270.146 171.372 269.954 171.414 269.735 171.45C269.52 171.483 269.309 171.513 269.104 171.54C268.902 171.563 268.737 171.583 268.612 171.599C268.307 171.639 268.022 171.704 267.756 171.793C267.495 171.879 267.282 172.01 267.12 172.186C266.961 172.358 266.881 172.594 266.881 172.892C266.881 173.3 267.032 173.608 267.334 173.817C267.639 174.022 268.025 174.125 268.492 174.125ZM273.955 175V167.364H275.088V168.557H275.188C275.347 168.149 275.604 167.833 275.958 167.607C276.313 167.379 276.739 167.264 277.236 167.264C277.74 167.264 278.159 167.379 278.494 167.607C278.832 167.833 279.095 168.149 279.284 168.557H279.364C279.559 168.162 279.853 167.849 280.244 167.617C280.635 167.382 281.104 167.264 281.651 167.264C282.334 167.264 282.892 167.478 283.326 167.906C283.76 168.33 283.977 168.991 283.977 169.889V175H282.804V169.889C282.804 169.326 282.65 168.923 282.342 168.681C282.034 168.439 281.671 168.318 281.253 168.318C280.716 168.318 280.3 168.481 280.005 168.805C279.71 169.127 279.563 169.535 279.563 170.028V175H278.369V169.77C278.369 169.336 278.229 168.986 277.947 168.721C277.665 168.452 277.302 168.318 276.858 168.318C276.553 168.318 276.268 168.399 276.003 168.562C275.741 168.724 275.529 168.95 275.367 169.238C275.208 169.523 275.128 169.853 275.128 170.227V175H273.955ZM52.1199 195.179C51.6359 195.179 51.1968 195.088 50.8024 194.906C50.408 194.72 50.0948 194.453 49.8627 194.105C49.6307 193.754 49.5147 193.33 49.5147 192.832C49.5147 192.395 49.6009 192.04 49.7733 191.768C49.9456 191.493 50.176 191.278 50.4643 191.122C50.7527 190.966 51.0708 190.85 51.4189 190.774C51.7702 190.695 52.1232 190.632 52.4778 190.585C52.9418 190.526 53.318 190.481 53.6064 190.451C53.898 190.418 54.1101 190.363 54.2427 190.287C54.3786 190.211 54.4466 190.078 54.4466 189.889V189.849C54.4466 189.359 54.3123 188.978 54.0439 188.706C53.7787 188.434 53.376 188.298 52.8358 188.298C52.2756 188.298 51.8365 188.421 51.5183 188.666C51.2001 188.911 50.9764 189.173 50.8471 189.452L49.7335 189.054C49.9324 188.59 50.1975 188.229 50.5289 187.97C50.8637 187.708 51.2283 187.526 51.6227 187.423C52.0204 187.317 52.4115 187.264 52.796 187.264C53.0413 187.264 53.323 187.294 53.6412 187.354C53.9627 187.41 54.2725 187.528 54.5708 187.707C54.8725 187.886 55.1227 188.156 55.3216 188.517C55.5204 188.878 55.6199 189.362 55.6199 189.969V195H54.4466V193.966H54.3869C54.3074 194.132 54.1748 194.309 53.9892 194.498C53.8036 194.687 53.5566 194.848 53.2484 194.98C52.9402 195.113 52.564 195.179 52.1199 195.179ZM52.2988 194.125C52.7628 194.125 53.1539 194.034 53.4721 193.852C53.7936 193.669 54.0356 193.434 54.198 193.146C54.3637 192.857 54.4466 192.554 54.4466 192.236V191.162C54.3968 191.222 54.2875 191.276 54.1184 191.326C53.9527 191.372 53.7605 191.414 53.5417 191.45C53.3263 191.483 53.1158 191.513 52.9103 191.54C52.7082 191.563 52.5441 191.583 52.4181 191.599C52.1132 191.639 51.8282 191.704 51.563 191.793C51.3012 191.879 51.0891 192.01 50.9267 192.186C50.7676 192.358 50.688 192.594 50.688 192.892C50.688 193.3 50.8388 193.608 51.1404 193.817C51.4454 194.022 51.8315 194.125 52.2988 194.125ZM62.8722 190.406V195H61.6989V187.364H62.8324V188.557H62.9318C63.1108 188.169 63.3826 187.857 63.7472 187.622C64.1117 187.384 64.5824 187.264 65.1591 187.264C65.6761 187.264 66.1286 187.37 66.5163 187.582C66.9041 187.791 67.2057 188.109 67.4212 188.537C67.6366 188.961 67.7443 189.498 67.7443 190.148V195H66.571V190.227C66.571 189.627 66.4152 189.16 66.1037 188.825C65.7921 188.487 65.3646 188.318 64.821 188.318C64.4465 188.318 64.1117 188.399 63.8168 188.562C63.5251 188.724 63.2947 188.961 63.1257 189.273C62.9567 189.584 62.8722 189.962 62.8722 190.406ZM74.7008 191.878V187.364H75.8741V195H74.7008V193.707H74.6213C74.4423 194.095 74.1639 194.425 73.786 194.697C73.4082 194.965 72.9309 195.099 72.3542 195.099C71.877 195.099 71.4527 194.995 71.0815 194.786C70.7103 194.574 70.4186 194.256 70.2065 193.832C69.9944 193.404 69.8883 192.866 69.8883 192.216V187.364H71.0616V192.136C71.0616 192.693 71.2174 193.137 71.5289 193.469C71.8438 193.8 72.2449 193.966 72.7321 193.966C73.0237 193.966 73.3204 193.891 73.622 193.742C73.9269 193.593 74.1821 193.364 74.3876 193.056C74.5964 192.748 74.7008 192.355 74.7008 191.878ZM79.1964 184.818V195H78.0231V184.818H79.1964ZM82.5186 184.818V195H81.3453V184.818H82.5186ZM86.9148 195.179C86.4309 195.179 85.9917 195.088 85.5973 194.906C85.2029 194.72 84.8897 194.453 84.6577 194.105C84.4257 193.754 84.3097 193.33 84.3097 192.832C84.3097 192.395 84.3958 192.04 84.5682 191.768C84.7405 191.493 84.9709 191.278 85.2592 191.122C85.5476 190.966 85.8658 190.85 86.2138 190.774C86.5651 190.695 86.9181 190.632 87.2727 190.585C87.7367 190.526 88.1129 190.481 88.4013 190.451C88.6929 190.418 88.9051 190.363 89.0376 190.287C89.1735 190.211 89.2415 190.078 89.2415 189.889V189.849C89.2415 189.359 89.1072 188.978 88.8388 188.706C88.5736 188.434 88.1709 188.298 87.6307 188.298C87.0705 188.298 86.6314 188.421 86.3132 188.666C85.995 188.911 85.7713 189.173 85.642 189.452L84.5284 189.054C84.7273 188.59 84.9924 188.229 85.3239 187.97C85.6586 187.708 86.0232 187.526 86.4176 187.423C86.8153 187.317 87.2064 187.264 87.5909 187.264C87.8362 187.264 88.1179 187.294 88.4361 187.354C88.7576 187.41 89.0675 187.528 89.3658 187.707C89.6674 187.886 89.9176 188.156 90.1165 188.517C90.3153 188.878 90.4148 189.362 90.4148 189.969V195H89.2415V193.966H89.1818C89.1023 194.132 88.9697 194.309 88.7841 194.498C88.5985 194.687 88.3516 194.848 88.0433 194.98C87.7351 195.113 87.3589 195.179 86.9148 195.179ZM87.0938 194.125C87.5578 194.125 87.9489 194.034 88.267 193.852C88.5885 193.669 88.8305 193.434 88.9929 193.146C89.1586 192.857 89.2415 192.554 89.2415 192.236V191.162C89.1918 191.222 89.0824 191.276 88.9134 191.326C88.7476 191.372 88.5554 191.414 88.3366 191.45C88.1212 191.483 87.9107 191.513 87.7053 191.54C87.5031 191.563 87.339 191.583 87.2131 191.599C86.9081 191.639 86.6231 191.704 86.358 191.793C86.0961 191.879 85.884 192.01 85.7216 192.186C85.5625 192.358 85.483 192.594 85.483 192.892C85.483 193.3 85.6338 193.608 85.9354 193.817C86.2403 194.022 86.6264 194.125 87.0938 194.125ZM98.7409 195.179C98.257 195.179 97.8179 195.088 97.4235 194.906C97.0291 194.72 96.7158 194.453 96.4838 194.105C96.2518 193.754 96.1358 193.33 96.1358 192.832C96.1358 192.395 96.222 192.04 96.3944 191.768C96.5667 191.493 96.7971 191.278 97.0854 191.122C97.3738 190.966 97.6919 190.85 98.04 190.774C98.3913 190.695 98.7443 190.632 99.0989 190.585C99.5629 190.526 99.9391 190.481 100.227 190.451C100.519 190.418 100.731 190.363 100.864 190.287C101 190.211 101.068 190.078 101.068 189.889V189.849C101.068 189.359 100.933 188.978 100.665 188.706C100.4 188.434 99.9971 188.298 99.4569 188.298C98.8967 188.298 98.4576 188.421 98.1394 188.666C97.8212 188.911 97.5975 189.173 97.4682 189.452L96.3546 189.054C96.5534 188.59 96.8186 188.229 97.15 187.97C97.4848 187.708 97.8494 187.526 98.2438 187.423C98.6415 187.317 99.0326 187.264 99.4171 187.264C99.6623 187.264 99.9441 187.294 100.262 187.354C100.584 187.41 100.894 187.528 101.192 187.707C101.494 187.886 101.744 188.156 101.943 188.517C102.142 188.878 102.241 189.362 102.241 189.969V195H101.068V193.966H101.008C100.928 194.132 100.796 194.309 100.61 194.498C100.425 194.687 100.178 194.848 99.8695 194.98C99.5613 195.113 99.1851 195.179 98.7409 195.179ZM98.9199 194.125C99.3839 194.125 99.775 194.034 100.093 193.852C100.415 193.669 100.657 193.434 100.819 193.146C100.985 192.857 101.068 192.554 101.068 192.236V191.162C101.018 191.222 100.909 191.276 100.74 191.326C100.574 191.372 100.382 191.414 100.163 191.45C99.9474 191.483 99.7369 191.513 99.5314 191.54C99.3292 191.563 99.1652 191.583 99.0392 191.599C98.7343 191.639 98.4493 191.704 98.1841 191.793C97.9223 191.879 97.7102 192.01 97.5478 192.186C97.3887 192.358 97.3091 192.594 97.3091 192.892C97.3091 193.3 97.4599 193.608 97.7615 193.817C98.0665 194.022 98.4526 194.125 98.9199 194.125ZM105.556 190.406V195H104.382V187.364H105.516V188.557H105.615C105.794 188.169 106.066 187.857 106.431 187.622C106.795 187.384 107.266 187.264 107.843 187.264C108.36 187.264 108.812 187.37 109.2 187.582C109.588 187.791 109.889 188.109 110.105 188.537C110.32 188.961 110.428 189.498 110.428 190.148V195H109.255V190.227C109.255 189.627 109.099 189.16 108.787 188.825C108.476 188.487 108.048 188.318 107.505 188.318C107.13 188.318 106.795 188.399 106.5 188.562C106.209 188.724 105.978 188.961 105.809 189.273C105.64 189.584 105.556 189.962 105.556 190.406ZM115.893 187.364V188.358H111.936V187.364H115.893ZM113.089 185.534H114.262V192.812C114.262 193.144 114.31 193.393 114.406 193.558C114.506 193.721 114.632 193.83 114.784 193.886C114.94 193.939 115.104 193.966 115.276 193.966C115.406 193.966 115.512 193.959 115.595 193.946C115.677 193.929 115.744 193.916 115.794 193.906L116.032 194.96C115.953 194.99 115.842 195.02 115.699 195.05C115.557 195.083 115.376 195.099 115.157 195.099C114.826 195.099 114.501 195.028 114.183 194.886C113.868 194.743 113.606 194.526 113.397 194.234C113.192 193.943 113.089 193.575 113.089 193.131V185.534ZM120.778 195.159C120.042 195.159 119.407 194.997 118.873 194.672C118.343 194.344 117.934 193.886 117.645 193.3C117.36 192.71 117.218 192.024 117.218 191.241C117.218 190.459 117.36 189.77 117.645 189.173C117.934 188.573 118.335 188.106 118.849 187.771C119.366 187.433 119.969 187.264 120.658 187.264C121.056 187.264 121.449 187.33 121.836 187.463C122.224 187.596 122.577 187.811 122.895 188.109C123.214 188.404 123.467 188.795 123.656 189.283C123.845 189.77 123.939 190.37 123.939 191.082V191.58H118.053V190.565H122.746C122.746 190.134 122.66 189.75 122.488 189.412C122.319 189.074 122.077 188.807 121.762 188.612C121.45 188.416 121.082 188.318 120.658 188.318C120.191 188.318 119.787 188.434 119.445 188.666C119.107 188.895 118.847 189.193 118.665 189.561C118.482 189.929 118.391 190.323 118.391 190.744V191.42C118.391 191.997 118.491 192.486 118.689 192.887C118.892 193.285 119.172 193.588 119.53 193.797C119.888 194.002 120.304 194.105 120.778 194.105C121.086 194.105 121.364 194.062 121.613 193.976C121.865 193.886 122.082 193.754 122.264 193.578C122.446 193.399 122.587 193.177 122.687 192.912L123.82 193.23C123.701 193.615 123.5 193.953 123.219 194.244C122.937 194.533 122.589 194.758 122.175 194.92C121.76 195.08 121.295 195.159 120.778 195.159ZM127.474 193.608L127.395 194.145C127.338 194.523 127.252 194.927 127.136 195.358C127.023 195.789 126.906 196.195 126.783 196.576C126.661 196.957 126.559 197.26 126.48 197.486H125.585C125.628 197.274 125.684 196.994 125.754 196.646C125.824 196.298 125.893 195.908 125.963 195.477C126.036 195.05 126.095 194.612 126.142 194.165L126.202 193.608H127.474ZM141.819 184.818V195H140.625L135.077 187.006H134.978V195H133.745V184.818H134.938L140.506 192.832H140.605V184.818H141.819ZM146.374 195.179C145.89 195.179 145.451 195.088 145.056 194.906C144.662 194.72 144.349 194.453 144.117 194.105C143.885 193.754 143.769 193.33 143.769 192.832C143.769 192.395 143.855 192.04 144.027 191.768C144.2 191.493 144.43 191.278 144.718 191.122C145.007 190.966 145.325 190.85 145.673 190.774C146.024 190.695 146.377 190.632 146.732 190.585C147.196 190.526 147.572 190.481 147.86 190.451C148.152 190.418 148.364 190.363 148.497 190.287C148.633 190.211 148.7 190.078 148.7 189.889V189.849C148.7 189.359 148.566 188.978 148.298 188.706C148.033 188.434 147.63 188.298 147.09 188.298C146.53 188.298 146.09 188.421 145.772 188.666C145.454 188.911 145.23 189.173 145.101 189.452L143.987 189.054C144.186 188.59 144.451 188.229 144.783 187.97C145.118 187.708 145.482 187.526 145.877 187.423C146.274 187.317 146.665 187.264 147.05 187.264C147.295 187.264 147.577 187.294 147.895 187.354C148.217 187.41 148.526 187.528 148.825 187.707C149.126 187.886 149.377 188.156 149.575 188.517C149.774 188.878 149.874 189.362 149.874 189.969V195H148.7V193.966H148.641C148.561 194.132 148.429 194.309 148.243 194.498C148.057 194.687 147.811 194.848 147.502 194.98C147.194 195.113 146.818 195.179 146.374 195.179ZM146.553 194.125C147.017 194.125 147.408 194.034 147.726 193.852C148.048 193.669 148.289 193.434 148.452 193.146C148.618 192.857 148.7 192.554 148.7 192.236V191.162C148.651 191.222 148.541 191.276 148.372 191.326C148.207 191.372 148.014 191.414 147.796 191.45C147.58 191.483 147.37 191.513 147.164 191.54C146.962 191.563 146.798 191.583 146.672 191.599C146.367 191.639 146.082 191.704 145.817 191.793C145.555 191.879 145.343 192.01 145.181 192.186C145.021 192.358 144.942 192.594 144.942 192.892C144.942 193.3 145.093 193.608 145.394 193.817C145.699 194.022 146.085 194.125 146.553 194.125ZM152.015 195V187.364H153.149V188.557H153.248C153.407 188.149 153.664 187.833 154.019 187.607C154.373 187.379 154.799 187.264 155.297 187.264C155.8 187.264 156.22 187.379 156.554 187.607C156.892 187.833 157.156 188.149 157.345 188.557H157.424C157.62 188.162 157.913 187.849 158.304 187.617C158.695 187.382 159.164 187.264 159.711 187.264C160.394 187.264 160.953 187.478 161.387 187.906C161.821 188.33 162.038 188.991 162.038 189.889V195H160.865V189.889C160.865 189.326 160.711 188.923 160.402 188.681C160.094 188.439 159.731 188.318 159.314 188.318C158.777 188.318 158.361 188.481 158.066 188.805C157.771 189.127 157.623 189.535 157.623 190.028V195H156.43V189.77C156.43 189.336 156.289 188.986 156.007 188.721C155.726 188.452 155.363 188.318 154.919 188.318C154.614 188.318 154.329 188.399 154.064 188.562C153.802 188.724 153.59 188.95 153.427 189.238C153.268 189.523 153.189 189.853 153.189 190.227V195H152.015ZM173.53 189.074L172.476 189.372C172.41 189.196 172.312 189.026 172.183 188.86C172.057 188.691 171.884 188.552 171.665 188.442C171.447 188.333 171.167 188.278 170.825 188.278C170.358 188.278 169.969 188.386 169.657 188.602C169.349 188.814 169.195 189.084 169.195 189.412C169.195 189.704 169.301 189.934 169.513 190.103C169.725 190.272 170.056 190.413 170.507 190.526L171.641 190.804C172.323 190.97 172.832 191.223 173.167 191.565C173.502 191.903 173.669 192.339 173.669 192.872C173.669 193.31 173.543 193.701 173.291 194.045C173.043 194.39 172.695 194.662 172.247 194.861C171.8 195.06 171.279 195.159 170.686 195.159C169.907 195.159 169.263 194.99 168.752 194.652C168.242 194.314 167.919 193.82 167.783 193.17L168.896 192.892C169.002 193.303 169.203 193.611 169.498 193.817C169.796 194.022 170.186 194.125 170.666 194.125C171.213 194.125 171.647 194.009 171.969 193.777C172.294 193.542 172.456 193.26 172.456 192.932C172.456 192.667 172.363 192.445 172.178 192.266C171.992 192.083 171.707 191.947 171.322 191.858L170.05 191.56C169.35 191.394 168.837 191.137 168.509 190.789C168.184 190.438 168.021 189.999 168.021 189.472C168.021 189.041 168.142 188.66 168.384 188.328C168.629 187.997 168.963 187.737 169.384 187.548C169.808 187.359 170.288 187.264 170.825 187.264C171.581 187.264 172.174 187.43 172.605 187.761C173.039 188.093 173.348 188.53 173.53 189.074ZM178.537 195.159C177.848 195.159 177.243 194.995 176.723 194.667C176.206 194.339 175.801 193.88 175.51 193.29C175.221 192.7 175.077 192.01 175.077 191.222C175.077 190.426 175.221 189.732 175.51 189.138C175.801 188.545 176.206 188.085 176.723 187.756C177.243 187.428 177.848 187.264 178.537 187.264C179.227 187.264 179.83 187.428 180.347 187.756C180.867 188.085 181.272 188.545 181.56 189.138C181.852 189.732 181.998 190.426 181.998 191.222C181.998 192.01 181.852 192.7 181.56 193.29C181.272 193.88 180.867 194.339 180.347 194.667C179.83 194.995 179.227 195.159 178.537 195.159ZM178.537 194.105C179.061 194.105 179.492 193.971 179.83 193.702C180.168 193.434 180.418 193.081 180.581 192.643C180.743 192.206 180.824 191.732 180.824 191.222C180.824 190.711 180.743 190.236 180.581 189.795C180.418 189.354 180.168 188.998 179.83 188.726C179.492 188.454 179.061 188.318 178.537 188.318C178.014 188.318 177.583 188.454 177.245 188.726C176.907 188.998 176.657 189.354 176.494 189.795C176.332 190.236 176.251 190.711 176.251 191.222C176.251 191.732 176.332 192.206 176.494 192.643C176.657 193.081 176.907 193.434 177.245 193.702C177.583 193.971 178.014 194.105 178.537 194.105ZM186.672 195.159C186.036 195.159 185.474 194.998 184.987 194.677C184.5 194.352 184.118 193.895 183.843 193.305C183.568 192.711 183.431 192.01 183.431 191.202C183.431 190.4 183.568 189.704 183.843 189.114C184.118 188.524 184.501 188.068 184.992 187.746C185.482 187.425 186.049 187.264 186.692 187.264C187.189 187.264 187.582 187.347 187.87 187.513C188.162 187.675 188.384 187.861 188.537 188.07C188.692 188.275 188.813 188.444 188.9 188.577H188.999V184.818H190.172V195H189.039V193.827H188.9C188.813 193.966 188.691 194.142 188.532 194.354C188.373 194.562 188.145 194.75 187.85 194.915C187.556 195.078 187.163 195.159 186.672 195.159ZM186.831 194.105C187.302 194.105 187.7 193.982 188.025 193.737C188.349 193.489 188.596 193.146 188.765 192.708C188.934 192.267 189.019 191.759 189.019 191.182C189.019 190.612 188.936 190.113 188.77 189.685C188.605 189.254 188.359 188.92 188.034 188.681C187.71 188.439 187.309 188.318 186.831 188.318C186.334 188.318 185.92 188.446 185.588 188.701C185.26 188.953 185.013 189.296 184.848 189.73C184.685 190.161 184.604 190.645 184.604 191.182C184.604 191.725 184.687 192.219 184.853 192.663C185.022 193.104 185.27 193.455 185.598 193.717C185.93 193.976 186.341 194.105 186.831 194.105ZM194.731 195.179C194.247 195.179 193.808 195.088 193.414 194.906C193.019 194.72 192.706 194.453 192.474 194.105C192.242 193.754 192.126 193.33 192.126 192.832C192.126 192.395 192.212 192.04 192.385 191.768C192.557 191.493 192.787 191.278 193.076 191.122C193.364 190.966 193.682 190.85 194.03 190.774C194.382 190.695 194.734 190.632 195.089 190.585C195.553 190.526 195.929 190.481 196.218 190.451C196.509 190.418 196.721 190.363 196.854 190.287C196.99 190.211 197.058 190.078 197.058 189.889V189.849C197.058 189.359 196.924 188.978 196.655 188.706C196.39 188.434 195.987 188.298 195.447 188.298C194.887 188.298 194.448 188.421 194.13 188.666C193.811 188.911 193.588 189.173 193.458 189.452L192.345 189.054C192.544 188.59 192.809 188.229 193.14 187.97C193.475 187.708 193.84 187.526 194.234 187.423C194.632 187.317 195.023 187.264 195.407 187.264C195.653 187.264 195.934 187.294 196.252 187.354C196.574 187.41 196.884 187.528 197.182 187.707C197.484 187.886 197.734 188.156 197.933 188.517C198.132 188.878 198.231 189.362 198.231 189.969V195H197.058V193.966H196.998C196.919 194.132 196.786 194.309 196.6 194.498C196.415 194.687 196.168 194.848 195.86 194.98C195.551 195.113 195.175 195.179 194.731 195.179ZM194.91 194.125C195.374 194.125 195.765 194.034 196.083 193.852C196.405 193.669 196.647 193.434 196.809 193.146C196.975 192.857 197.058 192.554 197.058 192.236V191.162C197.008 191.222 196.899 191.276 196.73 191.326C196.564 191.372 196.372 191.414 196.153 191.45C195.938 191.483 195.727 191.513 195.522 191.54C195.319 191.563 195.155 191.583 195.029 191.599C194.725 191.639 194.44 191.704 194.174 191.793C193.913 191.879 193.7 192.01 193.538 192.186C193.379 192.358 193.299 192.594 193.299 192.892C193.299 193.3 193.45 193.608 193.752 193.817C194.057 194.022 194.443 194.125 194.91 194.125ZM201.546 184.818V195H200.373V184.818H201.546ZM206.897 195.159C206.161 195.159 205.526 194.997 204.993 194.672C204.462 194.344 204.053 193.886 203.765 193.3C203.48 192.71 203.337 192.024 203.337 191.241C203.337 190.459 203.48 189.77 203.765 189.173C204.053 188.573 204.454 188.106 204.968 187.771C205.485 187.433 206.088 187.264 206.777 187.264C207.175 187.264 207.568 187.33 207.956 187.463C208.343 187.596 208.696 187.811 209.015 188.109C209.333 188.404 209.586 188.795 209.775 189.283C209.964 189.77 210.059 190.37 210.059 191.082V191.58H204.172V190.565H208.865C208.865 190.134 208.779 189.75 208.607 189.412C208.438 189.074 208.196 188.807 207.881 188.612C207.569 188.416 207.202 188.318 206.777 188.318C206.31 188.318 205.906 188.434 205.564 188.666C205.226 188.895 204.966 189.193 204.784 189.561C204.601 189.929 204.51 190.323 204.51 190.744V191.42C204.51 191.997 204.61 192.486 204.809 192.887C205.011 193.285 205.291 193.588 205.649 193.797C206.007 194.002 206.423 194.105 206.897 194.105C207.205 194.105 207.483 194.062 207.732 193.976C207.984 193.886 208.201 193.754 208.383 193.578C208.565 193.399 208.706 193.177 208.806 192.912L209.939 193.23C209.82 193.615 209.619 193.953 209.338 194.244C209.056 194.533 208.708 194.758 208.294 194.92C207.879 195.08 207.414 195.159 206.897 195.159ZM217.252 189.074L216.199 189.372C216.132 189.196 216.034 189.026 215.905 188.86C215.779 188.691 215.607 188.552 215.388 188.442C215.169 188.333 214.889 188.278 214.548 188.278C214.081 188.278 213.691 188.386 213.38 188.602C213.071 188.814 212.917 189.084 212.917 189.412C212.917 189.704 213.023 189.934 213.235 190.103C213.448 190.272 213.779 190.413 214.23 190.526L215.363 190.804C216.046 190.97 216.555 191.223 216.89 191.565C217.224 191.903 217.392 192.339 217.392 192.872C217.392 193.31 217.266 193.701 217.014 194.045C216.765 194.39 216.417 194.662 215.97 194.861C215.522 195.06 215.002 195.159 214.409 195.159C213.63 195.159 212.985 194.99 212.475 194.652C211.964 194.314 211.641 193.82 211.505 193.17L212.619 192.892C212.725 193.303 212.926 193.611 213.221 193.817C213.519 194.022 213.908 194.125 214.389 194.125C214.936 194.125 215.37 194.009 215.691 193.777C216.016 193.542 216.179 193.26 216.179 192.932C216.179 192.667 216.086 192.445 215.9 192.266C215.715 192.083 215.43 191.947 215.045 191.858L213.772 191.56C213.073 191.394 212.559 191.137 212.231 190.789C211.906 190.438 211.744 189.999 211.744 189.472C211.744 189.041 211.865 188.66 212.107 188.328C212.352 187.997 212.685 187.737 213.106 187.548C213.53 187.359 214.011 187.264 214.548 187.264C215.304 187.264 215.897 187.43 216.328 187.761C216.762 188.093 217.07 188.53 217.252 189.074ZM223.095 197.864V187.364H224.229V188.577H224.368C224.454 188.444 224.574 188.275 224.726 188.07C224.882 187.861 225.104 187.675 225.392 187.513C225.684 187.347 226.078 187.264 226.575 187.264C227.218 187.264 227.785 187.425 228.276 187.746C228.766 188.068 229.149 188.524 229.424 189.114C229.699 189.704 229.837 190.4 229.837 191.202C229.837 192.01 229.699 192.711 229.424 193.305C229.149 193.895 228.768 194.352 228.281 194.677C227.794 194.998 227.232 195.159 226.595 195.159C226.105 195.159 225.712 195.078 225.417 194.915C225.122 194.75 224.895 194.562 224.736 194.354C224.577 194.142 224.454 193.966 224.368 193.827H224.269V197.864H223.095ZM224.249 191.182C224.249 191.759 224.333 192.267 224.502 192.708C224.671 193.146 224.918 193.489 225.243 193.737C225.568 193.982 225.966 194.105 226.436 194.105C226.927 194.105 227.336 193.976 227.664 193.717C227.996 193.455 228.244 193.104 228.41 192.663C228.579 192.219 228.664 191.725 228.664 191.182C228.664 190.645 228.581 190.161 228.415 189.73C228.253 189.296 228.006 188.953 227.674 188.701C227.346 188.446 226.933 188.318 226.436 188.318C225.959 188.318 225.558 188.439 225.233 188.681C224.908 188.92 224.663 189.254 224.497 189.685C224.332 190.113 224.249 190.612 224.249 191.182ZM236.439 191.878V187.364H237.612V195H236.439V193.707H236.36C236.181 194.095 235.902 194.425 235.524 194.697C235.146 194.965 234.669 195.099 234.093 195.099C233.615 195.099 233.191 194.995 232.82 194.786C232.449 194.574 232.157 194.256 231.945 193.832C231.733 193.404 231.627 192.866 231.627 192.216V187.364H232.8V192.136C232.8 192.693 232.956 193.137 233.267 193.469C233.582 193.8 233.983 193.966 234.47 193.966C234.762 193.966 235.059 193.891 235.36 193.742C235.665 193.593 235.92 193.364 236.126 193.056C236.335 192.748 236.439 192.355 236.439 191.878ZM239.761 195V187.364H240.895V188.517H240.974C241.114 188.139 241.366 187.833 241.73 187.597C242.095 187.362 242.506 187.244 242.963 187.244C243.049 187.244 243.157 187.246 243.286 187.249C243.415 187.253 243.513 187.258 243.58 187.264V188.457C243.54 188.447 243.449 188.433 243.306 188.413C243.167 188.389 243.019 188.378 242.864 188.378C242.492 188.378 242.161 188.456 241.869 188.612C241.581 188.764 241.352 188.976 241.183 189.248C241.018 189.516 240.935 189.823 240.935 190.168V195H239.761ZM249.783 191.878V187.364H250.956V195H249.783V193.707H249.703C249.524 194.095 249.246 194.425 248.868 194.697C248.49 194.965 248.013 195.099 247.436 195.099C246.959 195.099 246.535 194.995 246.164 194.786C245.792 194.574 245.501 194.256 245.289 193.832C245.076 193.404 244.97 192.866 244.97 192.216V187.364H246.144V192.136C246.144 192.693 246.299 193.137 246.611 193.469C246.926 193.8 247.327 193.966 247.814 193.966C248.106 193.966 248.402 193.891 248.704 193.742C249.009 193.593 249.264 193.364 249.47 193.056C249.678 192.748 249.783 192.355 249.783 191.878ZM258.514 189.074L257.46 189.372C257.394 189.196 257.296 189.026 257.167 188.86C257.041 188.691 256.869 188.552 256.65 188.442C256.431 188.333 256.151 188.278 255.81 188.278C255.342 188.278 254.953 188.386 254.641 188.602C254.333 188.814 254.179 189.084 254.179 189.412C254.179 189.704 254.285 189.934 254.497 190.103C254.709 190.272 255.041 190.413 255.491 190.526L256.625 190.804C257.308 190.97 257.817 191.223 258.151 191.565C258.486 191.903 258.653 192.339 258.653 192.872C258.653 193.31 258.527 193.701 258.276 194.045C258.027 194.39 257.679 194.662 257.232 194.861C256.784 195.06 256.264 195.159 255.67 195.159C254.892 195.159 254.247 194.99 253.737 194.652C253.226 194.314 252.903 193.82 252.767 193.17L253.881 192.892C253.987 193.303 254.187 193.611 254.482 193.817C254.781 194.022 255.17 194.125 255.651 194.125C256.197 194.125 256.632 194.009 256.953 193.777C257.278 193.542 257.44 193.26 257.44 192.932C257.44 192.667 257.348 192.445 257.162 192.266C256.976 192.083 256.691 191.947 256.307 191.858L255.034 191.56C254.335 191.394 253.821 191.137 253.493 190.789C253.168 190.438 253.006 189.999 253.006 189.472C253.006 189.041 253.127 188.66 253.369 188.328C253.614 187.997 253.947 187.737 254.368 187.548C254.792 187.359 255.273 187.264 255.81 187.264C256.565 187.264 257.159 187.43 257.589 187.761C258.024 188.093 258.332 188.53 258.514 189.074ZM261.275 195.08C261.029 195.08 260.819 194.992 260.643 194.816C260.468 194.64 260.38 194.43 260.38 194.185C260.38 193.939 260.468 193.729 260.643 193.553C260.819 193.378 261.029 193.29 261.275 193.29C261.52 193.29 261.73 193.378 261.906 193.553C262.082 193.729 262.17 193.939 262.17 194.185C262.17 194.347 262.128 194.496 262.045 194.632C261.966 194.768 261.858 194.877 261.722 194.96C261.59 195.04 261.44 195.08 261.275 195.08Z" fill="#767F8C"/>
<defs>
<clipPath id="clip0_1647_32021">
<rect width="32" height="32" fill="white" transform="translate(140 44)"/>
</clipPath>
</defs>
</svg>
