<svg width="312" height="224" viewBox="0 0 312 224" fill="none" xmlns="http://www.w3.org/2000/svg">
<rect x="120" y="24" width="72" height="72" rx="36" fill="white"/>
<g clip-path="url(#clip0_1647_31985)">
<path opacity="0.2" d="M156 64C160.418 64 164 60.4183 164 56C164 51.5817 160.418 48 156 48C151.582 48 148 51.5817 148 56C148 60.4183 151.582 64 156 64Z" fill="#0A65CC"/>
<path d="M162 51H168" stroke="#0A65CC" stroke-width="2" stroke-linecap="round" stroke-linejoin="round"/>
<path d="M165 48V54" stroke="#0A65CC" stroke-width="2" stroke-linecap="round" stroke-linejoin="round"/>
<path d="M143.874 70.9988C145.103 68.8708 146.871 67.1037 149 65.8752C151.128 64.6467 153.543 64 156 64C158.458 64 160.872 64.6468 163.001 65.8754C165.129 67.1039 166.897 68.871 168.127 70.9991" stroke="#0A65CC" stroke-width="2" stroke-linecap="round" stroke-linejoin="round"/>
<path d="M163.506 58.7728C162.972 60.2167 162.031 61.4754 160.799 62.3979C159.566 63.3203 158.093 63.8672 156.557 63.9728C155.021 64.0784 153.487 63.7383 152.139 62.9933C150.792 62.2483 149.688 61.1301 148.961 59.773C148.234 58.416 147.913 56.8778 148.039 55.3432C148.165 53.8086 148.731 52.343 149.669 51.1224C150.608 49.9017 151.879 48.978 153.329 48.4621C154.78 47.9463 156.349 47.8602 157.847 48.2144" stroke="#0A65CC" stroke-width="2" stroke-linecap="round" stroke-linejoin="round"/>
</g>
<path d="M102.209 132.166H100.214C100.138 131.74 99.9948 131.365 99.786 131.041C99.5771 130.717 99.3215 130.442 99.0189 130.217C98.7164 129.991 98.3776 129.82 98.0026 129.705C97.6318 129.59 97.2377 129.533 96.82 129.533C96.0658 129.533 95.3904 129.722 94.7938 130.102C94.2014 130.481 93.7327 131.037 93.3875 131.77C93.0466 132.503 92.8762 133.398 92.8762 134.455C92.8762 135.52 93.0466 136.419 93.3875 137.152C93.7327 137.885 94.2036 138.439 94.8002 138.814C95.3968 139.189 96.0679 139.376 96.8137 139.376C97.227 139.376 97.6191 139.321 97.9898 139.21C98.3648 139.095 98.7036 138.927 99.0061 138.705C99.3087 138.484 99.5644 138.213 99.7732 137.893C99.9862 137.57 100.133 137.199 100.214 136.781L102.209 136.788C102.102 137.431 101.895 138.023 101.589 138.565C101.286 139.102 100.896 139.566 100.419 139.958C99.9458 140.346 99.4046 140.646 98.7952 140.859C98.1858 141.072 97.521 141.179 96.8009 141.179C95.6673 141.179 94.6574 140.911 93.771 140.374C92.8847 139.832 92.1858 139.059 91.6744 138.053C91.1673 137.048 90.9138 135.848 90.9138 134.455C90.9138 133.057 91.1695 131.857 91.6808 130.856C92.1922 129.85 92.8911 129.079 93.7774 128.542C94.6638 128.001 95.6716 127.73 96.8009 127.73C97.4955 127.73 98.1432 127.83 98.7441 128.031C99.3492 128.227 99.8925 128.516 100.374 128.9C100.856 129.279 101.254 129.744 101.569 130.293C101.885 130.839 102.098 131.463 102.209 132.166ZM104.419 141V131.182H106.266V132.741H106.368C106.547 132.213 106.862 131.798 107.314 131.495C107.77 131.188 108.286 131.035 108.861 131.035C108.98 131.035 109.121 131.039 109.283 131.048C109.449 131.056 109.579 131.067 109.673 131.08V132.908C109.596 132.886 109.46 132.863 109.264 132.837C109.068 132.808 108.872 132.793 108.676 132.793C108.224 132.793 107.821 132.888 107.468 133.08C107.118 133.268 106.841 133.53 106.637 133.866C106.432 134.199 106.33 134.578 106.33 135.004V141H104.419ZM115.207 141.198C114.239 141.198 113.406 140.991 112.707 140.578C112.013 140.161 111.476 139.575 111.097 138.82C110.722 138.062 110.534 137.173 110.534 136.155C110.534 135.149 110.722 134.263 111.097 133.496C111.476 132.729 112.004 132.13 112.682 131.7C113.364 131.269 114.161 131.054 115.073 131.054C115.627 131.054 116.163 131.146 116.683 131.329C117.203 131.512 117.67 131.8 118.083 132.192C118.497 132.584 118.823 133.093 119.061 133.719C119.3 134.342 119.419 135.098 119.419 135.989V136.666H111.614V135.234H117.546C117.546 134.732 117.444 134.286 117.239 133.898C117.035 133.506 116.747 133.197 116.377 132.972C116.01 132.746 115.58 132.633 115.085 132.633C114.548 132.633 114.08 132.765 113.679 133.029C113.283 133.289 112.976 133.63 112.759 134.052C112.546 134.469 112.439 134.923 112.439 135.413V136.532C112.439 137.188 112.554 137.746 112.784 138.207C113.019 138.667 113.345 139.018 113.762 139.261C114.18 139.5 114.668 139.619 115.226 139.619C115.588 139.619 115.918 139.568 116.217 139.466C116.515 139.359 116.773 139.202 116.99 138.993C117.207 138.784 117.374 138.526 117.489 138.219L119.298 138.545C119.153 139.078 118.893 139.545 118.518 139.945C118.147 140.342 117.68 140.651 117.118 140.872C116.56 141.089 115.923 141.198 115.207 141.198ZM124.397 141.217C123.775 141.217 123.212 141.102 122.709 140.872C122.207 140.638 121.808 140.299 121.514 139.856C121.224 139.413 121.079 138.869 121.079 138.226C121.079 137.672 121.186 137.216 121.399 136.858C121.612 136.5 121.9 136.217 122.262 136.008C122.624 135.799 123.029 135.641 123.476 135.535C123.924 135.428 124.38 135.347 124.844 135.292C125.432 135.224 125.91 135.168 126.276 135.126C126.643 135.079 126.909 135.004 127.075 134.902C127.241 134.8 127.324 134.634 127.324 134.403V134.359C127.324 133.8 127.167 133.368 126.851 133.061C126.54 132.754 126.076 132.601 125.458 132.601C124.815 132.601 124.307 132.744 123.937 133.029C123.57 133.31 123.317 133.624 123.176 133.969L121.38 133.56C121.593 132.963 121.904 132.482 122.313 132.115C122.726 131.744 123.202 131.476 123.739 131.31C124.275 131.139 124.84 131.054 125.432 131.054C125.824 131.054 126.24 131.101 126.679 131.195C127.122 131.284 127.535 131.45 127.919 131.693C128.307 131.936 128.624 132.283 128.871 132.735C129.119 133.183 129.242 133.764 129.242 134.48V141H127.376V139.658H127.299C127.175 139.905 126.99 140.148 126.743 140.386C126.496 140.625 126.178 140.823 125.79 140.981C125.403 141.138 124.938 141.217 124.397 141.217ZM124.812 139.683C125.341 139.683 125.793 139.579 126.168 139.37C126.547 139.161 126.834 138.888 127.03 138.552C127.231 138.211 127.331 137.847 127.331 137.459V136.193C127.263 136.261 127.131 136.325 126.935 136.385C126.743 136.44 126.523 136.489 126.276 136.532C126.029 136.57 125.788 136.607 125.554 136.641C125.32 136.67 125.123 136.696 124.966 136.717C124.595 136.764 124.256 136.843 123.949 136.954C123.647 137.065 123.404 137.224 123.221 137.433C123.042 137.638 122.952 137.911 122.952 138.251C122.952 138.724 123.127 139.082 123.476 139.325C123.826 139.564 124.271 139.683 124.812 139.683ZM136.371 131.182V132.716H131.008V131.182H136.371ZM132.446 128.83H134.357V138.117C134.357 138.488 134.413 138.767 134.524 138.955C134.634 139.138 134.777 139.263 134.952 139.332C135.131 139.396 135.325 139.428 135.533 139.428C135.687 139.428 135.821 139.417 135.936 139.396C136.051 139.374 136.141 139.357 136.205 139.344L136.55 140.923C136.439 140.966 136.281 141.009 136.077 141.051C135.872 141.098 135.617 141.124 135.31 141.128C134.807 141.136 134.338 141.047 133.903 140.859C133.469 140.672 133.117 140.382 132.849 139.99C132.58 139.598 132.446 139.106 132.446 138.513V128.83ZM142.611 141.198C141.644 141.198 140.811 140.991 140.112 140.578C139.417 140.161 138.88 139.575 138.501 138.82C138.126 138.062 137.938 137.173 137.938 136.155C137.938 135.149 138.126 134.263 138.501 133.496C138.88 132.729 139.409 132.13 140.086 131.7C140.768 131.269 141.565 131.054 142.477 131.054C143.031 131.054 143.568 131.146 144.088 131.329C144.608 131.512 145.074 131.8 145.487 132.192C145.901 132.584 146.227 133.093 146.465 133.719C146.704 134.342 146.823 135.098 146.823 135.989V136.666H139.019V135.234H144.951C144.951 134.732 144.848 134.286 144.644 133.898C144.439 133.506 144.152 133.197 143.781 132.972C143.414 132.746 142.984 132.633 142.49 132.633C141.953 132.633 141.484 132.765 141.083 133.029C140.687 133.289 140.38 133.63 140.163 134.052C139.95 134.469 139.843 134.923 139.843 135.413V136.532C139.843 137.188 139.958 137.746 140.188 138.207C140.423 138.667 140.749 139.018 141.166 139.261C141.584 139.5 142.072 139.619 142.63 139.619C142.992 139.619 143.323 139.568 143.621 139.466C143.919 139.359 144.177 139.202 144.394 138.993C144.612 138.784 144.778 138.526 144.893 138.219L146.702 138.545C146.557 139.078 146.297 139.545 145.922 139.945C145.551 140.342 145.085 140.651 144.522 140.872C143.964 141.089 143.327 141.198 142.611 141.198ZM156.565 141.217C155.943 141.217 155.38 141.102 154.877 140.872C154.375 140.638 153.976 140.299 153.682 139.856C153.392 139.413 153.247 138.869 153.247 138.226C153.247 137.672 153.354 137.216 153.567 136.858C153.78 136.5 154.068 136.217 154.43 136.008C154.792 135.799 155.197 135.641 155.644 135.535C156.092 135.428 156.548 135.347 157.012 135.292C157.6 135.224 158.078 135.168 158.444 135.126C158.811 135.079 159.077 135.004 159.243 134.902C159.409 134.8 159.492 134.634 159.492 134.403V134.359C159.492 133.8 159.335 133.368 159.019 133.061C158.708 132.754 158.244 132.601 157.626 132.601C156.983 132.601 156.475 132.744 156.105 133.029C155.738 133.31 155.485 133.624 155.344 133.969L153.548 133.56C153.761 132.963 154.072 132.482 154.481 132.115C154.894 131.744 155.37 131.476 155.907 131.31C156.443 131.139 157.008 131.054 157.6 131.054C157.992 131.054 158.408 131.101 158.847 131.195C159.29 131.284 159.703 131.45 160.087 131.693C160.475 131.936 160.792 132.283 161.039 132.735C161.286 133.183 161.41 133.764 161.41 134.48V141H159.544V139.658H159.467C159.343 139.905 159.158 140.148 158.911 140.386C158.664 140.625 158.346 140.823 157.958 140.981C157.571 141.138 157.106 141.217 156.565 141.217ZM156.98 139.683C157.509 139.683 157.96 139.579 158.335 139.37C158.715 139.161 159.002 138.888 159.198 138.552C159.399 138.211 159.499 137.847 159.499 137.459V136.193C159.431 136.261 159.299 136.325 159.103 136.385C158.911 136.44 158.691 136.489 158.444 136.532C158.197 136.57 157.956 136.607 157.722 136.641C157.487 136.67 157.291 136.696 157.134 136.717C156.763 136.764 156.424 136.843 156.117 136.954C155.815 137.065 155.572 137.224 155.389 137.433C155.21 137.638 155.12 137.911 155.12 138.251C155.12 138.724 155.295 139.082 155.644 139.325C155.994 139.564 156.439 139.683 156.98 139.683ZM168.091 141.198C167.141 141.198 166.323 140.983 165.637 140.553C164.955 140.118 164.431 139.519 164.064 138.756C163.698 137.994 163.515 137.12 163.515 136.136C163.515 135.138 163.702 134.259 164.077 133.496C164.452 132.729 164.981 132.13 165.662 131.7C166.344 131.269 167.147 131.054 168.072 131.054C168.818 131.054 169.483 131.192 170.066 131.469C170.65 131.742 171.121 132.126 171.479 132.62C171.841 133.114 172.057 133.692 172.125 134.352H170.265C170.162 133.892 169.928 133.496 169.562 133.163C169.199 132.831 168.714 132.665 168.104 132.665C167.571 132.665 167.105 132.805 166.704 133.087C166.308 133.364 165.999 133.76 165.777 134.276C165.556 134.787 165.445 135.392 165.445 136.091C165.445 136.807 165.554 137.425 165.771 137.945C165.988 138.464 166.295 138.867 166.691 139.153C167.092 139.438 167.563 139.581 168.104 139.581C168.466 139.581 168.794 139.515 169.089 139.383C169.387 139.246 169.636 139.053 169.836 138.801C170.041 138.55 170.184 138.247 170.265 137.893H172.125C172.057 138.528 171.85 139.095 171.505 139.594C171.16 140.092 170.697 140.484 170.118 140.77C169.542 141.055 168.867 141.198 168.091 141.198ZM178.304 141.198C177.354 141.198 176.536 140.983 175.85 140.553C175.168 140.118 174.644 139.519 174.277 138.756C173.911 137.994 173.728 137.12 173.728 136.136C173.728 135.138 173.915 134.259 174.29 133.496C174.665 132.729 175.193 132.13 175.875 131.7C176.557 131.269 177.36 131.054 178.285 131.054C179.031 131.054 179.696 131.192 180.279 131.469C180.863 131.742 181.334 132.126 181.692 132.62C182.054 133.114 182.269 133.692 182.338 134.352H180.478C180.375 133.892 180.141 133.496 179.774 133.163C179.412 132.831 178.926 132.665 178.317 132.665C177.784 132.665 177.318 132.805 176.917 133.087C176.521 133.364 176.212 133.76 175.99 134.276C175.769 134.787 175.658 135.392 175.658 136.091C175.658 136.807 175.767 137.425 175.984 137.945C176.201 138.464 176.508 138.867 176.904 139.153C177.305 139.438 177.776 139.581 178.317 139.581C178.679 139.581 179.007 139.515 179.301 139.383C179.6 139.246 179.849 139.053 180.049 138.801C180.254 138.55 180.397 138.247 180.478 137.893H182.338C182.269 138.528 182.063 139.095 181.718 139.594C181.372 140.092 180.91 140.484 180.331 140.77C179.755 141.055 179.08 141.198 178.304 141.198ZM188.517 141.198C187.597 141.198 186.793 140.987 186.107 140.565C185.421 140.143 184.889 139.553 184.509 138.795C184.13 138.036 183.94 137.15 183.94 136.136C183.94 135.117 184.13 134.227 184.509 133.464C184.889 132.701 185.421 132.109 186.107 131.687C186.793 131.265 187.597 131.054 188.517 131.054C189.438 131.054 190.241 131.265 190.927 131.687C191.613 132.109 192.146 132.701 192.525 133.464C192.904 134.227 193.094 135.117 193.094 136.136C193.094 137.15 192.904 138.036 192.525 138.795C192.146 139.553 191.613 140.143 190.927 140.565C190.241 140.987 189.438 141.198 188.517 141.198ZM188.524 139.594C189.12 139.594 189.614 139.436 190.006 139.121C190.399 138.805 190.688 138.386 190.876 137.862C191.068 137.337 191.163 136.76 191.163 136.129C191.163 135.503 191.068 134.928 190.876 134.403C190.688 133.875 190.399 133.451 190.006 133.131C189.614 132.812 189.12 132.652 188.524 132.652C187.923 132.652 187.424 132.812 187.028 133.131C186.636 133.451 186.344 133.875 186.152 134.403C185.965 134.928 185.871 135.503 185.871 136.129C185.871 136.76 185.965 137.337 186.152 137.862C186.344 138.386 186.636 138.805 187.028 139.121C187.424 139.436 187.923 139.594 188.524 139.594ZM201.447 136.928V131.182H203.364V141H201.485V139.3H201.383C201.157 139.824 200.795 140.261 200.296 140.61C199.802 140.955 199.186 141.128 198.449 141.128C197.818 141.128 197.26 140.989 196.774 140.712C196.293 140.431 195.913 140.016 195.636 139.466C195.364 138.916 195.227 138.237 195.227 137.427V131.182H197.138V137.197C197.138 137.866 197.324 138.398 197.695 138.795C198.065 139.191 198.547 139.389 199.139 139.389C199.497 139.389 199.853 139.3 200.207 139.121C200.565 138.942 200.861 138.671 201.095 138.309C201.334 137.947 201.451 137.487 201.447 136.928ZM207.843 135.17V141H205.932V131.182H207.767V132.78H207.888C208.114 132.26 208.468 131.842 208.949 131.527C209.435 131.212 210.047 131.054 210.784 131.054C211.453 131.054 212.039 131.195 212.542 131.476C213.044 131.753 213.434 132.166 213.711 132.716C213.988 133.266 214.127 133.945 214.127 134.755V141H212.216V134.985C212.216 134.273 212.03 133.717 211.66 133.317C211.289 132.912 210.78 132.71 210.132 132.71C209.689 132.71 209.294 132.805 208.949 132.997C208.608 133.189 208.338 133.47 208.138 133.841C207.941 134.207 207.843 134.651 207.843 135.17ZM221.273 131.182V132.716H215.91V131.182H221.273ZM217.348 128.83H219.26V138.117C219.26 138.488 219.315 138.767 219.426 138.955C219.537 139.138 219.679 139.263 219.854 139.332C220.033 139.396 220.227 139.428 220.436 139.428C220.589 139.428 220.723 139.417 220.839 139.396C220.954 139.374 221.043 139.357 221.107 139.344L221.452 140.923C221.341 140.966 221.184 141.009 220.979 141.051C220.775 141.098 220.519 141.124 220.212 141.128C219.709 141.136 219.241 141.047 218.806 140.859C218.371 140.672 218.02 140.382 217.751 139.99C217.483 139.598 217.348 139.106 217.348 138.513V128.83Z" fill="#18191C"/>
<path d="M37.1808 175H35.8882L39.6269 164.818H40.8996L44.6382 175H43.3456L40.303 166.429H40.2235L37.1808 175ZM37.6581 171.023H42.8683V172.116H37.6581V171.023ZM47.2384 164.818V175H46.0651V164.818H47.2384ZM49.3873 175V167.364H50.5606V175H49.3873ZM49.9839 166.091C49.7552 166.091 49.558 166.013 49.3923 165.857C49.2299 165.701 49.1487 165.514 49.1487 165.295C49.1487 165.077 49.2299 164.889 49.3923 164.734C49.558 164.578 49.7552 164.5 49.9839 164.5C50.2126 164.5 50.4082 164.578 50.5706 164.734C50.7363 164.889 50.8192 165.077 50.8192 165.295C50.8192 165.514 50.7363 165.701 50.5706 165.857C50.4082 166.013 50.2126 166.091 49.9839 166.091ZM57.9198 177.864V173.827H57.8204C57.7342 173.966 57.6116 174.142 57.4525 174.354C57.2934 174.562 57.0664 174.75 56.7714 174.915C56.4764 175.078 56.0837 175.159 55.5931 175.159C54.9568 175.159 54.395 174.998 53.9078 174.677C53.4205 174.352 53.0394 173.895 52.7643 173.305C52.4892 172.711 52.3517 172.01 52.3517 171.202C52.3517 170.4 52.4892 169.704 52.7643 169.114C53.0394 168.524 53.4222 168.068 53.9127 167.746C54.4033 167.425 54.97 167.264 55.613 167.264C56.1102 167.264 56.5029 167.347 56.7913 167.513C57.0829 167.675 57.305 167.861 57.4575 168.07C57.6133 168.275 57.7342 168.444 57.8204 168.577H57.9596V167.364H59.0931V177.864H57.9198ZM55.7522 174.105C56.2229 174.105 56.6206 173.982 56.9454 173.737C57.2702 173.489 57.5171 173.146 57.6862 172.708C57.8552 172.267 57.9397 171.759 57.9397 171.182C57.9397 170.612 57.8569 170.113 57.6911 169.685C57.5254 169.254 57.2802 168.92 56.9553 168.681C56.6305 168.439 56.2295 168.318 55.7522 168.318C55.2551 168.318 54.8408 168.446 54.5093 168.701C54.1812 168.953 53.9343 169.296 53.7686 169.73C53.6061 170.161 53.5249 170.645 53.5249 171.182C53.5249 171.725 53.6078 172.219 53.7735 172.663C53.9426 173.104 54.1911 173.455 54.5193 173.717C54.8507 173.976 55.2617 174.105 55.7522 174.105ZM66.0534 171.878V167.364H67.2267V175H66.0534V173.707H65.9738C65.7948 174.095 65.5164 174.425 65.1386 174.697C64.7607 174.965 64.2835 175.099 63.7068 175.099C63.2295 175.099 62.8052 174.995 62.434 174.786C62.0628 174.574 61.7712 174.256 61.559 173.832C61.3469 173.404 61.2409 172.866 61.2409 172.216V167.364H62.4142V172.136C62.4142 172.693 62.5699 173.137 62.8815 173.469C63.1963 173.8 63.5974 173.966 64.0846 173.966C64.3763 173.966 64.6729 173.891 64.9745 173.742C65.2794 173.593 65.5347 173.364 65.7401 173.056C65.949 172.748 66.0534 172.355 66.0534 171.878ZM71.6228 175.179C71.1389 175.179 70.6997 175.088 70.3053 174.906C69.9109 174.72 69.5977 174.453 69.3657 174.105C69.1337 173.754 69.0177 173.33 69.0177 172.832C69.0177 172.395 69.1038 172.04 69.2762 171.768C69.4485 171.493 69.6789 171.278 69.9672 171.122C70.2556 170.966 70.5738 170.85 70.9218 170.774C71.2731 170.695 71.6261 170.632 71.9807 170.585C72.4448 170.526 72.8209 170.481 73.1093 170.451C73.401 170.418 73.6131 170.363 73.7456 170.287C73.8815 170.211 73.9495 170.078 73.9495 169.889V169.849C73.9495 169.359 73.8153 168.978 73.5468 168.706C73.2816 168.434 72.8789 168.298 72.3387 168.298C71.7786 168.298 71.3394 168.421 71.0212 168.666C70.703 168.911 70.4793 169.173 70.3501 169.452L69.2364 169.054C69.4353 168.59 69.7004 168.229 70.0319 167.97C70.3666 167.708 70.7312 167.526 71.1256 167.423C71.5233 167.317 71.9144 167.264 72.2989 167.264C72.5442 167.264 72.8259 167.294 73.1441 167.354C73.4656 167.41 73.7755 167.528 74.0738 167.707C74.3754 167.886 74.6256 168.156 74.8245 168.517C75.0233 168.878 75.1228 169.362 75.1228 169.969V175H73.9495V173.966H73.8898C73.8103 174.132 73.6777 174.309 73.4921 174.498C73.3065 174.687 73.0596 174.848 72.7513 174.98C72.4431 175.113 72.0669 175.179 71.6228 175.179ZM71.8018 174.125C72.2658 174.125 72.6569 174.034 72.9751 173.852C73.2965 173.669 73.5385 173.434 73.7009 173.146C73.8666 172.857 73.9495 172.554 73.9495 172.236V171.162C73.8998 171.222 73.7904 171.276 73.6214 171.326C73.4556 171.372 73.2634 171.414 73.0447 171.45C72.8292 171.483 72.6188 171.513 72.4133 171.54C72.2111 171.563 72.047 171.583 71.9211 171.599C71.6162 171.639 71.3311 171.704 71.066 171.793C70.8041 171.879 70.592 172.01 70.4296 172.186C70.2705 172.358 70.191 172.594 70.191 172.892C70.191 173.3 70.3418 173.608 70.6434 173.817C70.9483 174.022 71.3344 174.125 71.8018 174.125ZM77.2643 175V167.364H78.3978V168.557H78.4972C78.6563 168.149 78.9132 167.833 79.2678 167.607C79.6225 167.379 80.0484 167.264 80.5455 167.264C81.0493 167.264 81.4686 167.379 81.8034 167.607C82.1414 167.833 82.4049 168.149 82.5938 168.557H82.6734C82.8689 168.162 83.1623 167.849 83.5534 167.617C83.9445 167.382 84.4134 167.264 84.9603 167.264C85.6431 167.264 86.2016 167.478 86.6357 167.906C87.0699 168.33 87.287 168.991 87.287 169.889V175H86.1137V169.889C86.1137 169.326 85.9596 168.923 85.6514 168.681C85.3431 168.439 84.9802 168.318 84.5626 168.318C84.0257 168.318 83.6097 168.481 83.3147 168.805C83.0197 169.127 82.8722 169.535 82.8722 170.028V175H81.6791V169.77C81.6791 169.336 81.5382 168.986 81.2565 168.721C80.9748 168.452 80.6118 168.318 80.1677 168.318C79.8628 168.318 79.5777 168.399 79.3126 168.562C79.0508 168.724 78.8386 168.95 78.6762 169.238C78.5171 169.523 78.4376 169.853 78.4376 170.227V175H77.2643ZM96.7703 167.364V168.358H92.6539V167.364H96.7703ZM93.8868 175V166.31C93.8868 165.872 93.9896 165.508 94.195 165.216C94.4005 164.924 94.6673 164.705 94.9955 164.56C95.3236 164.414 95.67 164.341 96.0345 164.341C96.3229 164.341 96.5582 164.364 96.7405 164.411C96.9228 164.457 97.0587 164.5 97.1482 164.54L96.8101 165.554C96.7504 165.534 96.6676 165.509 96.5615 165.479C96.4588 165.45 96.3229 165.435 96.1539 165.435C95.7661 165.435 95.486 165.532 95.3137 165.728C95.1446 165.924 95.0601 166.21 95.0601 166.588V175H93.8868ZM100.443 175.179C99.9592 175.179 99.52 175.088 99.1256 174.906C98.7312 174.72 98.418 174.453 98.186 174.105C97.954 173.754 97.838 173.33 97.838 172.832C97.838 172.395 97.9242 172.04 98.0965 171.768C98.2689 171.493 98.4992 171.278 98.7876 171.122C99.0759 170.966 99.3941 170.85 99.7421 170.774C100.093 170.695 100.446 170.632 100.801 170.585C101.265 170.526 101.641 170.481 101.93 170.451C102.221 170.418 102.433 170.363 102.566 170.287C102.702 170.211 102.77 170.078 102.77 169.889V169.849C102.77 169.359 102.636 168.978 102.367 168.706C102.102 168.434 101.699 168.298 101.159 168.298C100.599 168.298 100.16 168.421 99.8415 168.666C99.5233 168.911 99.2996 169.173 99.1704 169.452L98.0567 169.054C98.2556 168.59 98.5207 168.229 98.8522 167.97C99.1869 167.708 99.5515 167.526 99.9459 167.423C100.344 167.317 100.735 167.264 101.119 167.264C101.364 167.264 101.646 167.294 101.964 167.354C102.286 167.41 102.596 167.528 102.894 167.707C103.196 167.886 103.446 168.156 103.645 168.517C103.844 168.878 103.943 169.362 103.943 169.969V175H102.77V173.966H102.71C102.631 174.132 102.498 174.309 102.312 174.498C102.127 174.687 101.88 174.848 101.572 174.98C101.263 175.113 100.887 175.179 100.443 175.179ZM100.622 174.125C101.086 174.125 101.477 174.034 101.795 173.852C102.117 173.669 102.359 173.434 102.521 173.146C102.687 172.857 102.77 172.554 102.77 172.236V171.162C102.72 171.222 102.611 171.276 102.442 171.326C102.276 171.372 102.084 171.414 101.865 171.45C101.65 171.483 101.439 171.513 101.234 171.54C101.031 171.563 100.867 171.583 100.741 171.599C100.436 171.639 100.151 171.704 99.8863 171.793C99.6244 171.879 99.4123 172.01 99.2499 172.186C99.0908 172.358 99.0113 172.594 99.0113 172.892C99.0113 173.3 99.1621 173.608 99.4637 173.817C99.7686 174.022 100.155 174.125 100.622 174.125ZM109.187 175.159C108.471 175.159 107.854 174.99 107.337 174.652C106.82 174.314 106.423 173.848 106.144 173.255C105.866 172.662 105.727 171.984 105.727 171.222C105.727 170.446 105.869 169.762 106.154 169.168C106.443 168.572 106.844 168.106 107.357 167.771C107.874 167.433 108.478 167.264 109.167 167.264C109.704 167.264 110.188 167.364 110.619 167.562C111.05 167.761 111.403 168.04 111.678 168.398C111.953 168.756 112.123 169.173 112.19 169.651H111.016C110.927 169.303 110.728 168.994 110.42 168.726C110.115 168.454 109.704 168.318 109.187 168.318C108.729 168.318 108.328 168.437 107.984 168.676C107.642 168.911 107.376 169.245 107.183 169.675C106.994 170.103 106.9 170.605 106.9 171.182C106.9 171.772 106.993 172.286 107.178 172.723C107.367 173.161 107.632 173.5 107.974 173.742C108.319 173.984 108.723 174.105 109.187 174.105C109.492 174.105 109.769 174.052 110.017 173.946C110.266 173.84 110.476 173.688 110.649 173.489C110.821 173.29 110.944 173.051 111.016 172.773H112.19C112.123 173.223 111.959 173.629 111.698 173.991C111.439 174.349 111.096 174.634 110.668 174.846C110.244 175.055 109.75 175.159 109.187 175.159ZM113.905 175V167.364H115.078V175H113.905ZM114.502 166.091C114.273 166.091 114.076 166.013 113.91 165.857C113.747 165.701 113.666 165.514 113.666 165.295C113.666 165.077 113.747 164.889 113.91 164.734C114.076 164.578 114.273 164.5 114.502 164.5C114.73 164.5 114.926 164.578 115.088 164.734C115.254 164.889 115.337 165.077 115.337 165.295C115.337 165.514 115.254 165.701 115.088 165.857C114.926 166.013 114.73 166.091 114.502 166.091ZM118.4 164.818V175H117.227V164.818H118.4ZM120.549 175V167.364H121.723V175H120.549ZM121.146 166.091C120.917 166.091 120.72 166.013 120.554 165.857C120.392 165.701 120.311 165.514 120.311 165.295C120.311 165.077 120.392 164.889 120.554 164.734C120.72 164.578 120.917 164.5 121.146 164.5C121.375 164.5 121.57 164.578 121.733 164.734C121.898 164.889 121.981 165.077 121.981 165.295C121.981 165.514 121.898 165.701 121.733 165.857C121.57 166.013 121.375 166.091 121.146 166.091ZM129.281 169.074L128.227 169.372C128.161 169.196 128.063 169.026 127.934 168.86C127.808 168.691 127.635 168.552 127.416 168.442C127.198 168.333 126.918 168.278 126.576 168.278C126.109 168.278 125.719 168.386 125.408 168.602C125.1 168.814 124.946 169.084 124.946 169.412C124.946 169.704 125.052 169.934 125.264 170.103C125.476 170.272 125.807 170.413 126.258 170.526L127.392 170.804C128.074 170.97 128.583 171.223 128.918 171.565C129.253 171.903 129.42 172.339 129.42 172.872C129.42 173.31 129.294 173.701 129.042 174.045C128.794 174.39 128.446 174.662 127.998 174.861C127.551 175.06 127.03 175.159 126.437 175.159C125.658 175.159 125.014 174.99 124.503 174.652C123.993 174.314 123.67 173.82 123.534 173.17L124.647 172.892C124.753 173.303 124.954 173.611 125.249 173.817C125.547 174.022 125.937 174.125 126.417 174.125C126.964 174.125 127.398 174.009 127.72 173.777C128.045 173.542 128.207 173.26 128.207 172.932C128.207 172.667 128.114 172.445 127.929 172.266C127.743 172.083 127.458 171.947 127.073 171.858L125.801 171.56C125.101 171.394 124.588 171.137 124.259 170.789C123.935 170.438 123.772 169.999 123.772 169.472C123.772 169.041 123.893 168.66 124.135 168.328C124.38 167.997 124.714 167.737 125.134 167.548C125.559 167.359 126.039 167.264 126.576 167.264C127.332 167.264 127.925 167.43 128.356 167.761C128.79 168.093 129.099 168.53 129.281 169.074ZM131.186 175V167.364H132.359V175H131.186ZM131.783 166.091C131.554 166.091 131.357 166.013 131.191 165.857C131.029 165.701 130.948 165.514 130.948 165.295C130.948 165.077 131.029 164.889 131.191 164.734C131.357 164.578 131.554 164.5 131.783 164.5C132.011 164.5 132.207 164.578 132.369 164.734C132.535 164.889 132.618 165.077 132.618 165.295C132.618 165.514 132.535 165.701 132.369 165.857C132.207 166.013 132.011 166.091 131.783 166.091ZM139.918 169.074L138.864 169.372C138.797 169.196 138.699 169.026 138.57 168.86C138.444 168.691 138.272 168.552 138.053 168.442C137.834 168.333 137.554 168.278 137.213 168.278C136.746 168.278 136.356 168.386 136.045 168.602C135.736 168.814 135.582 169.084 135.582 169.412C135.582 169.704 135.688 169.934 135.9 170.103C136.113 170.272 136.444 170.413 136.895 170.526L138.028 170.804C138.711 170.97 139.22 171.223 139.555 171.565C139.889 171.903 140.057 172.339 140.057 172.872C140.057 173.31 139.931 173.701 139.679 174.045C139.43 174.39 139.082 174.662 138.635 174.861C138.187 175.06 137.667 175.159 137.074 175.159C136.295 175.159 135.65 174.99 135.14 174.652C134.629 174.314 134.306 173.82 134.17 173.17L135.284 172.892C135.39 173.303 135.591 173.611 135.886 173.817C136.184 174.022 136.573 174.125 137.054 174.125C137.601 174.125 138.035 174.009 138.356 173.777C138.681 173.542 138.844 173.26 138.844 172.932C138.844 172.667 138.751 172.445 138.565 172.266C138.38 172.083 138.095 171.947 137.71 171.858L136.437 171.56C135.738 171.394 135.224 171.137 134.896 170.789C134.571 170.438 134.409 169.999 134.409 169.472C134.409 169.041 134.53 168.66 134.772 168.328C135.017 167.997 135.35 167.737 135.771 167.548C136.195 167.359 136.676 167.264 137.213 167.264C137.969 167.264 138.562 167.43 138.993 167.761C139.427 168.093 139.735 168.53 139.918 169.074ZM148.962 175.159C148.226 175.159 147.592 174.997 147.058 174.672C146.528 174.344 146.118 173.886 145.83 173.3C145.545 172.71 145.402 172.024 145.402 171.241C145.402 170.459 145.545 169.77 145.83 169.173C146.118 168.573 146.519 168.106 147.033 167.771C147.55 167.433 148.153 167.264 148.843 167.264C149.241 167.264 149.633 167.33 150.021 167.463C150.409 167.596 150.762 167.811 151.08 168.109C151.398 168.404 151.652 168.795 151.841 169.283C152.03 169.77 152.124 170.37 152.124 171.082V171.58H146.238V170.565H150.931C150.931 170.134 150.845 169.75 150.672 169.412C150.503 169.074 150.261 168.807 149.946 168.612C149.635 168.416 149.267 168.318 148.843 168.318C148.375 168.318 147.971 168.434 147.63 168.666C147.292 168.895 147.031 169.193 146.849 169.561C146.667 169.929 146.576 170.323 146.576 170.744V171.42C146.576 171.997 146.675 172.486 146.874 172.887C147.076 173.285 147.356 173.588 147.714 173.797C148.072 174.002 148.488 174.105 148.962 174.105C149.27 174.105 149.549 174.062 149.797 173.976C150.049 173.886 150.266 173.754 150.449 173.578C150.631 173.399 150.772 173.177 150.871 172.912L152.005 173.23C151.885 173.615 151.685 173.953 151.403 174.244C151.121 174.533 150.773 174.758 150.359 174.92C149.945 175.08 149.479 175.159 148.962 175.159ZM156.991 178.023C156.424 178.023 155.937 177.95 155.53 177.804C155.122 177.661 154.782 177.473 154.51 177.237C154.242 177.005 154.028 176.757 153.869 176.491L154.804 175.835C154.91 175.974 155.044 176.134 155.206 176.312C155.369 176.495 155.591 176.652 155.873 176.785C156.158 176.921 156.531 176.989 156.991 176.989C157.608 176.989 158.116 176.839 158.517 176.541C158.919 176.243 159.119 175.776 159.119 175.139V173.588H159.02C158.933 173.727 158.811 173.9 158.652 174.105C158.496 174.307 158.271 174.488 157.976 174.647C157.684 174.803 157.29 174.881 156.792 174.881C156.176 174.881 155.622 174.735 155.132 174.443C154.645 174.152 154.258 173.727 153.973 173.17C153.692 172.614 153.551 171.937 153.551 171.142C153.551 170.36 153.688 169.679 153.964 169.099C154.239 168.515 154.621 168.065 155.112 167.746C155.602 167.425 156.169 167.264 156.812 167.264C157.309 167.264 157.704 167.347 157.995 167.513C158.29 167.675 158.516 167.861 158.672 168.07C158.831 168.275 158.953 168.444 159.04 168.577H159.159V167.364H160.292V175.219C160.292 175.875 160.143 176.409 159.845 176.82C159.55 177.234 159.152 177.537 158.652 177.729C158.155 177.925 157.601 178.023 156.991 178.023ZM156.951 173.827C157.422 173.827 157.82 173.719 158.145 173.504C158.469 173.288 158.716 172.978 158.885 172.574C159.054 172.17 159.139 171.686 159.139 171.122C159.139 170.572 159.056 170.086 158.89 169.665C158.725 169.245 158.479 168.915 158.155 168.676C157.83 168.437 157.429 168.318 156.951 168.318C156.454 168.318 156.04 168.444 155.709 168.696C155.38 168.948 155.133 169.286 154.968 169.71C154.805 170.134 154.724 170.605 154.724 171.122C154.724 171.652 154.807 172.121 154.973 172.529C155.142 172.933 155.39 173.252 155.718 173.484C156.05 173.712 156.461 173.827 156.951 173.827ZM165.642 175.159C164.906 175.159 164.271 174.997 163.738 174.672C163.207 174.344 162.798 173.886 162.51 173.3C162.225 172.71 162.082 172.024 162.082 171.241C162.082 170.459 162.225 169.77 162.51 169.173C162.798 168.573 163.199 168.106 163.713 167.771C164.23 167.433 164.833 167.264 165.522 167.264C165.92 167.264 166.313 167.33 166.701 167.463C167.089 167.596 167.441 167.811 167.76 168.109C168.078 168.404 168.331 168.795 168.52 169.283C168.709 169.77 168.804 170.37 168.804 171.082V171.58H162.917V170.565H167.611C167.611 170.134 167.524 169.75 167.352 169.412C167.183 169.074 166.941 168.807 166.626 168.612C166.315 168.416 165.947 168.318 165.522 168.318C165.055 168.318 164.651 168.434 164.309 168.666C163.971 168.895 163.711 169.193 163.529 169.561C163.347 169.929 163.255 170.323 163.255 170.744V171.42C163.255 171.997 163.355 172.486 163.554 172.887C163.756 173.285 164.036 173.588 164.394 173.797C164.752 174.002 165.168 174.105 165.642 174.105C165.95 174.105 166.228 174.062 166.477 173.976C166.729 173.886 166.946 173.754 167.128 173.578C167.311 173.399 167.451 173.177 167.551 172.912L168.684 173.23C168.565 173.615 168.365 173.953 168.083 174.244C167.801 174.533 167.453 174.758 167.039 174.92C166.624 175.08 166.159 175.159 165.642 175.159ZM175.998 169.074L174.944 169.372C174.877 169.196 174.78 169.026 174.65 168.86C174.524 168.691 174.352 168.552 174.133 168.442C173.915 168.333 173.634 168.278 173.293 168.278C172.826 168.278 172.436 168.386 172.125 168.602C171.816 168.814 171.662 169.084 171.662 169.412C171.662 169.704 171.768 169.934 171.981 170.103C172.193 170.272 172.524 170.413 172.975 170.526L174.108 170.804C174.791 170.97 175.3 171.223 175.635 171.565C175.969 171.903 176.137 172.339 176.137 172.872C176.137 173.31 176.011 173.701 175.759 174.045C175.51 174.39 175.162 174.662 174.715 174.861C174.267 175.06 173.747 175.159 173.154 175.159C172.375 175.159 171.73 174.99 171.22 174.652C170.709 174.314 170.386 173.82 170.25 173.17L171.364 172.892C171.47 173.303 171.671 173.611 171.966 173.817C172.264 174.022 172.653 174.125 173.134 174.125C173.681 174.125 174.115 174.009 174.437 173.777C174.761 173.542 174.924 173.26 174.924 172.932C174.924 172.667 174.831 172.445 174.645 172.266C174.46 172.083 174.175 171.947 173.79 171.858L172.517 171.56C171.818 171.394 171.304 171.137 170.976 170.789C170.651 170.438 170.489 169.999 170.489 169.472C170.489 169.041 170.61 168.66 170.852 168.328C171.097 167.997 171.43 167.737 171.851 167.548C172.276 167.359 172.756 167.264 173.293 167.264C174.049 167.264 174.642 167.43 175.073 167.761C175.507 168.093 175.815 168.53 175.998 169.074ZM181.224 167.364V168.358H177.267V167.364H181.224ZM178.42 165.534H179.593V172.812C179.593 173.144 179.641 173.393 179.737 173.558C179.837 173.721 179.963 173.83 180.115 173.886C180.271 173.939 180.435 173.966 180.608 173.966C180.737 173.966 180.843 173.959 180.926 173.946C181.009 173.929 181.075 173.916 181.125 173.906L181.363 174.96C181.284 174.99 181.173 175.02 181.03 175.05C180.888 175.083 180.707 175.099 180.488 175.099C180.157 175.099 179.832 175.028 179.514 174.886C179.199 174.743 178.937 174.526 178.728 174.234C178.523 173.943 178.42 173.575 178.42 173.131V165.534ZM185.236 175.179C184.752 175.179 184.313 175.088 183.919 174.906C183.524 174.72 183.211 174.453 182.979 174.105C182.747 173.754 182.631 173.33 182.631 172.832C182.631 172.395 182.717 172.04 182.889 171.768C183.062 171.493 183.292 171.278 183.581 171.122C183.869 170.966 184.187 170.85 184.535 170.774C184.886 170.695 185.239 170.632 185.594 170.585C186.058 170.526 186.434 170.481 186.723 170.451C187.014 170.418 187.226 170.363 187.359 170.287C187.495 170.211 187.563 170.078 187.563 169.889V169.849C187.563 169.359 187.429 168.978 187.16 168.706C186.895 168.434 186.492 168.298 185.952 168.298C185.392 168.298 184.953 168.421 184.634 168.666C184.316 168.911 184.093 169.173 183.963 169.452L182.85 169.054C183.049 168.59 183.314 168.229 183.645 167.97C183.98 167.708 184.344 167.526 184.739 167.423C185.137 167.317 185.528 167.264 185.912 167.264C186.157 167.264 186.439 167.294 186.757 167.354C187.079 167.41 187.389 167.528 187.687 167.707C187.989 167.886 188.239 168.156 188.438 168.517C188.637 168.878 188.736 169.362 188.736 169.969V175H187.563V173.966H187.503C187.424 174.132 187.291 174.309 187.105 174.498C186.92 174.687 186.673 174.848 186.365 174.98C186.056 175.113 185.68 175.179 185.236 175.179ZM185.415 174.125C185.879 174.125 186.27 174.034 186.588 173.852C186.91 173.669 187.152 173.434 187.314 173.146C187.48 172.857 187.563 172.554 187.563 172.236V171.162C187.513 171.222 187.404 171.276 187.235 171.326C187.069 171.372 186.877 171.414 186.658 171.45C186.443 171.483 186.232 171.513 186.027 171.54C185.824 171.563 185.66 171.583 185.534 171.599C185.229 171.639 184.944 171.704 184.679 171.793C184.417 171.879 184.205 172.01 184.043 172.186C183.884 172.358 183.804 172.594 183.804 172.892C183.804 173.3 183.955 173.608 184.257 173.817C184.562 174.022 184.948 174.125 185.415 174.125ZM196.287 169.074L195.233 169.372C195.166 169.196 195.069 169.026 194.939 168.86C194.813 168.691 194.641 168.552 194.422 168.442C194.204 168.333 193.924 168.278 193.582 168.278C193.115 168.278 192.725 168.386 192.414 168.602C192.106 168.814 191.951 169.084 191.951 169.412C191.951 169.704 192.057 169.934 192.27 170.103C192.482 170.272 192.813 170.413 193.264 170.526L194.397 170.804C195.08 170.97 195.589 171.223 195.924 171.565C196.258 171.903 196.426 172.339 196.426 172.872C196.426 173.31 196.3 173.701 196.048 174.045C195.799 174.39 195.451 174.662 195.004 174.861C194.557 175.06 194.036 175.159 193.443 175.159C192.664 175.159 192.019 174.99 191.509 174.652C190.999 174.314 190.675 173.82 190.54 173.17L191.653 172.892C191.759 173.303 191.96 173.611 192.255 173.817C192.553 174.022 192.942 174.125 193.423 174.125C193.97 174.125 194.404 174.009 194.726 173.777C195.05 173.542 195.213 173.26 195.213 172.932C195.213 172.667 195.12 172.445 194.934 172.266C194.749 172.083 194.464 171.947 194.079 171.858L192.807 171.56C192.107 171.394 191.593 171.137 191.265 170.789C190.941 170.438 190.778 169.999 190.778 169.472C190.778 169.041 190.899 168.66 191.141 168.328C191.386 167.997 191.719 167.737 192.14 167.548C192.565 167.359 193.045 167.264 193.582 167.264C194.338 167.264 194.931 167.43 195.362 167.761C195.796 168.093 196.104 168.53 196.287 169.074ZM207.539 169.074L206.485 169.372C206.418 169.196 206.321 169.026 206.191 168.86C206.065 168.691 205.893 168.552 205.674 168.442C205.456 168.333 205.175 168.278 204.834 168.278C204.367 168.278 203.977 168.386 203.666 168.602C203.358 168.814 203.203 169.084 203.203 169.412C203.203 169.704 203.309 169.934 203.522 170.103C203.734 170.272 204.065 170.413 204.516 170.526L205.649 170.804C206.332 170.97 206.841 171.223 207.176 171.565C207.51 171.903 207.678 172.339 207.678 172.872C207.678 173.31 207.552 173.701 207.3 174.045C207.051 174.39 206.703 174.662 206.256 174.861C205.809 175.06 205.288 175.159 204.695 175.159C203.916 175.159 203.271 174.99 202.761 174.652C202.251 174.314 201.927 173.82 201.791 173.17L202.905 172.892C203.011 173.303 203.212 173.611 203.507 173.817C203.805 174.022 204.194 174.125 204.675 174.125C205.222 174.125 205.656 174.009 205.978 173.777C206.302 173.542 206.465 173.26 206.465 172.932C206.465 172.667 206.372 172.445 206.186 172.266C206.001 172.083 205.716 171.947 205.331 171.858L204.059 171.56C203.359 171.394 202.845 171.137 202.517 170.789C202.193 170.438 202.03 169.999 202.03 169.472C202.03 169.041 202.151 168.66 202.393 168.328C202.638 167.997 202.971 167.737 203.392 167.548C203.817 167.359 204.297 167.264 204.834 167.264C205.59 167.264 206.183 167.43 206.614 167.761C207.048 168.093 207.356 168.53 207.539 169.074ZM211.691 175.179C211.207 175.179 210.768 175.088 210.374 174.906C209.979 174.72 209.666 174.453 209.434 174.105C209.202 173.754 209.086 173.33 209.086 172.832C209.086 172.395 209.172 172.04 209.345 171.768C209.517 171.493 209.747 171.278 210.036 171.122C210.324 170.966 210.642 170.85 210.99 170.774C211.341 170.695 211.694 170.632 212.049 170.585C212.513 170.526 212.889 170.481 213.178 170.451C213.469 170.418 213.681 170.363 213.814 170.287C213.95 170.211 214.018 170.078 214.018 169.889V169.849C214.018 169.359 213.884 168.978 213.615 168.706C213.35 168.434 212.947 168.298 212.407 168.298C211.847 168.298 211.408 168.421 211.09 168.666C210.771 168.911 210.548 169.173 210.418 169.452L209.305 169.054C209.504 168.59 209.769 168.229 210.1 167.97C210.435 167.708 210.8 167.526 211.194 167.423C211.592 167.317 211.983 167.264 212.367 167.264C212.613 167.264 212.894 167.294 213.212 167.354C213.534 167.41 213.844 167.528 214.142 167.707C214.444 167.886 214.694 168.156 214.893 168.517C215.092 168.878 215.191 169.362 215.191 169.969V175H214.018V173.966H213.958C213.879 174.132 213.746 174.309 213.56 174.498C213.375 174.687 213.128 174.848 212.82 174.98C212.511 175.113 212.135 175.179 211.691 175.179ZM211.87 174.125C212.334 174.125 212.725 174.034 213.043 173.852C213.365 173.669 213.607 173.434 213.769 173.146C213.935 172.857 214.018 172.554 214.018 172.236V171.162C213.968 171.222 213.859 171.276 213.69 171.326C213.524 171.372 213.332 171.414 213.113 171.45C212.898 171.483 212.687 171.513 212.482 171.54C212.279 171.563 212.115 171.583 211.989 171.599C211.685 171.639 211.399 171.704 211.134 171.793C210.872 171.879 210.66 172.01 210.498 172.186C210.339 172.358 210.259 172.594 210.259 172.892C210.259 173.3 210.41 173.608 210.712 173.817C211.017 174.022 211.403 174.125 211.87 174.125ZM217.333 177.864V167.364H218.466V168.577H218.605C218.692 168.444 218.811 168.275 218.963 168.07C219.119 167.861 219.341 167.675 219.63 167.513C219.921 167.347 220.316 167.264 220.813 167.264C221.456 167.264 222.023 167.425 222.513 167.746C223.004 168.068 223.386 168.524 223.661 169.114C223.937 169.704 224.074 170.4 224.074 171.202C224.074 172.01 223.937 172.711 223.661 173.305C223.386 173.895 223.005 174.352 222.518 174.677C222.031 174.998 221.469 175.159 220.833 175.159C220.342 175.159 219.949 175.078 219.654 174.915C219.359 174.75 219.132 174.562 218.973 174.354C218.814 174.142 218.692 173.966 218.605 173.827H218.506V177.864H217.333ZM218.486 171.182C218.486 171.759 218.571 172.267 218.74 172.708C218.909 173.146 219.156 173.489 219.48 173.737C219.805 173.982 220.203 174.105 220.674 174.105C221.164 174.105 221.573 173.976 221.902 173.717C222.233 173.455 222.482 173.104 222.647 172.663C222.816 172.219 222.901 171.725 222.901 171.182C222.901 170.645 222.818 170.161 222.652 169.73C222.49 169.296 222.243 168.953 221.911 168.701C221.583 168.446 221.171 168.318 220.674 168.318C220.196 168.318 219.795 168.439 219.47 168.681C219.146 168.92 218.9 169.254 218.735 169.685C218.569 170.113 218.486 170.612 218.486 171.182ZM225.864 175V167.364H227.037V175H225.864ZM226.46 166.091C226.232 166.091 226.035 166.013 225.869 165.857C225.706 165.701 225.625 165.514 225.625 165.295C225.625 165.077 225.706 164.889 225.869 164.734C226.035 164.578 226.232 164.5 226.46 164.5C226.689 164.5 226.885 164.578 227.047 164.734C227.213 164.889 227.296 165.077 227.296 165.295C227.296 165.514 227.213 165.701 227.047 165.857C226.885 166.013 226.689 166.091 226.46 166.091ZM232.388 175.159C231.652 175.159 231.017 174.997 230.484 174.672C229.953 174.344 229.544 173.886 229.256 173.3C228.971 172.71 228.828 172.024 228.828 171.241C228.828 170.459 228.971 169.77 229.256 169.173C229.544 168.573 229.945 168.106 230.459 167.771C230.976 167.433 231.579 167.264 232.269 167.264C232.666 167.264 233.059 167.33 233.447 167.463C233.835 167.596 234.188 167.811 234.506 168.109C234.824 168.404 235.078 168.795 235.266 169.283C235.455 169.77 235.55 170.37 235.55 171.082V171.58H229.663V170.565H234.357C234.357 170.134 234.27 169.75 234.098 169.412C233.929 169.074 233.687 168.807 233.372 168.612C233.061 168.416 232.693 168.318 232.269 168.318C231.801 168.318 231.397 168.434 231.055 168.666C230.717 168.895 230.457 169.193 230.275 169.561C230.093 169.929 230.002 170.323 230.002 170.744V171.42C230.002 171.997 230.101 172.486 230.3 172.887C230.502 173.285 230.782 173.588 231.14 173.797C231.498 174.002 231.914 174.105 232.388 174.105C232.696 174.105 232.975 174.062 233.223 173.976C233.475 173.886 233.692 173.754 233.874 173.578C234.057 173.399 234.198 173.177 234.297 172.912L235.43 173.23C235.311 173.615 235.111 173.953 234.829 174.244C234.547 174.533 234.199 174.758 233.785 174.92C233.371 175.08 232.905 175.159 232.388 175.159ZM238.508 170.406V175H237.335V167.364H238.468V168.557H238.568C238.747 168.169 239.018 167.857 239.383 167.622C239.747 167.384 240.218 167.264 240.795 167.264C241.312 167.264 241.764 167.37 242.152 167.582C242.54 167.791 242.841 168.109 243.057 168.537C243.272 168.961 243.38 169.498 243.38 170.148V175H242.207V170.227C242.207 169.627 242.051 169.16 241.739 168.825C241.428 168.487 241 168.318 240.457 168.318C240.082 168.318 239.747 168.399 239.453 168.562C239.161 168.724 238.93 168.961 238.761 169.273C238.592 169.584 238.508 169.962 238.508 170.406ZM247.274 173.608L247.195 174.145C247.138 174.523 247.052 174.927 246.936 175.358C246.823 175.789 246.706 176.195 246.583 176.576C246.46 176.957 246.359 177.26 246.28 177.486H245.385C245.428 177.274 245.484 176.994 245.554 176.646C245.623 176.298 245.693 175.908 245.763 175.477C245.836 175.05 245.895 174.612 245.942 174.165L246.001 173.608H247.274ZM254.559 170.406V175H253.385V167.364H254.519V168.557H254.618C254.797 168.169 255.069 167.857 255.434 167.622C255.798 167.384 256.269 167.264 256.846 167.264C257.363 167.264 257.815 167.37 258.203 167.582C258.591 167.791 258.892 168.109 259.108 168.537C259.323 168.961 259.431 169.498 259.431 170.148V175H258.258V170.227C258.258 169.627 258.102 169.16 257.79 168.825C257.479 168.487 257.051 168.318 256.508 168.318C256.133 168.318 255.798 168.399 255.503 168.562C255.212 168.724 254.981 168.961 254.812 169.273C254.643 169.584 254.559 169.962 254.559 170.406ZM264.777 175.159C264.041 175.159 263.406 174.997 262.872 174.672C262.342 174.344 261.933 173.886 261.644 173.3C261.359 172.71 261.217 172.024 261.217 171.241C261.217 170.459 261.359 169.77 261.644 169.173C261.933 168.573 262.334 168.106 262.848 167.771C263.365 167.433 263.968 167.264 264.657 167.264C265.055 167.264 265.448 167.33 265.835 167.463C266.223 167.596 266.576 167.811 266.894 168.109C267.213 168.404 267.466 168.795 267.655 169.283C267.844 169.77 267.938 170.37 267.938 171.082V171.58H262.052V170.565H266.745C266.745 170.134 266.659 169.75 266.487 169.412C266.318 169.074 266.076 168.807 265.761 168.612C265.449 168.416 265.081 168.318 264.657 168.318C264.19 168.318 263.786 168.434 263.444 168.666C263.106 168.895 262.846 169.193 262.664 169.561C262.481 169.929 262.39 170.323 262.39 170.744V171.42C262.39 171.997 262.49 172.486 262.688 172.887C262.891 173.285 263.171 173.588 263.529 173.797C263.887 174.002 264.303 174.105 264.777 174.105C265.085 174.105 265.363 174.062 265.612 173.976C265.864 173.886 266.081 173.754 266.263 173.578C266.445 173.399 266.586 173.177 266.686 172.912L267.819 173.23C267.7 173.615 267.499 173.953 267.218 174.244C266.936 174.533 266.588 174.758 266.174 174.92C265.759 175.08 265.294 175.159 264.777 175.159ZM272.826 175.159C272.11 175.159 271.493 174.99 270.976 174.652C270.459 174.314 270.061 173.848 269.783 173.255C269.505 172.662 269.365 171.984 269.365 171.222C269.365 170.446 269.508 169.762 269.793 169.168C270.081 168.572 270.482 168.106 270.996 167.771C271.513 167.433 272.116 167.264 272.806 167.264C273.343 167.264 273.826 167.364 274.257 167.562C274.688 167.761 275.041 168.04 275.316 168.398C275.591 168.756 275.762 169.173 275.828 169.651H274.655C274.566 169.303 274.367 168.994 274.059 168.726C273.754 168.454 273.343 168.318 272.826 168.318C272.368 168.318 271.967 168.437 271.622 168.676C271.281 168.911 271.014 169.245 270.822 169.675C270.633 170.103 270.539 170.605 270.539 171.182C270.539 171.772 270.631 172.286 270.817 172.723C271.006 173.161 271.271 173.5 271.612 173.742C271.957 173.984 272.362 174.105 272.826 174.105C273.13 174.105 273.407 174.052 273.656 173.946C273.904 173.84 274.115 173.688 274.287 173.489C274.46 173.29 274.582 173.051 274.655 172.773H275.828C275.762 173.223 275.598 173.629 275.336 173.991C275.078 174.349 274.735 174.634 274.307 174.846C273.883 175.055 273.389 175.159 272.826 175.159ZM85.3773 187.364V188.358H81.4199V187.364H85.3773ZM82.5733 185.534H83.7466V192.812C83.7466 193.144 83.7947 193.393 83.8908 193.558C83.9902 193.721 84.1162 193.83 84.2686 193.886C84.4244 193.939 84.5885 193.966 84.7608 193.966C84.8901 193.966 84.9962 193.959 85.079 193.946C85.1619 193.929 85.2282 193.916 85.2779 193.906L85.5165 194.96C85.437 194.99 85.3259 195.02 85.1834 195.05C85.0409 195.083 84.8603 195.099 84.6415 195.099C84.3101 195.099 83.9853 195.028 83.6671 194.886C83.3522 194.743 83.0904 194.526 82.8816 194.234C82.6761 193.943 82.5733 193.575 82.5733 193.131V185.534ZM90.2619 195.159C89.5261 195.159 88.8914 194.997 88.3578 194.672C87.8275 194.344 87.4181 193.886 87.1298 193.3C86.8448 192.71 86.7022 192.024 86.7022 191.241C86.7022 190.459 86.8448 189.77 87.1298 189.173C87.4181 188.573 87.8192 188.106 88.3329 187.771C88.85 187.433 89.4532 187.264 90.1426 187.264C90.5403 187.264 90.9331 187.33 91.3208 187.463C91.7086 187.596 92.0616 187.811 92.3798 188.109C92.698 188.404 92.9515 188.795 93.1404 189.283C93.3294 189.77 93.4238 190.37 93.4238 191.082V191.58H87.5375V190.565H92.2306C92.2306 190.134 92.1445 189.75 91.9721 189.412C91.8031 189.074 91.5611 188.807 91.2463 188.612C90.9347 188.416 90.5668 188.318 90.1426 188.318C89.6752 188.318 89.2709 188.434 88.9295 188.666C88.5914 188.895 88.3313 189.193 88.149 189.561C87.9667 189.929 87.8755 190.323 87.8755 190.744V191.42C87.8755 191.997 87.975 192.486 88.1738 192.887C88.376 193.285 88.6561 193.588 89.014 193.797C89.372 194.002 89.7879 194.105 90.2619 194.105C90.5701 194.105 90.8485 194.062 91.0971 193.976C91.349 193.886 91.5661 193.754 91.7484 193.578C91.9307 193.399 92.0716 193.177 92.171 192.912L93.3045 193.23C93.1852 193.615 92.9847 193.953 92.7029 194.244C92.4212 194.533 92.0732 194.758 91.6589 194.92C91.2446 195.08 90.7789 195.159 90.2619 195.159ZM95.2086 195V187.364H96.3422V188.557H96.4416C96.6007 188.149 96.8575 187.833 97.2122 187.607C97.5668 187.379 97.9927 187.264 98.4899 187.264C98.9937 187.264 99.4129 187.379 99.7477 187.607C100.086 187.833 100.349 188.149 100.538 188.557H100.618C100.813 188.162 101.107 187.849 101.498 187.617C101.889 187.382 102.358 187.264 102.905 187.264C103.587 187.264 104.146 187.478 104.58 187.906C105.014 188.33 105.231 188.991 105.231 189.889V195H104.058V189.889C104.058 189.326 103.904 188.923 103.596 188.681C103.287 188.439 102.925 188.318 102.507 188.318C101.97 188.318 101.554 188.481 101.259 188.805C100.964 189.127 100.817 189.535 100.817 190.028V195H99.6234V189.77C99.6234 189.336 99.4825 188.986 99.2008 188.721C98.9191 188.452 98.5562 188.318 98.112 188.318C97.8071 188.318 97.5221 188.399 97.2569 188.562C96.9951 188.724 96.783 188.95 96.6206 189.238C96.4615 189.523 96.3819 189.853 96.3819 190.227V195H95.2086ZM107.377 197.864V187.364H108.51V188.577H108.649C108.735 188.444 108.855 188.275 109.007 188.07C109.163 187.861 109.385 187.675 109.673 187.513C109.965 187.347 110.36 187.264 110.857 187.264C111.5 187.264 112.066 187.425 112.557 187.746C113.048 188.068 113.43 188.524 113.705 189.114C113.981 189.704 114.118 190.4 114.118 191.202C114.118 192.01 113.981 192.711 113.705 193.305C113.43 193.895 113.049 194.352 112.562 194.677C112.075 194.998 111.513 195.159 110.877 195.159C110.386 195.159 109.993 195.078 109.698 194.915C109.403 194.75 109.176 194.562 109.017 194.354C108.858 194.142 108.735 193.966 108.649 193.827H108.55V197.864H107.377ZM108.53 191.182C108.53 191.759 108.615 192.267 108.784 192.708C108.953 193.146 109.2 193.489 109.524 193.737C109.849 193.982 110.247 194.105 110.718 194.105C111.208 194.105 111.617 193.976 111.945 193.717C112.277 193.455 112.526 193.104 112.691 192.663C112.86 192.219 112.945 191.725 112.945 191.182C112.945 190.645 112.862 190.161 112.696 189.73C112.534 189.296 112.287 188.953 111.955 188.701C111.627 188.446 111.215 188.318 110.718 188.318C110.24 188.318 109.839 188.439 109.514 188.681C109.19 188.92 108.944 189.254 108.779 189.685C108.613 190.113 108.53 190.612 108.53 191.182ZM119.01 195.159C118.321 195.159 117.716 194.995 117.195 194.667C116.678 194.339 116.274 193.88 115.982 193.29C115.694 192.7 115.55 192.01 115.55 191.222C115.55 190.426 115.694 189.732 115.982 189.138C116.274 188.545 116.678 188.085 117.195 187.756C117.716 187.428 118.321 187.264 119.01 187.264C119.7 187.264 120.303 187.428 120.82 187.756C121.34 188.085 121.744 188.545 122.033 189.138C122.325 189.732 122.47 190.426 122.47 191.222C122.47 192.01 122.325 192.7 122.033 193.29C121.744 193.88 121.34 194.339 120.82 194.667C120.303 194.995 119.7 195.159 119.01 195.159ZM119.01 194.105C119.534 194.105 119.965 193.971 120.303 193.702C120.641 193.434 120.891 193.081 121.053 192.643C121.216 192.206 121.297 191.732 121.297 191.222C121.297 190.711 121.216 190.236 121.053 189.795C120.891 189.354 120.641 188.998 120.303 188.726C119.965 188.454 119.534 188.318 119.01 188.318C118.486 188.318 118.056 188.454 117.718 188.726C117.379 188.998 117.129 189.354 116.967 189.795C116.804 190.236 116.723 190.711 116.723 191.222C116.723 191.732 116.804 192.206 116.967 192.643C117.129 193.081 117.379 193.434 117.718 193.702C118.056 193.971 118.486 194.105 119.01 194.105ZM124.261 195V187.364H125.395V188.517H125.474C125.614 188.139 125.866 187.833 126.23 187.597C126.595 187.362 127.006 187.244 127.463 187.244C127.549 187.244 127.657 187.246 127.786 187.249C127.915 187.253 128.013 187.258 128.08 187.264V188.457C128.04 188.447 127.949 188.433 127.806 188.413C127.667 188.389 127.519 188.378 127.364 188.378C126.992 188.378 126.661 188.456 126.369 188.612C126.081 188.764 125.852 188.976 125.683 189.248C125.518 189.516 125.435 189.823 125.435 190.168V195H124.261ZM134.581 184.818V195H133.408V184.818H134.581ZM139.932 195.159C139.196 195.159 138.561 194.997 138.028 194.672C137.497 194.344 137.088 193.886 136.8 193.3C136.515 192.71 136.372 192.024 136.372 191.241C136.372 190.459 136.515 189.77 136.8 189.173C137.088 188.573 137.489 188.106 138.003 187.771C138.52 187.433 139.123 187.264 139.812 187.264C140.21 187.264 140.603 187.33 140.991 187.463C141.379 187.596 141.732 187.811 142.05 188.109C142.368 188.404 142.621 188.795 142.81 189.283C142.999 189.77 143.094 190.37 143.094 191.082V191.58H137.207V190.565H141.901C141.901 190.134 141.814 189.75 141.642 189.412C141.473 189.074 141.231 188.807 140.916 188.612C140.605 188.416 140.237 188.318 139.812 188.318C139.345 188.318 138.941 188.434 138.599 188.666C138.261 188.895 138.001 189.193 137.819 189.561C137.637 189.929 137.545 190.323 137.545 190.744V191.42C137.545 191.997 137.645 192.486 137.844 192.887C138.046 193.285 138.326 193.588 138.684 193.797C139.042 194.002 139.458 194.105 139.932 194.105C140.24 194.105 140.518 194.062 140.767 193.976C141.019 193.886 141.236 193.754 141.418 193.578C141.601 193.399 141.741 193.177 141.841 192.912L142.974 193.23C142.855 193.615 142.655 193.953 142.373 194.244C142.091 194.533 141.743 194.758 141.329 194.92C140.915 195.08 140.449 195.159 139.932 195.159ZM147.981 195.159C147.291 195.159 146.687 194.995 146.166 194.667C145.649 194.339 145.245 193.88 144.953 193.29C144.665 192.7 144.521 192.01 144.521 191.222C144.521 190.426 144.665 189.732 144.953 189.138C145.245 188.545 145.649 188.085 146.166 187.756C146.687 187.428 147.291 187.264 147.981 187.264C148.67 187.264 149.273 187.428 149.79 187.756C150.311 188.085 150.715 188.545 151.004 189.138C151.295 189.732 151.441 190.426 151.441 191.222C151.441 192.01 151.295 192.7 151.004 193.29C150.715 193.88 150.311 194.339 149.79 194.667C149.273 194.995 148.67 195.159 147.981 195.159ZM147.981 194.105C148.504 194.105 148.935 193.971 149.273 193.702C149.612 193.434 149.862 193.081 150.024 192.643C150.187 192.206 150.268 191.732 150.268 191.222C150.268 190.711 150.187 190.236 150.024 189.795C149.862 189.354 149.612 188.998 149.273 188.726C148.935 188.454 148.504 188.318 147.981 188.318C147.457 188.318 147.026 188.454 146.688 188.726C146.35 188.998 146.1 189.354 145.938 189.795C145.775 190.236 145.694 190.711 145.694 191.222C145.694 191.732 145.775 192.206 145.938 192.643C146.1 193.081 146.35 193.434 146.688 193.702C147.026 193.971 147.457 194.105 147.981 194.105ZM160.491 187.364V188.358H156.533V187.364H160.491ZM157.687 185.534H158.86V192.812C158.86 193.144 158.908 193.393 159.004 193.558C159.104 193.721 159.229 193.83 159.382 193.886C159.538 193.939 159.702 193.966 159.874 193.966C160.003 193.966 160.109 193.959 160.192 193.946C160.275 193.929 160.341 193.916 160.391 193.906L160.63 194.96C160.55 194.99 160.439 195.02 160.297 195.05C160.154 195.083 159.974 195.099 159.755 195.099C159.423 195.099 159.099 195.028 158.78 194.886C158.465 194.743 158.204 194.526 157.995 194.234C157.789 193.943 157.687 193.575 157.687 193.131V185.534ZM162.256 195V187.364H163.389V188.517H163.469C163.608 188.139 163.86 187.833 164.224 187.597C164.589 187.362 165 187.244 165.457 187.244C165.543 187.244 165.651 187.246 165.78 187.249C165.91 187.253 166.007 187.258 166.074 187.264V188.457C166.034 188.447 165.943 188.433 165.8 188.413C165.661 188.389 165.514 188.378 165.358 188.378C164.987 188.378 164.655 188.456 164.363 188.612C164.075 188.764 163.846 188.976 163.677 189.248C163.512 189.516 163.429 189.823 163.429 190.168V195H162.256ZM167.464 195V187.364H168.638V195H167.464ZM168.061 186.091C167.832 186.091 167.635 186.013 167.469 185.857C167.307 185.701 167.226 185.514 167.226 185.295C167.226 185.077 167.307 184.889 167.469 184.734C167.635 184.578 167.832 184.5 168.061 184.5C168.29 184.5 168.485 184.578 168.648 184.734C168.813 184.889 168.896 185.077 168.896 185.295C168.896 185.514 168.813 185.701 168.648 185.857C168.485 186.013 168.29 186.091 168.061 186.091ZM176.196 189.074L175.142 189.372C175.076 189.196 174.978 189.026 174.849 188.86C174.723 188.691 174.55 188.552 174.331 188.442C174.113 188.333 173.833 188.278 173.491 188.278C173.024 188.278 172.635 188.386 172.323 188.602C172.015 188.814 171.861 189.084 171.861 189.412C171.861 189.704 171.967 189.934 172.179 190.103C172.391 190.272 172.722 190.413 173.173 190.526L174.307 190.804C174.989 190.97 175.498 191.223 175.833 191.565C176.168 191.903 176.335 192.339 176.335 192.872C176.335 193.31 176.209 193.701 175.957 194.045C175.709 194.39 175.361 194.662 174.913 194.861C174.466 195.06 173.945 195.159 173.352 195.159C172.573 195.159 171.929 194.99 171.418 194.652C170.908 194.314 170.585 193.82 170.449 193.17L171.562 192.892C171.668 193.303 171.869 193.611 172.164 193.817C172.462 194.022 172.852 194.125 173.332 194.125C173.879 194.125 174.313 194.009 174.635 193.777C174.96 193.542 175.122 193.26 175.122 192.932C175.122 192.667 175.029 192.445 174.844 192.266C174.658 192.083 174.373 191.947 173.988 191.858L172.716 191.56C172.016 191.394 171.503 191.137 171.175 190.789C170.85 190.438 170.687 189.999 170.687 189.472C170.687 189.041 170.808 188.66 171.05 188.328C171.296 187.997 171.629 187.737 172.05 187.548C172.474 187.359 172.954 187.264 173.491 187.264C174.247 187.264 174.84 187.43 175.271 187.761C175.705 188.093 176.014 188.53 176.196 189.074ZM181.422 187.364V188.358H177.465V187.364H181.422ZM178.618 185.534H179.792V192.812C179.792 193.144 179.84 193.393 179.936 193.558C180.035 193.721 180.161 193.83 180.314 193.886C180.469 193.939 180.633 193.966 180.806 193.966C180.935 193.966 181.041 193.959 181.124 193.946C181.207 193.929 181.273 193.916 181.323 193.906L181.561 194.96C181.482 194.99 181.371 195.02 181.228 195.05C181.086 195.083 180.905 195.099 180.686 195.099C180.355 195.099 180.03 195.028 179.712 194.886C179.397 194.743 179.135 194.526 178.926 194.234C178.721 193.943 178.618 193.575 178.618 193.131V185.534ZM183.187 195V187.364H184.36V195H183.187ZM183.784 186.091C183.555 186.091 183.358 186.013 183.192 185.857C183.03 185.701 182.949 185.514 182.949 185.295C182.949 185.077 183.03 184.889 183.192 184.734C183.358 184.578 183.555 184.5 183.784 184.5C184.012 184.5 184.208 184.578 184.37 184.734C184.536 184.889 184.619 185.077 184.619 185.295C184.619 185.514 184.536 185.701 184.37 185.857C184.208 186.013 184.012 186.091 183.784 186.091ZM191.72 197.864V193.827H191.62C191.534 193.966 191.411 194.142 191.252 194.354C191.093 194.562 190.866 194.75 190.571 194.915C190.276 195.078 189.883 195.159 189.393 195.159C188.757 195.159 188.195 194.998 187.708 194.677C187.22 194.352 186.839 193.895 186.564 193.305C186.289 192.711 186.151 192.01 186.151 191.202C186.151 190.4 186.289 189.704 186.564 189.114C186.839 188.524 187.222 188.068 187.713 187.746C188.203 187.425 188.77 187.264 189.413 187.264C189.91 187.264 190.303 187.347 190.591 187.513C190.883 187.675 191.105 187.861 191.257 188.07C191.413 188.275 191.534 188.444 191.62 188.577H191.759V187.364H192.893V197.864H191.72ZM189.552 194.105C190.023 194.105 190.42 193.982 190.745 193.737C191.07 193.489 191.317 193.146 191.486 192.708C191.655 192.267 191.74 191.759 191.74 191.182C191.74 190.612 191.657 190.113 191.491 189.685C191.325 189.254 191.08 188.92 190.755 188.681C190.43 188.439 190.029 188.318 189.552 188.318C189.055 188.318 188.641 188.446 188.309 188.701C187.981 188.953 187.734 189.296 187.568 189.73C187.406 190.161 187.325 190.645 187.325 191.182C187.325 191.725 187.408 192.219 187.573 192.663C187.742 193.104 187.991 193.455 188.319 193.717C188.651 193.976 189.061 194.105 189.552 194.105ZM199.853 191.878V187.364H201.026V195H199.853V193.707H199.774C199.595 194.095 199.316 194.425 198.938 194.697C198.561 194.965 198.083 195.099 197.507 195.099C197.029 195.099 196.605 194.995 196.234 194.786C195.863 194.574 195.571 194.256 195.359 193.832C195.147 193.404 195.041 192.866 195.041 192.216V187.364H196.214V192.136C196.214 192.693 196.37 193.137 196.681 193.469C196.996 193.8 197.397 193.966 197.884 193.966C198.176 193.966 198.473 193.891 198.774 193.742C199.079 193.593 199.334 193.364 199.54 193.056C199.749 192.748 199.853 192.355 199.853 191.878ZM206.377 195.159C205.641 195.159 205.007 194.997 204.473 194.672C203.943 194.344 203.533 193.886 203.245 193.3C202.96 192.71 202.817 192.024 202.817 191.241C202.817 190.459 202.96 189.77 203.245 189.173C203.533 188.573 203.934 188.106 204.448 187.771C204.965 187.433 205.568 187.264 206.258 187.264C206.656 187.264 207.048 187.33 207.436 187.463C207.824 187.596 208.177 187.811 208.495 188.109C208.813 188.404 209.067 188.795 209.256 189.283C209.445 189.77 209.539 190.37 209.539 191.082V191.58H203.653V190.565H208.346C208.346 190.134 208.26 189.75 208.087 189.412C207.918 189.074 207.676 188.807 207.362 188.612C207.05 188.416 206.682 188.318 206.258 188.318C205.79 188.318 205.386 188.434 205.045 188.666C204.707 188.895 204.446 189.193 204.264 189.561C204.082 189.929 203.991 190.323 203.991 190.744V191.42C203.991 191.997 204.09 192.486 204.289 192.887C204.491 193.285 204.771 193.588 205.129 193.797C205.487 194.002 205.903 194.105 206.377 194.105C206.685 194.105 206.964 194.062 207.212 193.976C207.464 193.886 207.681 193.754 207.864 193.578C208.046 193.399 208.187 193.177 208.286 192.912L209.42 193.23C209.3 193.615 209.1 193.953 208.818 194.244C208.536 194.533 208.188 194.758 207.774 194.92C207.36 195.08 206.894 195.159 206.377 195.159ZM217.509 195.179C217.025 195.179 216.585 195.088 216.191 194.906C215.797 194.72 215.483 194.453 215.251 194.105C215.019 193.754 214.903 193.33 214.903 192.832C214.903 192.395 214.99 192.04 215.162 191.768C215.334 191.493 215.565 191.278 215.853 191.122C216.141 190.966 216.46 190.85 216.808 190.774C217.159 190.695 217.512 190.632 217.866 190.585C218.33 190.526 218.707 190.481 218.995 190.451C219.287 190.418 219.499 190.363 219.631 190.287C219.767 190.211 219.835 190.078 219.835 189.889V189.849C219.835 189.359 219.701 188.978 219.433 188.706C219.167 188.434 218.765 188.298 218.224 188.298C217.664 188.298 217.225 188.421 216.907 188.666C216.589 188.911 216.365 189.173 216.236 189.452L215.122 189.054C215.321 188.59 215.586 188.229 215.918 187.97C216.252 187.708 216.617 187.526 217.011 187.423C217.409 187.317 217.8 187.264 218.185 187.264C218.43 187.264 218.712 187.294 219.03 187.354C219.351 187.41 219.661 187.528 219.96 187.707C220.261 187.886 220.511 188.156 220.71 188.517C220.909 188.878 221.009 189.362 221.009 189.969V195H219.835V193.966H219.776C219.696 194.132 219.563 194.309 219.378 194.498C219.192 194.687 218.945 194.848 218.637 194.98C218.329 195.113 217.953 195.179 217.509 195.179ZM217.688 194.125C218.152 194.125 218.543 194.034 218.861 193.852C219.182 193.669 219.424 193.434 219.587 193.146C219.752 192.857 219.835 192.554 219.835 192.236V191.162C219.786 191.222 219.676 191.276 219.507 191.326C219.341 191.372 219.149 191.414 218.93 191.45C218.715 191.483 218.504 191.513 218.299 191.54C218.097 191.563 217.933 191.583 217.807 191.599C217.502 191.639 217.217 191.704 216.952 191.793C216.69 191.879 216.478 192.01 216.315 192.186C216.156 192.358 216.077 192.594 216.077 192.892C216.077 193.3 216.228 193.608 216.529 193.817C216.834 194.022 217.22 194.125 217.688 194.125ZM226.471 187.364V188.358H222.514V187.364H226.471ZM223.667 185.534H224.84V192.812C224.84 193.144 224.888 193.393 224.985 193.558C225.084 193.721 225.21 193.83 225.362 193.886C225.518 193.939 225.682 193.966 225.855 193.966C225.984 193.966 226.09 193.959 226.173 193.946C226.256 193.929 226.322 193.916 226.372 193.906L226.61 194.96C226.531 194.99 226.42 195.02 226.277 195.05C226.135 195.083 225.954 195.099 225.735 195.099C225.404 195.099 225.079 195.028 224.761 194.886C224.446 194.743 224.184 194.526 223.975 194.234C223.77 193.943 223.667 193.575 223.667 193.131V185.534ZM229.091 195.08C228.846 195.08 228.635 194.992 228.46 194.816C228.284 194.64 228.196 194.43 228.196 194.185C228.196 193.939 228.284 193.729 228.46 193.553C228.635 193.378 228.846 193.29 229.091 193.29C229.336 193.29 229.547 193.378 229.722 193.553C229.898 193.729 229.986 193.939 229.986 194.185C229.986 194.347 229.945 194.496 229.862 194.632C229.782 194.768 229.674 194.877 229.539 194.96C229.406 195.04 229.257 195.08 229.091 195.08Z" fill="#767F8C"/>
<defs>
<clipPath id="clip0_1647_31985">
<rect width="32" height="32" fill="white" transform="translate(140 44)"/>
</clipPath>
</defs>
</svg>
