<svg width="24" height="24" viewBox="0 0 24 24" fill="none" xmlns="http://www.w3.org/2000/svg">
<path d="M5.26904 10.5002C5.26657 9.61461 5.43885 8.73727 5.77603 7.91841C6.1132 7.09956 6.60864 6.35528 7.23394 5.72822C7.85925 5.10116 8.60214 4.60365 9.42006 4.26419C10.238 3.92474 11.1148 3.75 12.0004 3.75C12.8859 3.75 13.7628 3.92474 14.5807 4.26419C15.3986 4.60365 16.1415 5.10116 16.7668 5.72822C17.3921 6.35528 17.8876 7.09956 18.2247 7.91841C18.5619 8.73727 18.7342 9.61461 18.7317 10.5002V10.5002C18.7317 13.8579 19.4342 15.8063 20.0529 16.8712C20.1196 16.985 20.1551 17.1144 20.1558 17.2462C20.1565 17.3781 20.1224 17.5078 20.0569 17.6223C19.9915 17.7368 19.8971 17.832 19.7831 17.8984C19.6691 17.9647 19.5397 17.9998 19.4078 18.0002H4.59222C4.46034 17.9998 4.33087 17.9647 4.21689 17.8984C4.1029 17.832 4.00844 17.7368 3.94301 17.6223C3.87759 17.5077 3.84352 17.378 3.84425 17.2461C3.84498 17.1142 3.88048 16.9849 3.94716 16.8711C4.56622 15.8061 5.26904 13.8577 5.26904 10.5002H5.26904Z" stroke="#18191C" stroke-width="1.5" stroke-linecap="round" stroke-linejoin="round"/>
<path d="M9 18V18.75C9 19.5456 9.31607 20.3087 9.87868 20.8713C10.4413 21.4339 11.2044 21.75 12 21.75C12.7956 21.75 13.5587 21.4339 14.1213 20.8713C14.6839 20.3087 15 19.5456 15 18.75V18" stroke="#18191C" stroke-width="1.5" stroke-linecap="round" stroke-linejoin="round"/>
<path d="M17.1968 2.24902C18.7229 3.21245 19.9531 4.57885 20.7516 6.19736" stroke="#18191C" stroke-width="1.5" stroke-linecap="round" stroke-linejoin="round"/>
<path d="M3.24829 6.19736C4.04681 4.57885 5.27703 3.21245 6.80315 2.24902" stroke="#18191C" stroke-width="1.5" stroke-linecap="round" stroke-linejoin="round"/>
</svg>
