<svg width="312" height="224" viewBox="0 0 312 224" fill="none" xmlns="http://www.w3.org/2000/svg">
<rect x="120" y="24" width="72" height="72" rx="36" fill="white"/>
<g clip-path="url(#clip0_1647_32009)">
<path opacity="0.2" d="M154.499 68.9995C160.298 68.9995 164.999 64.2985 164.999 58.4995C164.999 52.7005 160.298 47.9995 154.499 47.9995C148.7 47.9995 143.999 52.7005 143.999 58.4995C143.999 64.2985 148.7 68.9995 154.499 68.9995Z" fill="#0A65CC"/>
<path d="M150.499 58.5H158.499" stroke="#0A65CC" stroke-width="2" stroke-linecap="round" stroke-linejoin="round"/>
<path d="M154.499 54.5V62.5" stroke="#0A65CC" stroke-width="2" stroke-linecap="round" stroke-linejoin="round"/>
<path d="M154.499 68.9995C160.298 68.9995 164.999 64.2985 164.999 58.4995C164.999 52.7005 160.298 47.9995 154.499 47.9995C148.7 47.9995 143.999 52.7005 143.999 58.4995C143.999 64.2985 148.7 68.9995 154.499 68.9995Z" stroke="#0A65CC" stroke-width="2" stroke-linecap="round" stroke-linejoin="round"/>
<path d="M161.924 65.9246L167.999 71.9996" stroke="#0A65CC" stroke-width="2" stroke-linecap="round" stroke-linejoin="round"/>
</g>
<path d="M86.8005 141V127.909H94.9184V129.609H88.7757V133.598H94.3367V135.292H88.7757V141H86.8005ZM97.194 141V131.182H99.1052V141H97.194ZM98.1592 129.667C97.8268 129.667 97.5413 129.556 97.3026 129.335C97.0683 129.109 96.9511 128.84 96.9511 128.529C96.9511 128.214 97.0683 127.945 97.3026 127.724C97.5413 127.498 97.8268 127.385 98.1592 127.385C98.4916 127.385 98.7749 127.498 99.0093 127.724C99.248 127.945 99.3673 128.214 99.3673 128.529C99.3673 128.84 99.248 129.109 99.0093 129.335C98.7749 129.556 98.4916 129.667 98.1592 129.667ZM103.588 135.17V141H101.676V131.182H103.511V132.78H103.632C103.858 132.26 104.212 131.842 104.693 131.527C105.179 131.212 105.791 131.054 106.528 131.054C107.197 131.054 107.783 131.195 108.286 131.476C108.789 131.753 109.179 132.166 109.456 132.716C109.733 133.266 109.871 133.945 109.871 134.755V141H107.96V134.985C107.96 134.273 107.774 133.717 107.404 133.317C107.033 132.912 106.524 132.71 105.876 132.71C105.433 132.71 105.039 132.805 104.693 132.997C104.353 133.189 104.082 133.47 103.882 133.841C103.686 134.207 103.588 134.651 103.588 135.17ZM116.11 141.192C115.317 141.192 114.61 140.989 113.987 140.585C113.37 140.175 112.884 139.594 112.53 138.839C112.181 138.081 112.006 137.171 112.006 136.11C112.006 135.049 112.183 134.141 112.536 133.387C112.894 132.633 113.384 132.055 114.007 131.655C114.629 131.254 115.334 131.054 116.122 131.054C116.732 131.054 117.222 131.156 117.593 131.361C117.968 131.561 118.257 131.795 118.462 132.064C118.671 132.332 118.833 132.569 118.948 132.773H119.063V127.909H120.974V141H119.108V139.472H118.948C118.833 139.681 118.666 139.92 118.449 140.188C118.236 140.457 117.942 140.691 117.567 140.891C117.192 141.092 116.706 141.192 116.11 141.192ZM116.532 139.562C117.081 139.562 117.546 139.417 117.925 139.127C118.309 138.833 118.598 138.426 118.794 137.906C118.995 137.386 119.095 136.781 119.095 136.091C119.095 135.409 118.997 134.812 118.801 134.301C118.605 133.79 118.317 133.391 117.938 133.106C117.559 132.82 117.09 132.678 116.532 132.678C115.956 132.678 115.477 132.827 115.093 133.125C114.71 133.423 114.42 133.83 114.224 134.346C114.032 134.862 113.936 135.443 113.936 136.091C113.936 136.747 114.034 137.337 114.23 137.862C114.426 138.386 114.716 138.801 115.1 139.108C115.487 139.411 115.965 139.562 116.532 139.562ZM135.823 133.579L134.09 133.886C134.018 133.664 133.903 133.453 133.745 133.253C133.592 133.053 133.383 132.888 133.119 132.761C132.855 132.633 132.524 132.569 132.128 132.569C131.587 132.569 131.135 132.69 130.773 132.933C130.411 133.172 130.23 133.481 130.23 133.86C130.23 134.188 130.351 134.452 130.594 134.653C130.837 134.853 131.229 135.017 131.77 135.145L133.33 135.503C134.233 135.712 134.907 136.033 135.35 136.468C135.793 136.903 136.014 137.467 136.014 138.162C136.014 138.75 135.844 139.274 135.503 139.734C135.166 140.19 134.696 140.548 134.09 140.808C133.49 141.068 132.793 141.198 132 141.198C130.901 141.198 130.004 140.964 129.309 140.495C128.615 140.022 128.188 139.351 128.031 138.482L129.878 138.2C129.993 138.682 130.23 139.046 130.588 139.293C130.946 139.536 131.412 139.658 131.987 139.658C132.614 139.658 133.115 139.528 133.49 139.268C133.865 139.004 134.052 138.682 134.052 138.303C134.052 137.996 133.937 137.738 133.707 137.529C133.481 137.32 133.134 137.163 132.665 137.056L131.003 136.692C130.087 136.483 129.409 136.151 128.97 135.695C128.536 135.239 128.318 134.661 128.318 133.962C128.318 133.383 128.48 132.876 128.804 132.441C129.128 132.006 129.576 131.668 130.147 131.425C130.718 131.178 131.372 131.054 132.109 131.054C133.17 131.054 134.005 131.284 134.615 131.744C135.224 132.2 135.627 132.812 135.823 133.579ZM144.335 136.928V131.182H146.253V141H144.374V139.3H144.271C144.046 139.824 143.683 140.261 143.185 140.61C142.69 140.955 142.075 141.128 141.337 141.128C140.707 141.128 140.149 140.989 139.663 140.712C139.181 140.431 138.802 140.016 138.525 139.466C138.252 138.916 138.116 138.237 138.116 137.427V131.182H140.027V137.197C140.027 137.866 140.212 138.398 140.583 138.795C140.954 139.191 141.435 139.389 142.028 139.389C142.386 139.389 142.742 139.3 143.095 139.121C143.453 138.942 143.749 138.671 143.984 138.309C144.222 137.947 144.34 137.487 144.335 136.928ZM148.821 141V131.182H150.732V141H148.821ZM149.786 129.667C149.454 129.667 149.168 129.556 148.93 129.335C148.695 129.109 148.578 128.84 148.578 128.529C148.578 128.214 148.695 127.945 148.93 127.724C149.168 127.498 149.454 127.385 149.786 127.385C150.119 127.385 150.402 127.498 150.636 127.724C150.875 127.945 150.994 128.214 150.994 128.529C150.994 128.84 150.875 129.109 150.636 129.335C150.402 129.556 150.119 129.667 149.786 129.667ZM157.886 131.182V132.716H152.524V131.182H157.886ZM153.962 128.83H155.873V138.117C155.873 138.488 155.928 138.767 156.039 138.955C156.15 139.138 156.293 139.263 156.467 139.332C156.646 139.396 156.84 139.428 157.049 139.428C157.203 139.428 157.337 139.417 157.452 139.396C157.567 139.374 157.656 139.357 157.72 139.344L158.065 140.923C157.955 140.966 157.797 141.009 157.592 141.051C157.388 141.098 157.132 141.124 156.825 141.128C156.323 141.136 155.854 141.047 155.419 140.859C154.984 140.672 154.633 140.382 154.364 139.99C154.096 139.598 153.962 139.106 153.962 138.513V128.83ZM162.858 141.217C162.236 141.217 161.673 141.102 161.17 140.872C160.668 140.638 160.269 140.299 159.975 139.856C159.685 139.413 159.54 138.869 159.54 138.226C159.54 137.672 159.647 137.216 159.86 136.858C160.073 136.5 160.361 136.217 160.723 136.008C161.085 135.799 161.49 135.641 161.937 135.535C162.385 135.428 162.841 135.347 163.305 135.292C163.893 135.224 164.371 135.168 164.737 135.126C165.104 135.079 165.37 135.004 165.536 134.902C165.702 134.8 165.785 134.634 165.785 134.403V134.359C165.785 133.8 165.628 133.368 165.312 133.061C165.001 132.754 164.537 132.601 163.919 132.601C163.275 132.601 162.768 132.744 162.398 133.029C162.031 133.31 161.778 133.624 161.637 133.969L159.841 133.56C160.054 132.963 160.365 132.482 160.774 132.115C161.187 131.744 161.663 131.476 162.199 131.31C162.736 131.139 163.301 131.054 163.893 131.054C164.285 131.054 164.701 131.101 165.14 131.195C165.583 131.284 165.996 131.45 166.38 131.693C166.768 131.936 167.085 132.283 167.332 132.735C167.579 133.183 167.703 133.764 167.703 134.48V141H165.837V139.658H165.76C165.636 139.905 165.451 140.148 165.204 140.386C164.957 140.625 164.639 140.823 164.251 140.981C163.864 141.138 163.399 141.217 162.858 141.217ZM163.273 139.683C163.802 139.683 164.253 139.579 164.628 139.37C165.008 139.161 165.295 138.888 165.491 138.552C165.692 138.211 165.792 137.847 165.792 137.459V136.193C165.724 136.261 165.592 136.325 165.396 136.385C165.204 136.44 164.984 136.489 164.737 136.532C164.49 136.57 164.249 136.607 164.015 136.641C163.78 136.67 163.584 136.696 163.427 136.717C163.056 136.764 162.717 136.843 162.41 136.954C162.108 137.065 161.865 137.224 161.682 137.433C161.503 137.638 161.413 137.911 161.413 138.251C161.413 138.724 161.588 139.082 161.937 139.325C162.287 139.564 162.732 139.683 163.273 139.683ZM170.402 141V127.909H172.313V132.773H172.428C172.539 132.569 172.699 132.332 172.908 132.064C173.117 131.795 173.406 131.561 173.777 131.361C174.148 131.156 174.638 131.054 175.247 131.054C176.04 131.054 176.747 131.254 177.369 131.655C177.992 132.055 178.479 132.633 178.833 133.387C179.191 134.141 179.37 135.049 179.37 136.11C179.37 137.171 179.193 138.081 178.84 138.839C178.486 139.594 178 140.175 177.382 140.585C176.764 140.989 176.059 141.192 175.266 141.192C174.67 141.192 174.182 141.092 173.803 140.891C173.428 140.691 173.134 140.457 172.921 140.188C172.707 139.92 172.543 139.681 172.428 139.472H172.269V141H170.402ZM172.275 136.091C172.275 136.781 172.375 137.386 172.575 137.906C172.776 138.426 173.065 138.833 173.445 139.127C173.824 139.417 174.288 139.562 174.838 139.562C175.409 139.562 175.886 139.411 176.27 139.108C176.653 138.801 176.943 138.386 177.139 137.862C177.34 137.337 177.44 136.747 177.44 136.091C177.44 135.443 177.342 134.862 177.146 134.346C176.954 133.83 176.664 133.423 176.276 133.125C175.893 132.827 175.413 132.678 174.838 132.678C174.284 132.678 173.815 132.82 173.432 133.106C173.053 133.391 172.765 133.79 172.569 134.301C172.373 134.812 172.275 135.409 172.275 136.091ZM183.427 127.909V141H181.516V127.909H183.427ZM190.23 141.198C189.263 141.198 188.43 140.991 187.731 140.578C187.036 140.161 186.499 139.575 186.12 138.82C185.745 138.062 185.558 137.173 185.558 136.155C185.558 135.149 185.745 134.263 186.12 133.496C186.499 132.729 187.028 132.13 187.705 131.7C188.387 131.269 189.184 131.054 190.096 131.054C190.65 131.054 191.187 131.146 191.707 131.329C192.227 131.512 192.693 131.8 193.107 132.192C193.52 132.584 193.846 133.093 194.085 133.719C194.323 134.342 194.443 135.098 194.443 135.989V136.666H186.638V135.234H192.57C192.57 134.732 192.467 134.286 192.263 133.898C192.058 133.506 191.771 133.197 191.4 132.972C191.033 132.746 190.603 132.633 190.109 132.633C189.572 132.633 189.103 132.765 188.703 133.029C188.306 133.289 187.999 133.63 187.782 134.052C187.569 134.469 187.462 134.923 187.462 135.413V136.532C187.462 137.188 187.578 137.746 187.808 138.207C188.042 138.667 188.368 139.018 188.786 139.261C189.203 139.5 189.691 139.619 190.249 139.619C190.612 139.619 190.942 139.568 191.24 139.466C191.538 139.359 191.796 139.202 192.014 138.993C192.231 138.784 192.397 138.526 192.512 138.219L194.321 138.545C194.176 139.078 193.916 139.545 193.541 139.945C193.171 140.342 192.704 140.651 192.141 140.872C191.583 141.089 190.946 141.198 190.23 141.198ZM201.327 131.182H203.238V141.639C203.238 142.295 203.119 142.849 202.88 143.301C202.646 143.753 202.296 144.096 201.832 144.33C201.372 144.565 200.803 144.682 200.125 144.682C200.057 144.682 199.993 144.682 199.933 144.682C199.869 144.682 199.803 144.68 199.735 144.675V143.033C199.795 143.033 199.848 143.033 199.895 143.033C199.938 143.033 199.987 143.033 200.042 143.033C200.494 143.033 200.82 142.911 201.02 142.668C201.225 142.43 201.327 142.082 201.327 141.626V131.182ZM202.273 129.667C201.94 129.667 201.655 129.556 201.416 129.335C201.182 129.109 201.065 128.84 201.065 128.529C201.065 128.214 201.182 127.945 201.416 127.724C201.655 127.498 201.94 127.385 202.273 127.385C202.605 127.385 202.889 127.498 203.123 127.724C203.362 127.945 203.481 128.214 203.481 128.529C203.481 128.84 203.362 129.109 203.123 129.335C202.889 129.556 202.605 129.667 202.273 129.667ZM209.945 141.198C209.024 141.198 208.221 140.987 207.535 140.565C206.849 140.143 206.316 139.553 205.937 138.795C205.558 138.036 205.368 137.15 205.368 136.136C205.368 135.117 205.558 134.227 205.937 133.464C206.316 132.701 206.849 132.109 207.535 131.687C208.221 131.265 209.024 131.054 209.945 131.054C210.865 131.054 211.669 131.265 212.355 131.687C213.041 132.109 213.573 132.701 213.953 133.464C214.332 134.227 214.522 135.117 214.522 136.136C214.522 137.15 214.332 138.036 213.953 138.795C213.573 139.553 213.041 140.143 212.355 140.565C211.669 140.987 210.865 141.198 209.945 141.198ZM209.951 139.594C210.548 139.594 211.042 139.436 211.434 139.121C211.826 138.805 212.116 138.386 212.304 137.862C212.495 137.337 212.591 136.76 212.591 136.129C212.591 135.503 212.495 134.928 212.304 134.403C212.116 133.875 211.826 133.451 211.434 133.131C211.042 132.812 210.548 132.652 209.951 132.652C209.35 132.652 208.852 132.812 208.456 133.131C208.063 133.451 207.772 133.875 207.58 134.403C207.392 134.928 207.299 135.503 207.299 136.129C207.299 136.76 207.392 137.337 207.58 137.862C207.772 138.386 208.063 138.805 208.456 139.121C208.852 139.436 209.35 139.594 209.951 139.594ZM216.808 141V127.909H218.72V132.773H218.835C218.945 132.569 219.105 132.332 219.314 132.064C219.523 131.795 219.813 131.561 220.183 131.361C220.554 131.156 221.044 131.054 221.653 131.054C222.446 131.054 223.153 131.254 223.776 131.655C224.398 132.055 224.886 132.633 225.239 133.387C225.597 134.141 225.776 135.049 225.776 136.11C225.776 137.171 225.6 138.081 225.246 138.839C224.892 139.594 224.406 140.175 223.788 140.585C223.171 140.989 222.465 141.192 221.673 141.192C221.076 141.192 220.588 141.092 220.209 140.891C219.834 140.691 219.54 140.457 219.327 140.188C219.114 139.92 218.95 139.681 218.835 139.472H218.675V141H216.808ZM218.681 136.091C218.681 136.781 218.781 137.386 218.982 137.906C219.182 138.426 219.472 138.833 219.851 139.127C220.23 139.417 220.695 139.562 221.244 139.562C221.815 139.562 222.293 139.411 222.676 139.108C223.06 138.801 223.35 138.386 223.546 137.862C223.746 137.337 223.846 136.747 223.846 136.091C223.846 135.443 223.748 134.862 223.552 134.346C223.36 133.83 223.07 133.423 222.683 133.125C222.299 132.827 221.82 132.678 221.244 132.678C220.69 132.678 220.222 132.82 219.838 133.106C219.459 133.391 219.171 133.79 218.975 134.301C218.779 134.812 218.681 135.409 218.681 136.091Z" fill="#18191C"/>
<path d="M35.3072 175V164.818H38.7475C39.5463 164.818 40.1992 164.962 40.7063 165.251C41.2167 165.536 41.5946 165.922 41.8398 166.409C42.0851 166.896 42.2077 167.44 42.2077 168.04C42.2077 168.64 42.0851 169.185 41.8398 169.675C41.5979 170.166 41.2234 170.557 40.7163 170.849C40.2092 171.137 39.5595 171.281 38.7674 171.281H36.3015V170.188H38.7276C39.2745 170.188 39.7137 170.093 40.0451 169.904C40.3765 169.715 40.6168 169.46 40.766 169.138C40.9184 168.814 40.9947 168.447 40.9947 168.04C40.9947 167.632 40.9184 167.268 40.766 166.946C40.6168 166.625 40.3749 166.373 40.0401 166.19C39.7054 166.005 39.2612 165.912 38.7077 165.912H36.5401V175H35.3072ZM45.2081 170.406V175H44.0348V164.818H45.2081V168.557H45.3075C45.4865 168.162 45.755 167.849 46.1129 167.617C46.4742 167.382 46.9548 167.264 47.5547 167.264C48.075 167.264 48.5308 167.369 48.9219 167.577C49.313 167.783 49.6162 168.099 49.8317 168.527C50.0504 168.951 50.1598 169.491 50.1598 170.148V175H48.9865V170.227C48.9865 169.621 48.8291 169.152 48.5142 168.82C48.2027 168.486 47.7701 168.318 47.2166 168.318C46.8321 168.318 46.4875 168.399 46.1825 168.562C45.8809 168.724 45.6423 168.961 45.4666 169.273C45.2943 169.584 45.2081 169.962 45.2081 170.406ZM54.5534 175.179C54.0695 175.179 53.6304 175.088 53.236 174.906C52.8416 174.72 52.5283 174.453 52.2963 174.105C52.0643 173.754 51.9483 173.33 51.9483 172.832C51.9483 172.395 52.0345 172.04 52.2069 171.768C52.3792 171.493 52.6096 171.278 52.8979 171.122C53.1863 170.966 53.5044 170.85 53.8525 170.774C54.2038 170.695 54.5568 170.632 54.9114 170.585C55.3754 170.526 55.7516 170.481 56.04 170.451C56.3316 170.418 56.5437 170.363 56.6763 170.287C56.8122 170.211 56.8801 170.078 56.8801 169.889V169.849C56.8801 169.359 56.7459 168.978 56.4775 168.706C56.2123 168.434 55.8096 168.298 55.2694 168.298C54.7092 168.298 54.2701 168.421 53.9519 168.666C53.6337 168.911 53.41 169.173 53.2807 169.452L52.1671 169.054C52.3659 168.59 52.6311 168.229 52.9625 167.97C53.2973 167.708 53.6619 167.526 54.0563 167.423C54.454 167.317 54.8451 167.264 55.2296 167.264C55.4748 167.264 55.7566 167.294 56.0748 167.354C56.3962 167.41 56.7061 167.528 57.0044 167.707C57.306 167.886 57.5563 168.156 57.7551 168.517C57.954 168.878 58.0534 169.362 58.0534 169.969V175H56.8801V173.966H56.8205C56.7409 174.132 56.6084 174.309 56.4228 174.498C56.2372 174.687 55.9902 174.848 55.682 174.98C55.3738 175.113 54.9976 175.179 54.5534 175.179ZM54.7324 174.125C55.1964 174.125 55.5875 174.034 55.9057 173.852C56.2272 173.669 56.4692 173.434 56.6316 173.146C56.7973 172.857 56.8801 172.554 56.8801 172.236V171.162C56.8304 171.222 56.7211 171.276 56.552 171.326C56.3863 171.372 56.1941 171.414 55.9753 171.45C55.7599 171.483 55.5494 171.513 55.3439 171.54C55.1417 171.563 54.9777 171.583 54.8517 171.599C54.5468 171.639 54.2618 171.704 53.9966 171.793C53.7348 171.879 53.5227 172.01 53.3603 172.186C53.2012 172.358 53.1216 172.594 53.1216 172.892C53.1216 173.3 53.2724 173.608 53.574 173.817C53.879 174.022 54.2651 174.125 54.7324 174.125ZM65.604 169.074L64.5501 169.372C64.4838 169.196 64.386 169.026 64.2567 168.86C64.1308 168.691 63.9585 168.552 63.7397 168.442C63.521 168.333 63.2409 168.278 62.8995 168.278C62.4322 168.278 62.0427 168.386 61.7312 168.602C61.4229 168.814 61.2688 169.084 61.2688 169.412C61.2688 169.704 61.3749 169.934 61.587 170.103C61.7991 170.272 62.1306 170.413 62.5813 170.526L63.7148 170.804C64.3976 170.97 64.9064 171.223 65.2411 171.565C65.5759 171.903 65.7433 172.339 65.7433 172.872C65.7433 173.31 65.6173 173.701 65.3654 174.045C65.1168 174.39 64.7688 174.662 64.3214 174.861C63.8739 175.06 63.3536 175.159 62.7603 175.159C61.9814 175.159 61.3368 174.99 60.8263 174.652C60.3159 174.314 59.9928 173.82 59.8569 173.17L60.9705 172.892C61.0766 173.303 61.2771 173.611 61.5721 173.817C61.8704 174.022 62.2598 174.125 62.7404 174.125C63.2873 174.125 63.7215 174.009 64.043 173.777C64.3678 173.542 64.5302 173.26 64.5302 172.932C64.5302 172.667 64.4374 172.445 64.2518 172.266C64.0662 172.083 63.7811 171.947 63.3967 171.858L62.1239 171.56C61.4246 171.394 60.9109 171.137 60.5827 170.789C60.2579 170.438 60.0955 169.999 60.0955 169.472C60.0955 169.041 60.2165 168.66 60.4585 168.328C60.7037 167.997 61.0368 167.737 61.4577 167.548C61.882 167.359 62.3626 167.264 62.8995 167.264C63.6552 167.264 64.2485 167.43 64.6793 167.761C65.1135 168.093 65.4218 168.53 65.604 169.074ZM70.7111 175.159C69.9753 175.159 69.3406 174.997 68.807 174.672C68.2767 174.344 67.8674 173.886 67.579 173.3C67.294 172.71 67.1515 172.024 67.1515 171.241C67.1515 170.459 67.294 169.77 67.579 169.173C67.8674 168.573 68.2684 168.106 68.7821 167.771C69.2992 167.433 69.9024 167.264 70.5918 167.264C70.9895 167.264 71.3823 167.33 71.7701 167.463C72.1578 167.596 72.5108 167.811 72.829 168.109C73.1472 168.404 73.4007 168.795 73.5897 169.283C73.7786 169.77 73.873 170.37 73.873 171.082V171.58H67.9867V170.565H72.6799C72.6799 170.134 72.5937 169.75 72.4213 169.412C72.2523 169.074 72.0104 168.807 71.6955 168.612C71.3839 168.416 71.016 168.318 70.5918 168.318C70.1245 168.318 69.7201 168.434 69.3787 168.666C69.0407 168.895 68.7805 169.193 68.5982 169.561C68.4159 169.929 68.3248 170.323 68.3248 170.744V171.42C68.3248 171.997 68.4242 172.486 68.623 172.887C68.8252 173.285 69.1053 173.588 69.4632 173.797C69.8212 174.002 70.2372 174.105 70.7111 174.105C71.0194 174.105 71.2978 174.062 71.5463 173.976C71.7982 173.886 72.0153 173.754 72.1976 173.578C72.3799 173.399 72.5208 173.177 72.6202 172.912L73.7537 173.23C73.6344 173.615 73.4339 173.953 73.1522 174.244C72.8704 174.533 72.5224 174.758 72.1081 174.92C71.6938 175.08 71.2282 175.159 70.7111 175.159ZM76.8311 164.818V175H75.6578V164.818H76.8311ZM80.1534 164.818V175H78.9801V164.818H80.1534ZM87.1149 171.878V167.364H88.2882V175H87.1149V173.707H87.0353C86.8564 174.095 86.5779 174.425 86.2001 174.697C85.8223 174.965 85.345 175.099 84.7683 175.099C84.291 175.099 83.8668 174.995 83.4956 174.786C83.1243 174.574 82.8327 174.256 82.6206 173.832C82.4084 173.404 82.3024 172.866 82.3024 172.216V167.364H83.4757V172.136C83.4757 172.693 83.6315 173.137 83.943 173.469C84.2579 173.8 84.6589 173.966 85.1461 173.966C85.4378 173.966 85.7344 173.891 86.036 173.742C86.341 173.593 86.5962 173.364 86.8017 173.056C87.0105 172.748 87.1149 172.355 87.1149 171.878ZM95.8462 169.074L94.7923 169.372C94.726 169.196 94.6282 169.026 94.4989 168.86C94.373 168.691 94.2006 168.552 93.9819 168.442C93.7631 168.333 93.4831 168.278 93.1417 168.278C92.6744 168.278 92.2849 168.386 91.9734 168.602C91.6651 168.814 91.511 169.084 91.511 169.412C91.511 169.704 91.6171 169.934 91.8292 170.103C92.0413 170.272 92.3728 170.413 92.8235 170.526L93.957 170.804C94.6398 170.97 95.1486 171.223 95.4833 171.565C95.8181 171.903 95.9854 172.339 95.9854 172.872C95.9854 173.31 95.8595 173.701 95.6076 174.045C95.359 174.39 95.011 174.662 94.5636 174.861C94.1161 175.06 93.5958 175.159 93.0025 175.159C92.2236 175.159 91.579 174.99 91.0685 174.652C90.5581 174.314 90.235 173.82 90.0991 173.17L91.2127 172.892C91.3188 173.303 91.5193 173.611 91.8143 173.817C92.1126 174.022 92.502 174.125 92.9826 174.125C93.5295 174.125 93.9637 174.009 94.2852 173.777C94.61 173.542 94.7724 173.26 94.7724 172.932C94.7724 172.667 94.6796 172.445 94.494 172.266C94.3084 172.083 94.0233 171.947 93.6388 171.858L92.3661 171.56C91.6668 171.394 91.1531 171.137 90.8249 170.789C90.5001 170.438 90.3377 169.999 90.3377 169.472C90.3377 169.041 90.4587 168.66 90.7006 168.328C90.9459 167.997 91.279 167.737 91.6999 167.548C92.1242 167.359 92.6048 167.264 93.1417 167.264C93.8974 167.264 94.4906 167.43 94.9215 167.761C95.3557 168.093 95.6639 168.53 95.8462 169.074ZM106.899 177.864V173.827H106.8C106.714 173.966 106.591 174.142 106.432 174.354C106.273 174.562 106.046 174.75 105.751 174.915C105.456 175.078 105.063 175.159 104.573 175.159C103.936 175.159 103.374 174.998 102.887 174.677C102.4 174.352 102.019 173.895 101.744 173.305C101.469 172.711 101.331 172.01 101.331 171.202C101.331 170.4 101.469 169.704 101.744 169.114C102.019 168.524 102.402 168.068 102.892 167.746C103.383 167.425 103.95 167.264 104.593 167.264C105.09 167.264 105.482 167.347 105.771 167.513C106.062 167.675 106.285 167.861 106.437 168.07C106.593 168.275 106.714 168.444 106.8 168.577H106.939V167.364H108.073V177.864H106.899ZM104.732 174.105C105.202 174.105 105.6 173.982 105.925 173.737C106.25 173.489 106.497 173.146 106.666 172.708C106.835 172.267 106.919 171.759 106.919 171.182C106.919 170.612 106.836 170.113 106.671 169.685C106.505 169.254 106.26 168.92 105.935 168.681C105.61 168.439 105.209 168.318 104.732 168.318C104.235 168.318 103.82 168.446 103.489 168.701C103.161 168.953 102.914 169.296 102.748 169.73C102.586 170.161 102.504 170.645 102.504 171.182C102.504 171.725 102.587 172.219 102.753 172.663C102.922 173.104 103.171 173.455 103.499 173.717C103.83 173.976 104.241 174.105 104.732 174.105ZM115.033 171.878V167.364H116.206V175H115.033V173.707H114.953C114.774 174.095 114.496 174.425 114.118 174.697C113.74 174.965 113.263 175.099 112.686 175.099C112.209 175.099 111.785 174.995 111.414 174.786C111.042 174.574 110.751 174.256 110.539 173.832C110.326 173.404 110.22 172.866 110.22 172.216V167.364H111.394V172.136C111.394 172.693 111.549 173.137 111.861 173.469C112.176 173.8 112.577 173.966 113.064 173.966C113.356 173.966 113.652 173.891 113.954 173.742C114.259 173.593 114.514 173.364 114.72 173.056C114.928 172.748 115.033 172.355 115.033 171.878ZM118.355 175V167.364H119.528V175H118.355ZM118.952 166.091C118.723 166.091 118.526 166.013 118.36 165.857C118.198 165.701 118.116 165.514 118.116 165.295C118.116 165.077 118.198 164.889 118.36 164.734C118.526 164.578 118.723 164.5 118.952 164.5C119.18 164.5 119.376 164.578 119.538 164.734C119.704 164.889 119.787 165.077 119.787 165.295C119.787 165.514 119.704 165.701 119.538 165.857C119.376 166.013 119.18 166.091 118.952 166.091ZM127.086 169.074L126.032 169.372C125.966 169.196 125.868 169.026 125.739 168.86C125.613 168.691 125.441 168.552 125.222 168.442C125.003 168.333 124.723 168.278 124.382 168.278C123.915 168.278 123.525 168.386 123.214 168.602C122.905 168.814 122.751 169.084 122.751 169.412C122.751 169.704 122.857 169.934 123.069 170.103C123.282 170.272 123.613 170.413 124.064 170.526L125.197 170.804C125.88 170.97 126.389 171.223 126.724 171.565C127.058 171.903 127.226 172.339 127.226 172.872C127.226 173.31 127.1 173.701 126.848 174.045C126.599 174.39 126.251 174.662 125.804 174.861C125.356 175.06 124.836 175.159 124.243 175.159C123.464 175.159 122.819 174.99 122.309 174.652C121.798 174.314 121.475 173.82 121.339 173.17L122.453 172.892C122.559 173.303 122.76 173.611 123.055 173.817C123.353 174.022 123.742 174.125 124.223 174.125C124.77 174.125 125.204 174.009 125.525 173.777C125.85 173.542 126.013 173.26 126.013 172.932C126.013 172.667 125.92 172.445 125.734 172.266C125.549 172.083 125.264 171.947 124.879 171.858L123.606 171.56C122.907 171.394 122.393 171.137 122.065 170.789C121.74 170.438 121.578 169.999 121.578 169.472C121.578 169.041 121.699 168.66 121.941 168.328C122.186 167.997 122.519 167.737 122.94 167.548C123.364 167.359 123.845 167.264 124.382 167.264C125.138 167.264 125.731 167.43 126.162 167.761C126.596 168.093 126.904 168.53 127.086 169.074ZM136.131 175.159C135.395 175.159 134.761 174.997 134.227 174.672C133.697 174.344 133.287 173.886 132.999 173.3C132.714 172.71 132.571 172.024 132.571 171.241C132.571 170.459 132.714 169.77 132.999 169.173C133.287 168.573 133.688 168.106 134.202 167.771C134.719 167.433 135.322 167.264 136.012 167.264C136.409 167.264 136.802 167.33 137.19 167.463C137.578 167.596 137.931 167.811 138.249 168.109C138.567 168.404 138.821 168.795 139.01 169.283C139.199 169.77 139.293 170.37 139.293 171.082V171.58H133.407V170.565H138.1C138.1 170.134 138.014 169.75 137.841 169.412C137.672 169.074 137.43 168.807 137.115 168.612C136.804 168.416 136.436 168.318 136.012 168.318C135.544 168.318 135.14 168.434 134.799 168.666C134.461 168.895 134.2 169.193 134.018 169.561C133.836 169.929 133.745 170.323 133.745 170.744V171.42C133.745 171.997 133.844 172.486 134.043 172.887C134.245 173.285 134.525 173.588 134.883 173.797C135.241 174.002 135.657 174.105 136.131 174.105C136.439 174.105 136.718 174.062 136.966 173.976C137.218 173.886 137.435 173.754 137.618 173.578C137.8 173.399 137.941 173.177 138.04 172.912L139.174 173.23C139.054 173.615 138.854 173.953 138.572 174.244C138.29 174.533 137.942 174.758 137.528 174.92C137.114 175.08 136.648 175.159 136.131 175.159ZM142.251 164.818V175H141.078V164.818H142.251ZM147.602 175.159C146.866 175.159 146.231 174.997 145.698 174.672C145.167 174.344 144.758 173.886 144.47 173.3C144.185 172.71 144.042 172.024 144.042 171.241C144.042 170.459 144.185 169.77 144.47 169.173C144.758 168.573 145.159 168.106 145.673 167.771C146.19 167.433 146.793 167.264 147.482 167.264C147.88 167.264 148.273 167.33 148.661 167.463C149.048 167.596 149.401 167.811 149.72 168.109C150.038 168.404 150.291 168.795 150.48 169.283C150.669 169.77 150.764 170.37 150.764 171.082V171.58H144.877V170.565H149.57C149.57 170.134 149.484 169.75 149.312 169.412C149.143 169.074 148.901 168.807 148.586 168.612C148.275 168.416 147.907 168.318 147.482 168.318C147.015 168.318 146.611 168.434 146.269 168.666C145.931 168.895 145.671 169.193 145.489 169.561C145.307 169.929 145.215 170.323 145.215 170.744V171.42C145.215 171.997 145.315 172.486 145.514 172.887C145.716 173.285 145.996 173.588 146.354 173.797C146.712 174.002 147.128 174.105 147.602 174.105C147.91 174.105 148.188 174.062 148.437 173.976C148.689 173.886 148.906 173.754 149.088 173.578C149.271 173.399 149.411 173.177 149.511 172.912L150.644 173.23C150.525 173.615 150.325 173.953 150.043 174.244C149.761 174.533 149.413 174.758 148.999 174.92C148.584 175.08 148.119 175.159 147.602 175.159ZM152.548 175V167.364H153.722V175H152.548ZM153.145 166.091C152.916 166.091 152.719 166.013 152.553 165.857C152.391 165.701 152.31 165.514 152.31 165.295C152.31 165.077 152.391 164.889 152.553 164.734C152.719 164.578 152.916 164.5 153.145 164.5C153.374 164.5 153.569 164.578 153.732 164.734C153.897 164.889 153.98 165.077 153.98 165.295C153.98 165.514 153.897 165.701 153.732 165.857C153.569 166.013 153.374 166.091 153.145 166.091ZM159.271 167.364V168.358H155.155V167.364H159.271ZM156.388 175V166.31C156.388 165.872 156.491 165.508 156.696 165.216C156.902 164.924 157.168 164.705 157.496 164.56C157.825 164.414 158.171 164.341 158.536 164.341C158.824 164.341 159.059 164.364 159.241 164.411C159.424 164.457 159.56 164.5 159.649 164.54L159.311 165.554C159.251 165.534 159.169 165.509 159.062 165.479C158.96 165.45 158.824 165.435 158.655 165.435C158.267 165.435 157.987 165.532 157.815 165.728C157.646 165.924 157.561 166.21 157.561 166.588V175H156.388ZM163.803 175.159C163.067 175.159 162.432 174.997 161.899 174.672C161.368 174.344 160.959 173.886 160.671 173.3C160.386 172.71 160.243 172.024 160.243 171.241C160.243 170.459 160.386 169.77 160.671 169.173C160.959 168.573 161.36 168.106 161.874 167.771C162.391 167.433 162.994 167.264 163.684 167.264C164.081 167.264 164.474 167.33 164.862 167.463C165.25 167.596 165.603 167.811 165.921 168.109C166.239 168.404 166.493 168.795 166.681 169.283C166.87 169.77 166.965 170.37 166.965 171.082V171.58H161.078V170.565H165.772C165.772 170.134 165.685 169.75 165.513 169.412C165.344 169.074 165.102 168.807 164.787 168.612C164.476 168.416 164.108 168.318 163.684 168.318C163.216 168.318 162.812 168.434 162.471 168.666C162.132 168.895 161.872 169.193 161.69 169.561C161.508 169.929 161.417 170.323 161.417 170.744V171.42C161.417 171.997 161.516 172.486 161.715 172.887C161.917 173.285 162.197 173.588 162.555 173.797C162.913 174.002 163.329 174.105 163.803 174.105C164.111 174.105 164.39 174.062 164.638 173.976C164.89 173.886 165.107 173.754 165.289 173.578C165.472 173.399 165.613 173.177 165.712 172.912L166.846 173.23C166.726 173.615 166.526 173.953 166.244 174.244C165.962 174.533 165.614 174.758 165.2 174.92C164.786 175.08 164.32 175.159 163.803 175.159ZM169.923 170.406V175H168.75V167.364H169.883V168.557H169.983C170.162 168.169 170.433 167.857 170.798 167.622C171.163 167.384 171.633 167.264 172.21 167.264C172.727 167.264 173.179 167.37 173.567 167.582C173.955 167.791 174.257 168.109 174.472 168.537C174.687 168.961 174.795 169.498 174.795 170.148V175H173.622V170.227C173.622 169.627 173.466 169.16 173.154 168.825C172.843 168.487 172.415 168.318 171.872 168.318C171.497 168.318 171.163 168.399 170.868 168.562C170.576 168.724 170.346 168.961 170.176 169.273C170.007 169.584 169.923 169.962 169.923 170.406ZM179.823 175.159C179.186 175.159 178.624 174.998 178.137 174.677C177.65 174.352 177.269 173.895 176.994 173.305C176.719 172.711 176.581 172.01 176.581 171.202C176.581 170.4 176.719 169.704 176.994 169.114C177.269 168.524 177.652 168.068 178.142 167.746C178.633 167.425 179.2 167.264 179.843 167.264C180.34 167.264 180.732 167.347 181.021 167.513C181.312 167.675 181.535 167.861 181.687 168.07C181.843 168.275 181.964 168.444 182.05 168.577H182.149V164.818H183.323V175H182.189V173.827H182.05C181.964 173.966 181.841 174.142 181.682 174.354C181.523 174.562 181.296 174.75 181.001 174.915C180.706 175.078 180.313 175.159 179.823 175.159ZM179.982 174.105C180.452 174.105 180.85 173.982 181.175 173.737C181.5 173.489 181.747 173.146 181.916 172.708C182.085 172.267 182.169 171.759 182.169 171.182C182.169 170.612 182.086 170.113 181.921 169.685C181.755 169.254 181.51 168.92 181.185 168.681C180.86 168.439 180.459 168.318 179.982 168.318C179.485 168.318 179.07 168.446 178.739 168.701C178.411 168.953 178.164 169.296 177.998 169.73C177.836 170.161 177.754 170.645 177.754 171.182C177.754 171.725 177.837 172.219 178.003 172.663C178.172 173.104 178.421 173.455 178.749 173.717C179.08 173.976 179.491 174.105 179.982 174.105ZM192.774 175.159C192.038 175.159 191.403 174.997 190.869 174.672C190.339 174.344 189.93 173.886 189.642 173.3C189.356 172.71 189.214 172.024 189.214 171.241C189.214 170.459 189.356 169.77 189.642 169.173C189.93 168.573 190.331 168.106 190.845 167.771C191.362 167.433 191.965 167.264 192.654 167.264C193.052 167.264 193.445 167.33 193.833 167.463C194.22 167.596 194.573 167.811 194.892 168.109C195.21 168.404 195.463 168.795 195.652 169.283C195.841 169.77 195.936 170.37 195.936 171.082V171.58H190.049V170.565H194.742C194.742 170.134 194.656 169.75 194.484 169.412C194.315 169.074 194.073 168.807 193.758 168.612C193.446 168.416 193.079 168.318 192.654 168.318C192.187 168.318 191.783 168.434 191.441 168.666C191.103 168.895 190.843 169.193 190.661 169.561C190.478 169.929 190.387 170.323 190.387 170.744V171.42C190.387 171.997 190.487 172.486 190.686 172.887C190.888 173.285 191.168 173.588 191.526 173.797C191.884 174.002 192.3 174.105 192.774 174.105C193.082 174.105 193.36 174.062 193.609 173.976C193.861 173.886 194.078 173.754 194.26 173.578C194.442 173.399 194.583 173.177 194.683 172.912L195.816 173.23C195.697 173.615 195.496 173.953 195.215 174.244C194.933 174.533 194.585 174.758 194.171 174.92C193.756 175.08 193.291 175.159 192.774 175.159ZM198.39 167.364L200.22 170.486L202.049 167.364H203.402L200.936 171.182L203.402 175H202.049L200.22 172.037L198.39 175H197.038L199.464 171.182L197.038 167.364H198.39ZM205.931 175.08C205.686 175.08 205.475 174.992 205.3 174.816C205.124 174.64 205.036 174.43 205.036 174.185C205.036 173.939 205.124 173.729 205.3 173.553C205.475 173.378 205.686 173.29 205.931 173.29C206.176 173.29 206.387 173.378 206.562 173.553C206.738 173.729 206.826 173.939 206.826 174.185C206.826 174.347 206.784 174.496 206.702 174.632C206.622 174.768 206.514 174.877 206.378 174.96C206.246 175.04 206.097 175.08 205.931 175.08ZM213.028 164.818H214.499L217.96 173.27H218.079L221.539 164.818H223.011V175H221.857V167.264H221.758L218.576 175H217.463L214.281 167.264H214.181V175H213.028V164.818ZM228.426 175.159C227.737 175.159 227.132 174.995 226.612 174.667C226.094 174.339 225.69 173.88 225.398 173.29C225.11 172.7 224.966 172.01 224.966 171.222C224.966 170.426 225.11 169.732 225.398 169.138C225.69 168.545 226.094 168.085 226.612 167.756C227.132 167.428 227.737 167.264 228.426 167.264C229.116 167.264 229.719 167.428 230.236 167.756C230.756 168.085 231.161 168.545 231.449 169.138C231.741 169.732 231.886 170.426 231.886 171.222C231.886 172.01 231.741 172.7 231.449 173.29C231.161 173.88 230.756 174.339 230.236 174.667C229.719 174.995 229.116 175.159 228.426 175.159ZM228.426 174.105C228.95 174.105 229.381 173.971 229.719 173.702C230.057 173.434 230.307 173.081 230.469 172.643C230.632 172.206 230.713 171.732 230.713 171.222C230.713 170.711 230.632 170.236 230.469 169.795C230.307 169.354 230.057 168.998 229.719 168.726C229.381 168.454 228.95 168.318 228.426 168.318C227.902 168.318 227.472 168.454 227.134 168.726C226.795 168.998 226.545 169.354 226.383 169.795C226.22 170.236 226.139 170.711 226.139 171.222C226.139 171.732 226.22 172.206 226.383 172.643C226.545 173.081 226.795 173.434 227.134 173.702C227.472 173.971 227.902 174.105 228.426 174.105ZM233.677 175V167.364H234.811V168.517H234.89C235.03 168.139 235.282 167.833 235.646 167.597C236.011 167.362 236.422 167.244 236.879 167.244C236.965 167.244 237.073 167.246 237.202 167.249C237.331 167.253 237.429 167.258 237.496 167.264V168.457C237.456 168.447 237.365 168.433 237.222 168.413C237.083 168.389 236.935 168.378 236.78 168.378C236.408 168.378 236.077 168.456 235.785 168.612C235.497 168.764 235.268 168.976 235.099 169.248C234.934 169.516 234.851 169.823 234.851 170.168V175H233.677ZM239.045 175V164.818H240.219V168.577H240.318C240.404 168.444 240.524 168.275 240.676 168.07C240.832 167.861 241.054 167.675 241.342 167.513C241.634 167.347 242.028 167.264 242.526 167.264C243.169 167.264 243.735 167.425 244.226 167.746C244.716 168.068 245.099 168.524 245.374 169.114C245.649 169.704 245.787 170.4 245.787 171.202C245.787 172.01 245.649 172.711 245.374 173.305C245.099 173.895 244.718 174.352 244.231 174.677C243.744 174.998 243.182 175.159 242.545 175.159C242.055 175.159 241.662 175.078 241.367 174.915C241.072 174.75 240.845 174.562 240.686 174.354C240.527 174.142 240.404 173.966 240.318 173.827H240.179V175H239.045ZM240.199 171.182C240.199 171.759 240.283 172.267 240.452 172.708C240.621 173.146 240.868 173.489 241.193 173.737C241.518 173.982 241.916 174.105 242.386 174.105C242.877 174.105 243.286 173.976 243.614 173.717C243.946 173.455 244.194 173.104 244.36 172.663C244.529 172.219 244.614 171.725 244.614 171.182C244.614 170.645 244.531 170.161 244.365 169.73C244.203 169.296 243.956 168.953 243.624 168.701C243.296 168.446 242.884 168.318 242.386 168.318C241.909 168.318 241.508 168.439 241.183 168.681C240.858 168.92 240.613 169.254 240.447 169.685C240.282 170.113 240.199 170.612 240.199 171.182ZM247.582 175V167.364H248.755V175H247.582ZM248.178 166.091C247.95 166.091 247.752 166.013 247.587 165.857C247.424 165.701 247.343 165.514 247.343 165.295C247.343 165.077 247.424 164.889 247.587 164.734C247.752 164.578 247.95 164.5 248.178 164.5C248.407 164.5 248.603 164.578 248.765 164.734C248.931 164.889 249.013 165.077 249.013 165.295C249.013 165.514 248.931 165.701 248.765 165.857C248.603 166.013 248.407 166.091 248.178 166.091ZM256.015 170.406V175H254.841V167.364H255.975V168.557H256.074C256.253 168.169 256.525 167.857 256.89 167.622C257.254 167.384 257.725 167.264 258.302 167.264C258.819 167.264 259.271 167.37 259.659 167.582C260.047 167.791 260.348 168.109 260.564 168.537C260.779 168.961 260.887 169.498 260.887 170.148V175H259.714V170.227C259.714 169.627 259.558 169.16 259.246 168.825C258.935 168.487 258.507 168.318 257.964 168.318C257.589 168.318 257.254 168.399 256.959 168.562C256.668 168.724 256.437 168.961 256.268 169.273C256.099 169.584 256.015 169.962 256.015 170.406ZM266.233 175.159C265.497 175.159 264.862 174.997 264.328 174.672C263.798 174.344 263.389 173.886 263.1 173.3C262.815 172.71 262.673 172.024 262.673 171.241C262.673 170.459 262.815 169.77 263.1 169.173C263.389 168.573 263.79 168.106 264.304 167.771C264.821 167.433 265.424 167.264 266.113 167.264C266.511 167.264 266.904 167.33 267.292 167.463C267.679 167.596 268.032 167.811 268.35 168.109C268.669 168.404 268.922 168.795 269.111 169.283C269.3 169.77 269.395 170.37 269.395 171.082V171.58H263.508V170.565H268.201C268.201 170.134 268.115 169.75 267.943 169.412C267.774 169.074 267.532 168.807 267.217 168.612C266.905 168.416 266.538 168.318 266.113 168.318C265.646 168.318 265.242 168.434 264.9 168.666C264.562 168.895 264.302 169.193 264.12 169.561C263.937 169.929 263.846 170.323 263.846 170.744V171.42C263.846 171.997 263.946 172.486 264.145 172.887C264.347 173.285 264.627 173.588 264.985 173.797C265.343 174.002 265.759 174.105 266.233 174.105C266.541 174.105 266.819 174.062 267.068 173.976C267.32 173.886 267.537 173.754 267.719 173.578C267.901 173.399 268.042 173.177 268.142 172.912L269.275 173.23C269.156 173.615 268.955 173.953 268.674 174.244C268.392 174.533 268.044 174.758 267.63 174.92C267.215 175.08 266.75 175.159 266.233 175.159ZM274.282 175.159C273.566 175.159 272.949 174.99 272.432 174.652C271.915 174.314 271.517 173.848 271.239 173.255C270.961 172.662 270.821 171.984 270.821 171.222C270.821 170.446 270.964 169.762 271.249 169.168C271.537 168.572 271.938 168.106 272.452 167.771C272.969 167.433 273.572 167.264 274.262 167.264C274.799 167.264 275.283 167.364 275.713 167.562C276.144 167.761 276.497 168.04 276.772 168.398C277.047 168.756 277.218 169.173 277.284 169.651H276.111C276.022 169.303 275.823 168.994 275.515 168.726C275.21 168.454 274.799 168.318 274.282 168.318C273.824 168.318 273.423 168.437 273.078 168.676C272.737 168.911 272.47 169.245 272.278 169.675C272.089 170.103 271.995 170.605 271.995 171.182C271.995 171.772 272.087 172.286 272.273 172.723C272.462 173.161 272.727 173.5 273.069 173.742C273.413 173.984 273.818 174.105 274.282 174.105C274.587 174.105 274.863 174.052 275.112 173.946C275.36 173.84 275.571 173.688 275.743 173.489C275.916 173.29 276.038 173.051 276.111 172.773H277.284C277.218 173.223 277.054 173.629 276.792 173.991C276.534 174.349 276.191 174.634 275.763 174.846C275.339 175.055 274.845 175.159 274.282 175.159ZM118.263 187.364V188.358H114.146V187.364H118.263ZM115.379 195V186.31C115.379 185.872 115.482 185.508 115.687 185.216C115.893 184.924 116.16 184.705 116.488 184.56C116.816 184.414 117.162 184.341 117.527 184.341C117.815 184.341 118.05 184.364 118.233 184.411C118.415 184.457 118.551 184.5 118.64 184.54L118.302 185.554C118.243 185.534 118.16 185.509 118.054 185.479C117.951 185.45 117.815 185.435 117.646 185.435C117.258 185.435 116.978 185.532 116.806 185.728C116.637 185.924 116.552 186.21 116.552 186.588V195H115.379ZM119.907 195V187.364H121.04V188.517H121.12C121.259 188.139 121.511 187.833 121.876 187.597C122.24 187.362 122.651 187.244 123.109 187.244C123.195 187.244 123.302 187.246 123.432 187.249C123.561 187.253 123.659 187.258 123.725 187.264V188.457C123.685 188.447 123.594 188.433 123.452 188.413C123.312 188.389 123.165 188.378 123.009 188.378C122.638 188.378 122.306 188.456 122.015 188.612C121.726 188.764 121.498 188.976 121.329 189.248C121.163 189.516 121.08 189.823 121.08 190.168V195H119.907ZM125.116 195V187.364H126.289V195H125.116ZM125.712 186.091C125.484 186.091 125.287 186.013 125.121 185.857C124.958 185.701 124.877 185.514 124.877 185.295C124.877 185.077 124.958 184.889 125.121 184.734C125.287 184.578 125.484 184.5 125.712 184.5C125.941 184.5 126.137 184.578 126.299 184.734C126.465 184.889 126.548 185.077 126.548 185.295C126.548 185.514 126.465 185.701 126.299 185.857C126.137 186.013 125.941 186.091 125.712 186.091ZM129.611 190.406V195H128.438V187.364H129.572V188.557H129.671C129.85 188.169 130.122 187.857 130.486 187.622C130.851 187.384 131.322 187.264 131.898 187.264C132.415 187.264 132.868 187.37 133.256 187.582C133.643 187.791 133.945 188.109 134.16 188.537C134.376 188.961 134.484 189.498 134.484 190.148V195H133.31V190.227C133.31 189.627 133.155 189.16 132.843 188.825C132.531 188.487 132.104 188.318 131.56 188.318C131.186 188.318 130.851 188.399 130.556 188.562C130.264 188.724 130.034 188.961 129.865 189.273C129.696 189.584 129.611 189.962 129.611 190.406ZM139.71 198.023C139.143 198.023 138.656 197.95 138.248 197.804C137.841 197.661 137.501 197.473 137.229 197.237C136.961 197.005 136.747 196.757 136.588 196.491L137.522 195.835C137.629 195.974 137.763 196.134 137.925 196.312C138.088 196.495 138.31 196.652 138.591 196.785C138.876 196.921 139.249 196.989 139.71 196.989C140.326 196.989 140.835 196.839 141.236 196.541C141.637 196.243 141.838 195.776 141.838 195.139V193.588H141.738C141.652 193.727 141.53 193.9 141.37 194.105C141.215 194.307 140.989 194.488 140.694 194.647C140.403 194.803 140.008 194.881 139.511 194.881C138.895 194.881 138.341 194.735 137.851 194.443C137.363 194.152 136.977 193.727 136.692 193.17C136.41 192.614 136.27 191.937 136.27 191.142C136.27 190.36 136.407 189.679 136.682 189.099C136.957 188.515 137.34 188.065 137.831 187.746C138.321 187.425 138.888 187.264 139.531 187.264C140.028 187.264 140.423 187.347 140.714 187.513C141.009 187.675 141.235 187.861 141.39 188.07C141.549 188.275 141.672 188.444 141.758 188.577H141.878V187.364H143.011V195.219C143.011 195.875 142.862 196.409 142.564 196.82C142.269 197.234 141.871 197.537 141.37 197.729C140.873 197.925 140.32 198.023 139.71 198.023ZM139.67 193.827C140.141 193.827 140.539 193.719 140.863 193.504C141.188 193.288 141.435 192.978 141.604 192.574C141.773 192.17 141.858 191.686 141.858 191.122C141.858 190.572 141.775 190.086 141.609 189.665C141.443 189.245 141.198 188.915 140.873 188.676C140.549 188.437 140.147 188.318 139.67 188.318C139.173 188.318 138.759 188.444 138.427 188.696C138.099 188.948 137.852 189.286 137.687 189.71C137.524 190.134 137.443 190.605 137.443 191.122C137.443 191.652 137.526 192.121 137.691 192.529C137.861 192.933 138.109 193.252 138.437 193.484C138.769 193.712 139.18 193.827 139.67 193.827ZM145.159 195V187.364H146.332V195H145.159ZM145.755 186.091C145.527 186.091 145.33 186.013 145.164 185.857C145.001 185.701 144.92 185.514 144.92 185.295C144.92 185.077 145.001 184.889 145.164 184.734C145.33 184.578 145.527 184.5 145.755 184.5C145.984 184.5 146.18 184.578 146.342 184.734C146.508 184.889 146.591 185.077 146.591 185.295C146.591 185.514 146.508 185.701 146.342 185.857C146.18 186.013 145.984 186.091 145.755 186.091ZM149.654 184.818V195H148.481V184.818H149.654ZM152.977 184.818V195H151.803V184.818H152.977ZM157.373 195.179C156.889 195.179 156.45 195.088 156.055 194.906C155.661 194.72 155.348 194.453 155.116 194.105C154.884 193.754 154.768 193.33 154.768 192.832C154.768 192.395 154.854 192.04 155.026 191.768C155.199 191.493 155.429 191.278 155.717 191.122C156.006 190.966 156.324 190.85 156.672 190.774C157.023 190.695 157.376 190.632 157.731 190.585C158.195 190.526 158.571 190.481 158.859 190.451C159.151 190.418 159.363 190.363 159.496 190.287C159.632 190.211 159.699 190.078 159.699 189.889V189.849C159.699 189.359 159.565 188.978 159.297 188.706C159.032 188.434 158.629 188.298 158.089 188.298C157.529 188.298 157.089 188.421 156.771 188.666C156.453 188.911 156.229 189.173 156.1 189.452L154.986 189.054C155.185 188.59 155.45 188.229 155.782 187.97C156.117 187.708 156.481 187.526 156.876 187.423C157.273 187.317 157.664 187.264 158.049 187.264C158.294 187.264 158.576 187.294 158.894 187.354C159.216 187.41 159.525 187.528 159.824 187.707C160.125 187.886 160.376 188.156 160.574 188.517C160.773 188.878 160.873 189.362 160.873 189.969V195H159.699V193.966H159.64C159.56 194.132 159.428 194.309 159.242 194.498C159.056 194.687 158.81 194.848 158.501 194.98C158.193 195.113 157.817 195.179 157.373 195.179ZM157.552 194.125C158.016 194.125 158.407 194.034 158.725 193.852C159.047 193.669 159.289 193.434 159.451 193.146C159.617 192.857 159.699 192.554 159.699 192.236V191.162C159.65 191.222 159.54 191.276 159.371 191.326C159.206 191.372 159.013 191.414 158.795 191.45C158.579 191.483 158.369 191.513 158.163 191.54C157.961 191.563 157.797 191.583 157.671 191.599C157.366 191.639 157.081 191.704 156.816 191.793C156.554 191.879 156.342 192.01 156.18 192.186C156.021 192.358 155.941 192.594 155.941 192.892C155.941 193.3 156.092 193.608 156.393 193.817C156.698 194.022 157.084 194.125 157.552 194.125ZM168.125 190.406V195H166.952V187.364H168.085V188.557H168.185C168.364 188.169 168.636 187.857 169 187.622C169.365 187.384 169.835 187.264 170.412 187.264C170.929 187.264 171.381 187.37 171.769 187.582C172.157 187.791 172.459 188.109 172.674 188.537C172.89 188.961 172.997 189.498 172.997 190.148V195H171.824V190.227C171.824 189.627 171.668 189.16 171.357 188.825C171.045 188.487 170.618 188.318 170.074 188.318C169.699 188.318 169.365 188.399 169.07 188.562C168.778 188.724 168.548 188.961 168.379 189.273C168.21 189.584 168.125 189.962 168.125 190.406ZM175.141 195V187.364H176.315V195H175.141ZM175.738 186.091C175.509 186.091 175.312 186.013 175.146 185.857C174.984 185.701 174.903 185.514 174.903 185.295C174.903 185.077 174.984 184.889 175.146 184.734C175.312 184.578 175.509 184.5 175.738 184.5C175.967 184.5 176.162 184.578 176.324 184.734C176.49 184.889 176.573 185.077 176.573 185.295C176.573 185.514 176.49 185.701 176.324 185.857C176.162 186.013 175.967 186.091 175.738 186.091ZM178.623 195V184.818H179.796V188.577H179.895C179.982 188.444 180.101 188.275 180.253 188.07C180.409 187.861 180.631 187.675 180.919 187.513C181.211 187.347 181.606 187.264 182.103 187.264C182.746 187.264 183.312 187.425 183.803 187.746C184.294 188.068 184.676 188.524 184.951 189.114C185.227 189.704 185.364 190.4 185.364 191.202C185.364 192.01 185.227 192.711 184.951 193.305C184.676 193.895 184.295 194.352 183.808 194.677C183.321 194.998 182.759 195.159 182.123 195.159C181.632 195.159 181.239 195.078 180.944 194.915C180.649 194.75 180.422 194.562 180.263 194.354C180.104 194.142 179.982 193.966 179.895 193.827H179.756V195H178.623ZM179.776 191.182C179.776 191.759 179.861 192.267 180.03 192.708C180.199 193.146 180.446 193.489 180.77 193.737C181.095 193.982 181.493 194.105 181.964 194.105C182.454 194.105 182.863 193.976 183.191 193.717C183.523 193.455 183.772 193.104 183.937 192.663C184.106 192.219 184.191 191.725 184.191 191.182C184.191 190.645 184.108 190.161 183.942 189.73C183.78 189.296 183.533 188.953 183.201 188.701C182.873 188.446 182.461 188.318 181.964 188.318C181.486 188.318 181.085 188.439 180.76 188.681C180.436 188.92 180.19 189.254 180.025 189.685C179.859 190.113 179.776 190.612 179.776 191.182ZM188.332 190.406V195H187.159V184.818H188.332V188.557H188.432C188.611 188.162 188.879 187.849 189.237 187.617C189.598 187.382 190.079 187.264 190.679 187.264C191.199 187.264 191.655 187.369 192.046 187.577C192.437 187.783 192.74 188.099 192.956 188.527C193.174 188.951 193.284 189.491 193.284 190.148V195H192.111V190.227C192.111 189.621 191.953 189.152 191.638 188.82C191.327 188.486 190.894 188.318 190.341 188.318C189.956 188.318 189.611 188.399 189.307 188.562C189.005 188.724 188.766 188.961 188.591 189.273C188.418 189.584 188.332 189.962 188.332 190.406ZM196.285 195.08C196.04 195.08 195.83 194.992 195.654 194.816C195.478 194.64 195.391 194.43 195.391 194.185C195.391 193.939 195.478 193.729 195.654 193.553C195.83 193.378 196.04 193.29 196.285 193.29C196.531 193.29 196.741 193.378 196.917 193.553C197.092 193.729 197.18 193.939 197.18 194.185C197.18 194.347 197.139 194.496 197.056 194.632C196.976 194.768 196.869 194.877 196.733 194.96C196.6 195.04 196.451 195.08 196.285 195.08Z" fill="#767F8C"/>
<defs>
<clipPath id="clip0_1647_32009">
<rect width="32" height="32" fill="white" transform="translate(140 44)"/>
</clipPath>
</defs>
</svg>
