<svg width="312" height="224" viewBox="0 0 312 224" fill="none" xmlns="http://www.w3.org/2000/svg">
<rect x="120" y="24" width="72" height="72" rx="36" fill="#0A65CC"/>
<g clip-path="url(#clip0_1647_31997)">
<path opacity="0.2" d="M150 59.9981C150 58.0202 150.587 56.0868 151.685 54.4423C152.784 52.7979 154.346 51.5161 156.173 50.7593C158 50.0024 160.011 49.8043 161.951 50.1902C163.891 50.5761 165.673 51.5285 167.071 52.927C168.47 54.3255 169.422 56.1073 169.808 58.0471C170.194 59.987 169.996 61.9976 169.239 63.8249C168.482 65.6521 167.2 67.2139 165.556 68.3127C163.911 69.4116 161.978 69.9981 160 69.9981H149C148.007 69.9971 147.026 69.785 146.122 69.3758C145.217 68.9667 144.41 68.3698 143.754 67.6249C143.098 66.88 142.608 66.004 142.316 65.0551C142.024 64.1063 141.938 63.1062 142.062 62.1213C142.186 61.1364 142.519 60.1892 143.037 59.3426C143.555 58.496 144.248 57.7694 145.069 57.2109C145.889 56.6524 146.82 56.2749 147.797 56.1033C148.775 55.9318 149.778 55.9702 150.74 56.216" fill="#F1F2F4"/>
<path d="M151.999 69.998H148.999C148.007 69.9971 147.025 69.785 146.121 69.3758C145.217 68.9667 144.409 68.3698 143.753 67.6249C143.097 66.88 142.607 66.004 142.315 65.0551C142.023 64.1063 141.937 63.1062 142.061 62.1213C142.186 61.1364 142.518 60.1892 143.036 59.3426C143.555 58.496 144.247 57.7694 145.068 57.2109C145.889 56.6524 146.819 56.2749 147.797 56.1033C148.774 55.9318 149.777 55.9702 150.739 56.216" stroke="#F1F2F4" stroke-width="2" stroke-linecap="round" stroke-linejoin="round"/>
<path d="M149.999 59.998C149.999 58.4136 150.376 56.8518 151.098 55.4415C151.82 54.0312 152.867 52.8126 154.153 51.8862C155.438 50.9599 156.925 50.3522 158.492 50.1133C160.058 49.8744 161.659 50.0112 163.162 50.5123C164.665 51.0134 166.027 51.8644 167.137 52.9954C168.247 54.1264 169.072 55.5048 169.544 57.0172C170.017 58.5296 170.123 60.1326 169.855 61.6941C169.586 63.2557 168.95 64.731 168 65.9986" stroke="#F1F2F4" stroke-width="2" stroke-linecap="round" stroke-linejoin="round"/>
<path d="M154.757 64.2408L158.999 59.998L163.242 64.2408" stroke="#F1F2F4" stroke-width="2" stroke-linecap="round" stroke-linejoin="round"/>
<path d="M158.999 69.998V59.998" stroke="#F1F2F4" stroke-width="2" stroke-linecap="round" stroke-linejoin="round"/>
</g>
<path d="M82.8438 127.909H84.8254V136.519C84.8254 137.435 84.6102 138.247 84.1798 138.955C83.7494 139.658 83.1443 140.212 82.3644 140.616C81.5846 141.017 80.6705 141.217 79.6222 141.217C78.5782 141.217 77.6663 141.017 76.8865 140.616C76.1066 140.212 75.5015 139.658 75.0711 138.955C74.6407 138.247 74.4255 137.435 74.4255 136.519V127.909H76.4007V136.359C76.4007 136.952 76.5306 137.478 76.7906 137.938C77.0548 138.398 77.4276 138.761 77.9092 139.025C78.3907 139.285 78.9617 139.415 79.6222 139.415C80.287 139.415 80.8602 139.285 81.3417 139.025C81.8275 138.761 82.1982 138.398 82.4539 137.938C82.7139 137.478 82.8438 136.952 82.8438 136.359V127.909ZM87.5436 144.682V131.182H89.4101V132.773H89.5699C89.6807 132.569 89.8405 132.332 90.0493 132.064C90.2581 131.795 90.5479 131.561 90.9186 131.361C91.2893 131.156 91.7794 131.054 92.3888 131.054C93.1814 131.054 93.8888 131.254 94.5109 131.655C95.1331 132.055 95.621 132.633 95.9747 133.387C96.3327 134.141 96.5116 135.049 96.5116 136.11C96.5116 137.171 96.3348 138.081 95.9811 138.839C95.6274 139.594 95.1416 140.175 94.5237 140.585C93.9058 140.989 93.2006 141.192 92.4079 141.192C91.8113 141.192 91.3234 141.092 90.9442 140.891C90.5692 140.691 90.2751 140.457 90.0621 140.188C89.849 139.92 89.6849 139.681 89.5699 139.472H89.4548V144.682H87.5436ZM89.4165 136.091C89.4165 136.781 89.5166 137.386 89.7169 137.906C89.9172 138.426 90.2069 138.833 90.5862 139.127C90.9655 139.417 91.43 139.562 91.9797 139.562C92.5507 139.562 93.028 139.411 93.4115 139.108C93.795 138.801 94.0848 138.386 94.2808 137.862C94.4811 137.337 94.5812 136.747 94.5812 136.091C94.5812 135.443 94.4832 134.862 94.2872 134.346C94.0954 133.83 93.8057 133.423 93.4179 133.125C93.0344 132.827 92.555 132.678 91.9797 132.678C91.4257 132.678 90.9569 132.82 90.5734 133.106C90.1942 133.391 89.9065 133.79 89.7105 134.301C89.5145 134.812 89.4165 135.409 89.4165 136.091ZM100.564 127.909V141H98.653V127.909H100.564ZM107.271 141.198C106.351 141.198 105.547 140.987 104.861 140.565C104.175 140.143 103.642 139.553 103.263 138.795C102.884 138.036 102.694 137.15 102.694 136.136C102.694 135.117 102.884 134.227 103.263 133.464C103.642 132.701 104.175 132.109 104.861 131.687C105.547 131.265 106.351 131.054 107.271 131.054C108.191 131.054 108.995 131.265 109.681 131.687C110.367 132.109 110.9 132.701 111.279 133.464C111.658 134.227 111.848 135.117 111.848 136.136C111.848 137.15 111.658 138.036 111.279 138.795C110.9 139.553 110.367 140.143 109.681 140.565C108.995 140.987 108.191 141.198 107.271 141.198ZM107.277 139.594C107.874 139.594 108.368 139.436 108.76 139.121C109.152 138.805 109.442 138.386 109.63 137.862C109.821 137.337 109.917 136.76 109.917 136.129C109.917 135.503 109.821 134.928 109.63 134.403C109.442 133.875 109.152 133.451 108.76 133.131C108.368 132.812 107.874 132.652 107.277 132.652C106.677 132.652 106.178 132.812 105.782 133.131C105.39 133.451 105.098 133.875 104.906 134.403C104.718 134.928 104.625 135.503 104.625 136.129C104.625 136.76 104.718 137.337 104.906 137.862C105.098 138.386 105.39 138.805 105.782 139.121C106.178 139.436 106.677 139.594 107.277 139.594ZM116.838 141.217C116.216 141.217 115.654 141.102 115.151 140.872C114.648 140.638 114.25 140.299 113.956 139.856C113.666 139.413 113.521 138.869 113.521 138.226C113.521 137.672 113.627 137.216 113.84 136.858C114.054 136.5 114.341 136.217 114.703 136.008C115.066 135.799 115.47 135.641 115.918 135.535C116.365 135.428 116.821 135.347 117.286 135.292C117.874 135.224 118.351 135.168 118.718 135.126C119.084 135.079 119.35 135.004 119.517 134.902C119.683 134.8 119.766 134.634 119.766 134.403V134.359C119.766 133.8 119.608 133.368 119.293 133.061C118.982 132.754 118.517 132.601 117.899 132.601C117.256 132.601 116.749 132.744 116.378 133.029C116.012 133.31 115.758 133.624 115.617 133.969L113.821 133.56C114.034 132.963 114.345 132.482 114.755 132.115C115.168 131.744 115.643 131.476 116.18 131.31C116.717 131.139 117.282 131.054 117.874 131.054C118.266 131.054 118.681 131.101 119.12 131.195C119.563 131.284 119.977 131.45 120.36 131.693C120.748 131.936 121.066 132.283 121.313 132.735C121.56 133.183 121.684 133.764 121.684 134.48V141H119.817V139.658H119.74C119.617 139.905 119.431 140.148 119.184 140.386C118.937 140.625 118.62 140.823 118.232 140.981C117.844 141.138 117.38 141.217 116.838 141.217ZM117.254 139.683C117.782 139.683 118.234 139.579 118.609 139.37C118.988 139.161 119.276 138.888 119.472 138.552C119.672 138.211 119.772 137.847 119.772 137.459V136.193C119.704 136.261 119.572 136.325 119.376 136.385C119.184 136.44 118.965 136.489 118.718 136.532C118.47 136.57 118.23 136.607 117.995 136.641C117.761 136.67 117.565 136.696 117.407 136.717C117.036 136.764 116.698 136.843 116.391 136.954C116.088 137.065 115.845 137.224 115.662 137.433C115.483 137.638 115.394 137.911 115.394 138.251C115.394 138.724 115.568 139.082 115.918 139.325C116.267 139.564 116.713 139.683 117.254 139.683ZM127.905 141.192C127.112 141.192 126.405 140.989 125.782 140.585C125.165 140.175 124.679 139.594 124.325 138.839C123.976 138.081 123.801 137.171 123.801 136.11C123.801 135.049 123.978 134.141 124.331 133.387C124.689 132.633 125.179 132.055 125.802 131.655C126.424 131.254 127.129 131.054 127.917 131.054C128.527 131.054 129.017 131.156 129.388 131.361C129.763 131.561 130.052 131.795 130.257 132.064C130.466 132.332 130.628 132.569 130.743 132.773H130.858V127.909H132.769V141H130.902V139.472H130.743C130.628 139.681 130.461 139.92 130.244 140.188C130.031 140.457 129.737 140.691 129.362 140.891C128.987 141.092 128.501 141.192 127.905 141.192ZM128.326 139.562C128.876 139.562 129.341 139.417 129.72 139.127C130.103 138.833 130.393 138.426 130.589 137.906C130.79 137.386 130.89 136.781 130.89 136.091C130.89 135.409 130.792 134.812 130.596 134.301C130.4 133.79 130.112 133.391 129.733 133.106C129.353 132.82 128.885 132.678 128.326 132.678C127.751 132.678 127.272 132.827 126.888 133.125C126.505 133.423 126.215 133.83 126.019 134.346C125.827 134.862 125.731 135.443 125.731 136.091C125.731 136.747 125.829 137.337 126.025 137.862C126.221 138.386 126.511 138.801 126.895 139.108C127.282 139.411 127.76 139.562 128.326 139.562ZM151.287 132.166H149.292C149.216 131.74 149.073 131.365 148.864 131.041C148.655 130.717 148.4 130.442 148.097 130.217C147.794 129.991 147.456 129.82 147.081 129.705C146.71 129.59 146.316 129.533 145.898 129.533C145.144 129.533 144.468 129.722 143.872 130.102C143.28 130.481 142.811 131.037 142.466 131.77C142.125 132.503 141.954 133.398 141.954 134.455C141.954 135.52 142.125 136.419 142.466 137.152C142.811 137.885 143.282 138.439 143.878 138.814C144.475 139.189 145.146 139.376 145.892 139.376C146.305 139.376 146.697 139.321 147.068 139.21C147.443 139.095 147.782 138.927 148.084 138.705C148.387 138.484 148.642 138.213 148.851 137.893C149.064 137.57 149.211 137.199 149.292 136.781L151.287 136.788C151.18 137.431 150.973 138.023 150.667 138.565C150.364 139.102 149.974 139.566 149.497 139.958C149.024 140.346 148.483 140.646 147.873 140.859C147.264 141.072 146.599 141.179 145.879 141.179C144.745 141.179 143.736 140.911 142.849 140.374C141.963 139.832 141.264 139.059 140.753 138.053C140.245 137.048 139.992 135.848 139.992 134.455C139.992 133.057 140.248 131.857 140.759 130.856C141.27 129.85 141.969 129.079 142.856 128.542C143.742 128.001 144.75 127.73 145.879 127.73C146.574 127.73 147.221 127.83 147.822 128.031C148.427 128.227 148.971 128.516 149.452 128.9C149.934 129.279 150.332 129.744 150.647 130.293C150.963 130.839 151.176 131.463 151.287 132.166ZM154.794 127.909L158.438 138.571H158.585L162.228 127.909H164.363L159.652 141H157.37L152.659 127.909H154.794ZM169.803 127.295L165.584 142.969H163.877L168.096 127.295H169.803ZM171.58 141V127.909H176.246C177.26 127.909 178.102 128.084 178.771 128.433C179.444 128.783 179.947 129.266 180.279 129.884C180.612 130.498 180.778 131.207 180.778 132.013C180.778 132.814 180.61 133.519 180.273 134.129C179.941 134.734 179.438 135.205 178.764 135.541C178.095 135.878 177.254 136.046 176.24 136.046H172.705V134.346H176.061C176.7 134.346 177.22 134.254 177.62 134.071C178.025 133.888 178.321 133.621 178.509 133.272C178.696 132.923 178.79 132.503 178.79 132.013C178.79 131.518 178.694 131.09 178.502 130.728C178.315 130.366 178.019 130.089 177.614 129.897C177.213 129.701 176.687 129.603 176.035 129.603H173.555V141H171.58ZM178.042 135.094L181.277 141H179.027L175.856 135.094H178.042ZM187.136 141.198C186.169 141.198 185.336 140.991 184.637 140.578C183.943 140.161 183.406 139.575 183.026 138.82C182.651 138.062 182.464 137.173 182.464 136.155C182.464 135.149 182.651 134.263 183.026 133.496C183.406 132.729 183.934 132.13 184.612 131.7C185.293 131.269 186.09 131.054 187.002 131.054C187.556 131.054 188.093 131.146 188.613 131.329C189.133 131.512 189.6 131.8 190.013 132.192C190.426 132.584 190.752 133.093 190.991 133.719C191.229 134.342 191.349 135.098 191.349 135.989V136.666H183.544V135.234H189.476C189.476 134.732 189.374 134.286 189.169 133.898C188.965 133.506 188.677 133.197 188.306 132.972C187.94 132.746 187.509 132.633 187.015 132.633C186.478 132.633 186.009 132.765 185.609 133.029C185.212 133.289 184.906 133.63 184.688 134.052C184.475 134.469 184.369 134.923 184.369 135.413V136.532C184.369 137.188 184.484 137.746 184.714 138.207C184.948 138.667 185.274 139.018 185.692 139.261C186.109 139.5 186.597 139.619 187.156 139.619C187.518 139.619 187.848 139.568 188.146 139.466C188.445 139.359 188.703 139.202 188.92 138.993C189.137 138.784 189.303 138.526 189.418 138.219L191.227 138.545C191.082 139.078 190.823 139.545 190.448 139.945C190.077 140.342 189.61 140.651 189.048 140.872C188.489 141.089 187.852 141.198 187.136 141.198ZM200.827 133.579L199.094 133.886C199.022 133.664 198.907 133.453 198.749 133.253C198.596 133.053 198.387 132.888 198.123 132.761C197.859 132.633 197.528 132.569 197.132 132.569C196.591 132.569 196.139 132.69 195.777 132.933C195.415 133.172 195.234 133.481 195.234 133.86C195.234 134.188 195.355 134.452 195.598 134.653C195.841 134.853 196.233 135.017 196.774 135.145L198.334 135.503C199.237 135.712 199.91 136.033 200.354 136.468C200.797 136.903 201.018 137.467 201.018 138.162C201.018 138.75 200.848 139.274 200.507 139.734C200.17 140.19 199.699 140.548 199.094 140.808C198.494 141.068 197.797 141.198 197.004 141.198C195.905 141.198 195.008 140.964 194.313 140.495C193.619 140.022 193.192 139.351 193.035 138.482L194.882 138.2C194.997 138.682 195.234 139.046 195.592 139.293C195.949 139.536 196.416 139.658 196.991 139.658C197.618 139.658 198.119 139.528 198.494 139.268C198.869 139.004 199.056 138.682 199.056 138.303C199.056 137.996 198.941 137.738 198.711 137.529C198.485 137.32 198.138 137.163 197.669 137.056L196.007 136.692C195.091 136.483 194.413 136.151 193.974 135.695C193.54 135.239 193.322 134.661 193.322 133.962C193.322 133.383 193.484 132.876 193.808 132.441C194.132 132.006 194.579 131.668 195.15 131.425C195.722 131.178 196.376 131.054 197.113 131.054C198.174 131.054 199.009 131.284 199.619 131.744C200.228 132.2 200.631 132.812 200.827 133.579ZM209.339 136.928V131.182H211.257V141H209.378V139.3H209.275C209.049 139.824 208.687 140.261 208.189 140.61C207.694 140.955 207.079 141.128 206.341 141.128C205.711 141.128 205.152 140.989 204.667 140.712C204.185 140.431 203.806 140.016 203.529 139.466C203.256 138.916 203.12 138.237 203.12 137.427V131.182H205.031V137.197C205.031 137.866 205.216 138.398 205.587 138.795C205.958 139.191 206.439 139.389 207.032 139.389C207.39 139.389 207.745 139.3 208.099 139.121C208.457 138.942 208.753 138.671 208.988 138.309C209.226 137.947 209.343 137.487 209.339 136.928ZM213.825 141V131.182H215.659V132.78H215.781C215.985 132.239 216.32 131.817 216.784 131.514C217.249 131.207 217.805 131.054 218.453 131.054C219.109 131.054 219.659 131.207 220.102 131.514C220.549 131.821 220.88 132.243 221.093 132.78H221.195C221.429 132.256 221.802 131.838 222.313 131.527C222.825 131.212 223.434 131.054 224.142 131.054C225.032 131.054 225.759 131.333 226.321 131.891C226.888 132.45 227.171 133.291 227.171 134.416V141H225.26V134.595C225.26 133.93 225.079 133.449 224.717 133.151C224.355 132.852 223.922 132.703 223.419 132.703C222.797 132.703 222.313 132.895 221.968 133.278C221.623 133.658 221.451 134.146 221.451 134.742V141H219.546V134.474C219.546 133.941 219.38 133.513 219.047 133.189C218.715 132.865 218.282 132.703 217.75 132.703C217.387 132.703 217.053 132.799 216.746 132.991C216.443 133.178 216.198 133.44 216.011 133.777C215.828 134.114 215.736 134.504 215.736 134.947V141H213.825ZM233.965 141.198C232.997 141.198 232.164 140.991 231.465 140.578C230.771 140.161 230.234 139.575 229.854 138.82C229.479 138.062 229.292 137.173 229.292 136.155C229.292 135.149 229.479 134.263 229.854 133.496C230.234 132.729 230.762 132.13 231.44 131.7C232.122 131.269 232.918 131.054 233.83 131.054C234.384 131.054 234.921 131.146 235.441 131.329C235.961 131.512 236.428 131.8 236.841 132.192C237.254 132.584 237.58 133.093 237.819 133.719C238.058 134.342 238.177 135.098 238.177 135.989V136.666H230.372V135.234H236.304C236.304 134.732 236.202 134.286 235.997 133.898C235.793 133.506 235.505 133.197 235.134 132.972C234.768 132.746 234.337 132.633 233.843 132.633C233.306 132.633 232.837 132.765 232.437 133.029C232.041 133.289 231.734 133.63 231.516 134.052C231.303 134.469 231.197 134.923 231.197 135.413V136.532C231.197 137.188 231.312 137.746 231.542 138.207C231.776 138.667 232.102 139.018 232.52 139.261C232.938 139.5 233.426 139.619 233.984 139.619C234.346 139.619 234.676 139.568 234.975 139.466C235.273 139.359 235.531 139.202 235.748 138.993C235.965 138.784 236.131 138.526 236.247 138.219L238.055 138.545C237.911 139.078 237.651 139.545 237.276 139.945C236.905 140.342 236.438 140.651 235.876 140.872C235.318 141.089 234.68 141.198 233.965 141.198Z" fill="#18191C"/>
<path d="M36.3773 168H35.1444C35.0714 167.645 34.9438 167.334 34.7615 167.065C34.5826 166.797 34.3638 166.571 34.1053 166.389C33.8501 166.204 33.5667 166.064 33.2551 165.972C32.9436 165.879 32.6188 165.832 32.2807 165.832C31.6642 165.832 31.1058 165.988 30.6053 166.3C30.1081 166.611 29.7121 167.07 29.4171 167.677C29.1254 168.283 28.9796 169.027 28.9796 169.909C28.9796 170.791 29.1254 171.535 29.4171 172.141C29.7121 172.748 30.1081 173.207 30.6053 173.518C31.1058 173.83 31.6642 173.986 32.2807 173.986C32.6188 173.986 32.9436 173.939 33.2551 173.847C33.5667 173.754 33.8501 173.616 34.1053 173.434C34.3638 173.248 34.5826 173.021 34.7615 172.753C34.9438 172.481 35.0714 172.17 35.1444 171.818H36.3773C36.2845 172.339 36.1155 172.804 35.8702 173.215C35.6249 173.626 35.32 173.976 34.9554 174.264C34.5909 174.549 34.1815 174.766 33.7275 174.915C33.2767 175.065 32.7944 175.139 32.2807 175.139C31.4123 175.139 30.6401 174.927 29.964 174.503C29.2878 174.079 28.7559 173.475 28.3681 172.693C27.9803 171.911 27.7864 170.983 27.7864 169.909C27.7864 168.835 27.9803 167.907 28.3681 167.125C28.7559 166.343 29.2878 165.74 29.964 165.315C30.6401 164.891 31.4123 164.679 32.2807 164.679C32.7944 164.679 33.2767 164.754 33.7275 164.903C34.1815 165.052 34.5909 165.271 34.9554 165.559C35.32 165.844 35.6249 166.192 35.8702 166.603C36.1155 167.011 36.2845 167.476 36.3773 168ZM43.0231 171.878V167.364H44.1964V175H43.0231V173.707H42.9435C42.7646 174.095 42.4862 174.425 42.1083 174.697C41.7305 174.965 41.2532 175.099 40.6765 175.099C40.1992 175.099 39.775 174.995 39.4038 174.786C39.0326 174.574 38.7409 174.256 38.5288 173.832C38.3166 173.404 38.2106 172.866 38.2106 172.216V167.364H39.3839V172.136C39.3839 172.693 39.5397 173.137 39.8512 173.469C40.1661 173.8 40.5671 173.966 41.0543 173.966C41.346 173.966 41.6426 173.891 41.9442 173.742C42.2492 173.593 42.5044 173.364 42.7099 173.056C42.9187 172.748 43.0231 172.355 43.0231 171.878ZM46.3453 175V167.364H47.4789V168.517H47.5584C47.6976 168.139 47.9495 167.833 48.3141 167.597C48.6787 167.362 49.0897 167.244 49.5471 167.244C49.6332 167.244 49.7409 167.246 49.8702 167.249C49.9995 167.253 50.0972 167.258 50.1635 167.264V168.457C50.1238 168.447 50.0326 168.433 49.8901 168.413C49.7509 168.389 49.6034 168.378 49.4476 168.378C49.0764 168.378 48.745 168.456 48.4533 168.612C48.165 168.764 47.9363 168.976 47.7672 169.248C47.6015 169.516 47.5186 169.823 47.5186 170.168V175H46.3453ZM53.8015 175.179C53.3176 175.179 52.8784 175.088 52.484 174.906C52.0896 174.72 51.7764 174.453 51.5444 174.105C51.3124 173.754 51.1964 173.33 51.1964 172.832C51.1964 172.395 51.2826 172.04 51.4549 171.768C51.6272 171.493 51.8576 171.278 52.146 171.122C52.4343 170.966 52.7525 170.85 53.1005 170.774C53.4518 170.695 53.8048 170.632 54.1594 170.585C54.6235 170.526 54.9996 170.481 55.288 170.451C55.5797 170.418 55.7918 170.363 55.9244 170.287C56.0603 170.211 56.1282 170.078 56.1282 169.889V169.849C56.1282 169.359 55.994 168.978 55.7255 168.706C55.4603 168.434 55.0576 168.298 54.5174 168.298C53.9573 168.298 53.5181 168.421 53.1999 168.666C52.8817 168.911 52.658 169.173 52.5288 169.452L51.4151 169.054C51.614 168.59 51.8791 168.229 52.2106 167.97C52.5453 167.708 52.9099 167.526 53.3043 167.423C53.7021 167.317 54.0932 167.264 54.4776 167.264C54.7229 167.264 55.0046 167.294 55.3228 167.354C55.6443 167.41 55.9542 167.528 56.2525 167.707C56.5541 167.886 56.8043 168.156 57.0032 168.517C57.2021 168.878 57.3015 169.362 57.3015 169.969V175H56.1282V173.966H56.0685C55.989 174.132 55.8564 174.309 55.6708 174.498C55.4852 174.687 55.2383 174.848 54.93 174.98C54.6218 175.113 54.2456 175.179 53.8015 175.179ZM53.9805 174.125C54.4445 174.125 54.8356 174.034 55.1538 173.852C55.4753 173.669 55.7172 173.434 55.8796 173.146C56.0453 172.857 56.1282 172.554 56.1282 172.236V171.162C56.0785 171.222 55.9691 171.276 55.8001 171.326C55.6344 171.372 55.4421 171.414 55.2234 171.45C55.0079 171.483 54.7975 171.513 54.592 171.54C54.3898 171.563 54.2257 171.583 54.0998 171.599C53.7949 171.639 53.5098 171.704 53.2447 171.793C52.9828 171.879 52.7707 172.01 52.6083 172.186C52.4492 172.358 52.3697 172.594 52.3697 172.892C52.3697 173.3 52.5205 173.608 52.8221 173.817C53.127 174.022 53.5131 174.125 53.9805 174.125ZM59.6021 175V164.818H60.7754V168.577H60.8748C60.961 168.444 61.0803 168.275 61.2328 168.07C61.3886 167.861 61.6106 167.675 61.899 167.513C62.1906 167.347 62.585 167.264 63.0822 167.264C63.7252 167.264 64.292 167.425 64.7825 167.746C65.273 168.068 65.6558 168.524 65.9309 169.114C66.206 169.704 66.3436 170.4 66.3436 171.202C66.3436 172.01 66.206 172.711 65.9309 173.305C65.6558 173.895 65.2747 174.352 64.7875 174.677C64.3002 174.998 63.7385 175.159 63.1021 175.159C62.6116 175.159 62.2188 175.078 61.9238 174.915C61.6288 174.75 61.4018 174.562 61.2427 174.354C61.0836 174.142 60.961 173.966 60.8748 173.827H60.7356V175H59.6021ZM60.7555 171.182C60.7555 171.759 60.84 172.267 61.0091 172.708C61.1781 173.146 61.425 173.489 61.7498 173.737C62.0746 173.982 62.4724 174.105 62.943 174.105C63.4335 174.105 63.8429 173.976 64.171 173.717C64.5024 173.455 64.751 173.104 64.9167 172.663C65.0858 172.219 65.1703 171.725 65.1703 171.182C65.1703 170.645 65.0874 170.161 64.9217 169.73C64.7593 169.296 64.5124 168.953 64.1809 168.701C63.8528 168.446 63.4402 168.318 62.943 168.318C62.4657 168.318 62.0647 168.439 61.7399 168.681C61.4151 168.92 61.1698 169.254 61.0041 169.685C60.8384 170.113 60.7555 170.612 60.7555 171.182ZM68.1383 175V167.364H69.3116V175H68.1383ZM68.7349 166.091C68.5062 166.091 68.309 166.013 68.1433 165.857C67.9809 165.701 67.8997 165.514 67.8997 165.295C67.8997 165.077 67.9809 164.889 68.1433 164.734C68.309 164.578 68.5062 164.5 68.7349 164.5C68.9636 164.5 69.1592 164.578 69.3216 164.734C69.4873 164.889 69.5701 165.077 69.5701 165.295C69.5701 165.514 69.4873 165.701 69.3216 165.857C69.1592 166.013 68.9636 166.091 68.7349 166.091ZM74.7816 167.364V168.358H70.8242V167.364H74.7816ZM71.9776 165.534H73.1509V172.812C73.1509 173.144 73.199 173.393 73.2951 173.558C73.3945 173.721 73.5205 173.83 73.6729 173.886C73.8287 173.939 73.9928 173.966 74.1651 173.966C74.2944 173.966 74.4005 173.959 74.4833 173.946C74.5662 173.929 74.6325 173.916 74.6822 173.906L74.9208 174.96C74.8413 174.99 74.7302 175.02 74.5877 175.05C74.4452 175.083 74.2646 175.099 74.0458 175.099C73.7144 175.099 73.3896 175.028 73.0714 174.886C72.7565 174.743 72.4947 174.526 72.2859 174.234C72.0804 173.943 71.9776 173.575 71.9776 173.131V165.534ZM81.359 171.878V167.364H82.5323V175H81.359V173.707H81.2795C81.1005 174.095 80.8221 174.425 80.4442 174.697C80.0664 174.965 79.5891 175.099 79.0124 175.099C78.5352 175.099 78.1109 174.995 77.7397 174.786C77.3685 174.574 77.0768 174.256 76.8647 173.832C76.6526 173.404 76.5465 172.866 76.5465 172.216V167.364H77.7198V172.136C77.7198 172.693 77.8756 173.137 78.1871 173.469C78.502 173.8 78.9031 173.966 79.3903 173.966C79.6819 173.966 79.9786 173.891 80.2802 173.742C80.5851 173.593 80.8403 173.364 81.0458 173.056C81.2546 172.748 81.359 172.355 81.359 171.878ZM84.6813 175V167.364H85.8148V168.517H85.8944C86.0336 168.139 86.2855 167.833 86.65 167.597C87.0146 167.362 87.4256 167.244 87.883 167.244C87.9692 167.244 88.0769 167.246 88.2061 167.249C88.3354 167.253 88.4332 167.258 88.4995 167.264V168.457C88.4597 168.447 88.3685 168.433 88.226 168.413C88.0868 168.389 87.9393 168.378 87.7836 168.378C87.4123 168.378 87.0809 168.456 86.7892 168.612C86.5009 168.764 86.2722 168.976 86.1032 169.248C85.9374 169.516 85.8546 169.823 85.8546 170.168V175H84.6813ZM99.2369 169.074L98.1829 169.372C98.1166 169.196 98.0188 169.026 97.8896 168.86C97.7636 168.691 97.5913 168.552 97.3725 168.442C97.1538 168.333 96.8737 168.278 96.5323 168.278C96.065 168.278 95.6755 168.386 95.364 168.602C95.0558 168.814 94.9016 169.084 94.9016 169.412C94.9016 169.704 95.0077 169.934 95.2198 170.103C95.4319 170.272 95.7634 170.413 96.2141 170.526L97.3477 170.804C98.0304 170.97 98.5392 171.223 98.8739 171.565C99.2087 171.903 99.3761 172.339 99.3761 172.872C99.3761 173.31 99.2501 173.701 98.9982 174.045C98.7496 174.39 98.4016 174.662 97.9542 174.861C97.5067 175.06 96.9864 175.159 96.3931 175.159C95.6142 175.159 94.9696 174.99 94.4592 174.652C93.9487 174.314 93.6256 173.82 93.4897 173.17L94.6033 172.892C94.7094 173.303 94.9099 173.611 95.2049 173.817C95.5032 174.022 95.8926 174.125 96.3732 174.125C96.9201 174.125 97.3543 174.009 97.6758 173.777C98.0006 173.542 98.163 173.26 98.163 172.932C98.163 172.667 98.0702 172.445 97.8846 172.266C97.699 172.083 97.4139 171.947 97.0295 171.858L95.7567 171.56C95.0574 171.394 94.5437 171.137 94.2156 170.789C93.8907 170.438 93.7283 169.999 93.7283 169.472C93.7283 169.041 93.8493 168.66 94.0913 168.328C94.3365 167.997 94.6696 167.737 95.0906 167.548C95.5148 167.359 95.9954 167.264 96.5323 167.264C97.288 167.264 97.8813 167.43 98.3121 167.761C98.7463 168.093 99.0546 168.53 99.2369 169.074ZM101.142 175V167.364H102.316V175H101.142ZM101.739 166.091C101.51 166.091 101.313 166.013 101.147 165.857C100.985 165.701 100.904 165.514 100.904 165.295C100.904 165.077 100.985 164.889 101.147 164.734C101.313 164.578 101.51 164.5 101.739 164.5C101.968 164.5 102.163 164.578 102.325 164.734C102.491 164.889 102.574 165.077 102.574 165.295C102.574 165.514 102.491 165.701 102.325 165.857C102.163 166.013 101.968 166.091 101.739 166.091ZM107.786 167.364V168.358H103.828V167.364H107.786ZM104.982 165.534H106.155V172.812C106.155 173.144 106.203 173.393 106.299 173.558C106.398 173.721 106.524 173.83 106.677 173.886C106.833 173.939 106.997 173.966 107.169 173.966C107.298 173.966 107.404 173.959 107.487 173.946C107.57 173.929 107.636 173.916 107.686 173.906L107.925 174.96C107.845 174.99 107.734 175.02 107.592 175.05C107.449 175.083 107.268 175.099 107.05 175.099C106.718 175.099 106.393 175.028 106.075 174.886C105.76 174.743 105.499 174.526 105.29 174.234C105.084 173.943 104.982 173.575 104.982 173.131V165.534ZM115.735 175.179C115.251 175.179 114.812 175.088 114.418 174.906C114.023 174.72 113.71 174.453 113.478 174.105C113.246 173.754 113.13 173.33 113.13 172.832C113.13 172.395 113.216 172.04 113.388 171.768C113.561 171.493 113.791 171.278 114.08 171.122C114.368 170.966 114.686 170.85 115.034 170.774C115.385 170.695 115.738 170.632 116.093 170.585C116.557 170.526 116.933 170.481 117.222 170.451C117.513 170.418 117.725 170.363 117.858 170.287C117.994 170.211 118.062 170.078 118.062 169.889V169.849C118.062 169.359 117.928 168.978 117.659 168.706C117.394 168.434 116.991 168.298 116.451 168.298C115.891 168.298 115.452 168.421 115.134 168.666C114.815 168.911 114.592 169.173 114.462 169.452L113.349 169.054C113.548 168.59 113.813 168.229 114.144 167.97C114.479 167.708 114.844 167.526 115.238 167.423C115.636 167.317 116.027 167.264 116.411 167.264C116.656 167.264 116.938 167.294 117.256 167.354C117.578 167.41 117.888 167.528 118.186 167.707C118.488 167.886 118.738 168.156 118.937 168.517C119.136 168.878 119.235 169.362 119.235 169.969V175H118.062V173.966H118.002C117.923 174.132 117.79 174.309 117.604 174.498C117.419 174.687 117.172 174.848 116.864 174.98C116.555 175.113 116.179 175.179 115.735 175.179ZM115.914 174.125C116.378 174.125 116.769 174.034 117.087 173.852C117.409 173.669 117.651 173.434 117.813 173.146C117.979 172.857 118.062 172.554 118.062 172.236V171.162C118.012 171.222 117.903 171.276 117.734 171.326C117.568 171.372 117.376 171.414 117.157 171.45C116.942 171.483 116.731 171.513 116.526 171.54C116.323 171.563 116.159 171.583 116.033 171.599C115.728 171.639 115.443 171.704 115.178 171.793C114.916 171.879 114.704 172.01 114.542 172.186C114.383 172.358 114.303 172.594 114.303 172.892C114.303 173.3 114.454 173.608 114.756 173.817C115.061 174.022 115.447 174.125 115.914 174.125ZM121.377 175V167.364H122.51V168.557H122.61C122.769 168.149 123.026 167.833 123.38 167.607C123.735 167.379 124.161 167.264 124.658 167.264C125.162 167.264 125.581 167.379 125.916 167.607C126.254 167.833 126.517 168.149 126.706 168.557H126.786C126.981 168.162 127.275 167.849 127.666 167.617C128.057 167.382 128.526 167.264 129.073 167.264C129.755 167.264 130.314 167.478 130.748 167.906C131.182 168.33 131.399 168.991 131.399 169.889V175H130.226V169.889C130.226 169.326 130.072 168.923 129.764 168.681C129.455 168.439 129.093 168.318 128.675 168.318C128.138 168.318 127.722 168.481 127.427 168.805C127.132 169.127 126.985 169.535 126.985 170.028V175H125.791V169.77C125.791 169.336 125.651 168.986 125.369 168.721C125.087 168.452 124.724 168.318 124.28 168.318C123.975 168.318 123.69 168.399 123.425 168.562C123.163 168.724 122.951 168.95 122.789 169.238C122.629 169.523 122.55 169.853 122.55 170.227V175H121.377ZM136.746 175.159C136.01 175.159 135.376 174.997 134.842 174.672C134.312 174.344 133.903 173.886 133.614 173.3C133.329 172.71 133.187 172.024 133.187 171.241C133.187 170.459 133.329 169.77 133.614 169.173C133.903 168.573 134.304 168.106 134.817 167.771C135.334 167.433 135.938 167.264 136.627 167.264C137.025 167.264 137.417 167.33 137.805 167.463C138.193 167.596 138.546 167.811 138.864 168.109C139.182 168.404 139.436 168.795 139.625 169.283C139.814 169.77 139.908 170.37 139.908 171.082V171.58H134.022V170.565H138.715C138.715 170.134 138.629 169.75 138.456 169.412C138.287 169.074 138.046 168.807 137.731 168.612C137.419 168.416 137.051 168.318 136.627 168.318C136.16 168.318 135.755 168.434 135.414 168.666C135.076 168.895 134.816 169.193 134.633 169.561C134.451 169.929 134.36 170.323 134.36 170.744V171.42C134.36 171.997 134.459 172.486 134.658 172.887C134.86 173.285 135.14 173.588 135.498 173.797C135.856 174.002 136.272 174.105 136.746 174.105C137.055 174.105 137.333 174.062 137.581 173.976C137.833 173.886 138.05 173.754 138.233 173.578C138.415 173.399 138.556 173.177 138.655 172.912L139.789 173.23C139.67 173.615 139.469 173.953 139.187 174.244C138.906 174.533 138.558 174.758 138.143 174.92C137.729 175.08 137.263 175.159 136.746 175.159ZM145.014 167.364V168.358H141.057V167.364H145.014ZM142.21 165.534H143.383V172.812C143.383 173.144 143.431 173.393 143.528 173.558C143.627 173.721 143.753 173.83 143.905 173.886C144.061 173.939 144.225 173.966 144.398 173.966C144.527 173.966 144.633 173.959 144.716 173.946C144.799 173.929 144.865 173.916 144.915 173.906L145.153 174.96C145.074 174.99 144.963 175.02 144.82 175.05C144.678 175.083 144.497 175.099 144.278 175.099C143.947 175.099 143.622 175.028 143.304 174.886C142.989 174.743 142.727 174.526 142.518 174.234C142.313 173.943 142.21 173.575 142.21 173.131V165.534ZM150.716 175V167.364H151.85V168.557H151.949C152.108 168.149 152.365 167.833 152.72 167.607C153.075 167.379 153.501 167.264 153.998 167.264C154.501 167.264 154.921 167.379 155.256 167.607C155.594 167.833 155.857 168.149 156.046 168.557H156.126C156.321 168.162 156.614 167.849 157.006 167.617C157.397 167.382 157.866 167.264 158.412 167.264C159.095 167.264 159.654 167.478 160.088 167.906C160.522 168.33 160.739 168.991 160.739 169.889V175H159.566V169.889C159.566 169.326 159.412 168.923 159.104 168.681C158.795 168.439 158.432 168.318 158.015 168.318C157.478 168.318 157.062 168.481 156.767 168.805C156.472 169.127 156.324 169.535 156.324 170.028V175H155.131V169.77C155.131 169.336 154.99 168.986 154.709 168.721C154.427 168.452 154.064 168.318 153.62 168.318C153.315 168.318 153.03 168.399 152.765 168.562C152.503 168.724 152.291 168.95 152.128 169.238C151.969 169.523 151.89 169.853 151.89 170.227V175H150.716ZM165.132 175.179C164.648 175.179 164.209 175.088 163.814 174.906C163.42 174.72 163.106 174.453 162.874 174.105C162.642 173.754 162.526 173.33 162.526 172.832C162.526 172.395 162.613 172.04 162.785 171.768C162.957 171.493 163.188 171.278 163.476 171.122C163.764 170.966 164.083 170.85 164.431 170.774C164.782 170.695 165.135 170.632 165.49 170.585C165.954 170.526 166.33 170.481 166.618 170.451C166.91 170.418 167.122 170.363 167.254 170.287C167.39 170.211 167.458 170.078 167.458 169.889V169.849C167.458 169.359 167.324 168.978 167.056 168.706C166.79 168.434 166.388 168.298 165.847 168.298C165.287 168.298 164.848 168.421 164.53 168.666C164.212 168.911 163.988 169.173 163.859 169.452L162.745 169.054C162.944 168.59 163.209 168.229 163.541 167.97C163.875 167.708 164.24 167.526 164.634 167.423C165.032 167.317 165.423 167.264 165.808 167.264C166.053 167.264 166.335 167.294 166.653 167.354C166.974 167.41 167.284 167.528 167.583 167.707C167.884 167.886 168.134 168.156 168.333 168.517C168.532 168.878 168.632 169.362 168.632 169.969V175H167.458V173.966H167.399C167.319 174.132 167.186 174.309 167.001 174.498C166.815 174.687 166.568 174.848 166.26 174.98C165.952 175.113 165.576 175.179 165.132 175.179ZM165.311 174.125C165.775 174.125 166.166 174.034 166.484 173.852C166.805 173.669 167.047 173.434 167.21 173.146C167.375 172.857 167.458 172.554 167.458 172.236V171.162C167.409 171.222 167.299 171.276 167.13 171.326C166.964 171.372 166.772 171.414 166.553 171.45C166.338 171.483 166.128 171.513 165.922 171.54C165.72 171.563 165.556 171.583 165.43 171.599C165.125 171.639 164.84 171.704 164.575 171.793C164.313 171.879 164.101 172.01 163.938 172.186C163.779 172.358 163.7 172.594 163.7 172.892C163.7 173.3 163.851 173.608 164.152 173.817C164.457 174.022 164.843 174.125 165.311 174.125ZM171.648 167.364L173.478 170.486L175.307 167.364H176.659L174.194 171.182L176.659 175H175.307L173.478 172.037L171.648 175H170.296L172.722 171.182L170.296 167.364H171.648ZM178.334 175V167.364H179.507V175H178.334ZM178.93 166.091C178.702 166.091 178.504 166.013 178.339 165.857C178.176 165.701 178.095 165.514 178.095 165.295C178.095 165.077 178.176 164.889 178.339 164.734C178.504 164.578 178.702 164.5 178.93 164.5C179.159 164.5 179.354 164.578 179.517 164.734C179.683 164.889 179.765 165.077 179.765 165.295C179.765 165.514 179.683 165.701 179.517 165.857C179.354 166.013 179.159 166.091 178.93 166.091ZM181.656 175V167.364H182.789V168.557H182.889C183.048 168.149 183.305 167.833 183.659 167.607C184.014 167.379 184.44 167.264 184.937 167.264C185.441 167.264 185.86 167.379 186.195 167.607C186.533 167.833 186.797 168.149 186.985 168.557H187.065C187.261 168.162 187.554 167.849 187.945 167.617C188.336 167.382 188.805 167.264 189.352 167.264C190.035 167.264 190.593 167.478 191.027 167.906C191.462 168.33 191.679 168.991 191.679 169.889V175H190.505V169.889C190.505 169.326 190.351 168.923 190.043 168.681C189.735 168.439 189.372 168.318 188.954 168.318C188.417 168.318 188.001 168.481 187.706 168.805C187.411 169.127 187.264 169.535 187.264 170.028V175H186.071V169.77C186.071 169.336 185.93 168.986 185.648 168.721C185.366 168.452 185.003 168.318 184.559 168.318C184.254 168.318 183.969 168.399 183.704 168.562C183.442 168.724 183.23 168.95 183.068 169.238C182.909 169.523 182.829 169.853 182.829 170.227V175H181.656ZM198.636 171.878V167.364H199.81V175H198.636V173.707H198.557C198.378 174.095 198.099 174.425 197.722 174.697C197.344 174.965 196.866 175.099 196.29 175.099C195.812 175.099 195.388 174.995 195.017 174.786C194.646 174.574 194.354 174.256 194.142 173.832C193.93 173.404 193.824 172.866 193.824 172.216V167.364H194.997V172.136C194.997 172.693 195.153 173.137 195.464 173.469C195.779 173.8 196.18 173.966 196.668 173.966C196.959 173.966 197.256 173.891 197.558 173.742C197.862 173.593 198.118 173.364 198.323 173.056C198.532 172.748 198.636 172.355 198.636 171.878ZM207.368 169.074L206.314 169.372C206.247 169.196 206.15 169.026 206.02 168.86C205.894 168.691 205.722 168.552 205.503 168.442C205.285 168.333 205.005 168.278 204.663 168.278C204.196 168.278 203.806 168.386 203.495 168.602C203.187 168.814 203.032 169.084 203.032 169.412C203.032 169.704 203.139 169.934 203.351 170.103C203.563 170.272 203.894 170.413 204.345 170.526L205.479 170.804C206.161 170.97 206.67 171.223 207.005 171.565C207.34 171.903 207.507 172.339 207.507 172.872C207.507 173.31 207.381 173.701 207.129 174.045C206.881 174.39 206.532 174.662 206.085 174.861C205.638 175.06 205.117 175.159 204.524 175.159C203.745 175.159 203.1 174.99 202.59 174.652C202.08 174.314 201.756 173.82 201.621 173.17L202.734 172.892C202.84 173.303 203.041 173.611 203.336 173.817C203.634 174.022 204.023 174.125 204.504 174.125C205.051 174.125 205.485 174.009 205.807 173.777C206.131 173.542 206.294 173.26 206.294 172.932C206.294 172.667 206.201 172.445 206.015 172.266C205.83 172.083 205.545 171.947 205.16 171.858L203.888 171.56C203.188 171.394 202.675 171.137 202.346 170.789C202.022 170.438 201.859 169.999 201.859 169.472C201.859 169.041 201.98 168.66 202.222 168.328C202.467 167.997 202.8 167.737 203.221 167.548C203.646 167.359 204.126 167.264 204.663 167.264C205.419 167.264 206.012 167.43 206.443 167.761C206.877 168.093 207.185 168.53 207.368 169.074ZM214.384 164.818V175H213.211V164.818H214.384ZM216.533 175V167.364H217.706V175H216.533ZM217.129 166.091C216.901 166.091 216.704 166.013 216.538 165.857C216.375 165.701 216.294 165.514 216.294 165.295C216.294 165.077 216.375 164.889 216.538 164.734C216.704 164.578 216.901 164.5 217.129 164.5C217.358 164.5 217.554 164.578 217.716 164.734C217.882 164.889 217.965 165.077 217.965 165.295C217.965 165.514 217.882 165.701 217.716 165.857C217.554 166.013 217.358 166.091 217.129 166.091ZM222.938 178.023C222.371 178.023 221.884 177.95 221.476 177.804C221.068 177.661 220.728 177.473 220.457 177.237C220.188 177.005 219.974 176.757 219.815 176.491L220.75 175.835C220.856 175.974 220.99 176.134 221.153 176.312C221.315 176.495 221.537 176.652 221.819 176.785C222.104 176.921 222.477 176.989 222.938 176.989C223.554 176.989 224.063 176.839 224.464 176.541C224.865 176.243 225.065 175.776 225.065 175.139V173.588H224.966C224.88 173.727 224.757 173.9 224.598 174.105C224.442 174.307 224.217 174.488 223.922 174.647C223.63 174.803 223.236 174.881 222.739 174.881C222.122 174.881 221.569 174.735 221.078 174.443C220.591 174.152 220.205 173.727 219.92 173.17C219.638 172.614 219.497 171.937 219.497 171.142C219.497 170.36 219.635 169.679 219.91 169.099C220.185 168.515 220.568 168.065 221.058 167.746C221.549 167.425 222.116 167.264 222.759 167.264C223.256 167.264 223.65 167.347 223.942 167.513C224.237 167.675 224.462 167.861 224.618 168.07C224.777 168.275 224.9 168.444 224.986 168.577H225.105V167.364H226.239V175.219C226.239 175.875 226.089 176.409 225.791 176.82C225.496 177.234 225.098 177.537 224.598 177.729C224.101 177.925 223.547 178.023 222.938 178.023ZM222.898 173.827C223.368 173.827 223.766 173.719 224.091 173.504C224.416 173.288 224.663 172.978 224.832 172.574C225.001 172.17 225.085 171.686 225.085 171.122C225.085 170.572 225.002 170.086 224.837 169.665C224.671 169.245 224.426 168.915 224.101 168.676C223.776 168.437 223.375 168.318 222.898 168.318C222.401 168.318 221.986 168.444 221.655 168.696C221.327 168.948 221.08 169.286 220.914 169.71C220.752 170.134 220.67 170.605 220.67 171.122C220.67 171.652 220.753 172.121 220.919 172.529C221.088 172.933 221.337 173.252 221.665 173.484C221.996 173.712 222.407 173.827 222.898 173.827ZM233.199 171.878V167.364H234.372V175H233.199V173.707H233.119C232.94 174.095 232.662 174.425 232.284 174.697C231.906 174.965 231.429 175.099 230.852 175.099C230.375 175.099 229.951 174.995 229.58 174.786C229.208 174.574 228.917 174.256 228.705 173.832C228.492 173.404 228.386 172.866 228.386 172.216V167.364H229.56V172.136C229.56 172.693 229.715 173.137 230.027 173.469C230.342 173.8 230.743 173.966 231.23 173.966C231.522 173.966 231.818 173.891 232.12 173.742C232.425 173.593 232.68 173.364 232.886 173.056C233.094 172.748 233.199 172.355 233.199 171.878ZM237.694 164.818V175H236.521V164.818H237.694ZM242.091 175.179C241.607 175.179 241.167 175.088 240.773 174.906C240.379 174.72 240.065 174.453 239.833 174.105C239.601 173.754 239.485 173.33 239.485 172.832C239.485 172.395 239.572 172.04 239.744 171.768C239.916 171.493 240.147 171.278 240.435 171.122C240.723 170.966 241.042 170.85 241.39 170.774C241.741 170.695 242.094 170.632 242.449 170.585C242.913 170.526 243.289 170.481 243.577 170.451C243.869 170.418 244.081 170.363 244.213 170.287C244.349 170.211 244.417 170.078 244.417 169.889V169.849C244.417 169.359 244.283 168.978 244.015 168.706C243.749 168.434 243.347 168.298 242.806 168.298C242.246 168.298 241.807 168.421 241.489 168.666C241.171 168.911 240.947 169.173 240.818 169.452L239.704 169.054C239.903 168.59 240.168 168.229 240.5 167.97C240.834 167.708 241.199 167.526 241.593 167.423C241.991 167.317 242.382 167.264 242.767 167.264C243.012 167.264 243.294 167.294 243.612 167.354C243.933 167.41 244.243 167.528 244.542 167.707C244.843 167.886 245.093 168.156 245.292 168.517C245.491 168.878 245.591 169.362 245.591 169.969V175H244.417V173.966H244.358C244.278 174.132 244.145 174.309 243.96 174.498C243.774 174.687 243.527 174.848 243.219 174.98C242.911 175.113 242.535 175.179 242.091 175.179ZM242.27 174.125C242.734 174.125 243.125 174.034 243.443 173.852C243.764 173.669 244.006 173.434 244.169 173.146C244.334 172.857 244.417 172.554 244.417 172.236V171.162C244.368 171.222 244.258 171.276 244.089 171.326C243.923 171.372 243.731 171.414 243.512 171.45C243.297 171.483 243.087 171.513 242.881 171.54C242.679 171.563 242.515 171.583 242.389 171.599C242.084 171.639 241.799 171.704 241.534 171.793C241.272 171.879 241.06 172.01 240.897 172.186C240.738 172.358 240.659 172.594 240.659 172.892C240.659 173.3 240.81 173.608 241.111 173.817C241.416 174.022 241.802 174.125 242.27 174.125ZM248.587 175.08C248.342 175.08 248.131 174.992 247.956 174.816C247.78 174.64 247.692 174.43 247.692 174.185C247.692 173.939 247.78 173.729 247.956 173.553C248.131 173.378 248.342 173.29 248.587 173.29C248.832 173.29 249.043 173.378 249.219 173.553C249.394 173.729 249.482 173.939 249.482 174.185C249.482 174.347 249.441 174.496 249.358 174.632C249.278 174.768 249.171 174.877 249.035 174.96C248.902 175.04 248.753 175.08 248.587 175.08ZM263.758 164.818V175H262.565L257.017 167.006H256.917V175H255.684V164.818H256.877L262.445 172.832H262.545V164.818H263.758ZM268.313 175.179C267.829 175.179 267.39 175.088 266.996 174.906C266.601 174.72 266.288 174.453 266.056 174.105C265.824 173.754 265.708 173.33 265.708 172.832C265.708 172.395 265.794 172.04 265.967 171.768C266.139 171.493 266.369 171.278 266.658 171.122C266.946 170.966 267.264 170.85 267.612 170.774C267.964 170.695 268.317 170.632 268.671 170.585C269.135 170.526 269.511 170.481 269.8 170.451C270.091 170.418 270.304 170.363 270.436 170.287C270.572 170.211 270.64 170.078 270.64 169.889V169.849C270.64 169.359 270.506 168.978 270.237 168.706C269.972 168.434 269.569 168.298 269.029 168.298C268.469 168.298 268.03 168.421 267.712 168.666C267.393 168.911 267.17 169.173 267.04 169.452L265.927 169.054C266.126 168.59 266.391 168.229 266.722 167.97C267.057 167.708 267.422 167.526 267.816 167.423C268.214 167.317 268.605 167.264 268.989 167.264C269.235 167.264 269.516 167.294 269.835 167.354C270.156 167.41 270.466 167.528 270.764 167.707C271.066 167.886 271.316 168.156 271.515 168.517C271.714 168.878 271.813 169.362 271.813 169.969V175H270.64V173.966H270.58C270.501 174.132 270.368 174.309 270.183 174.498C269.997 174.687 269.75 174.848 269.442 174.98C269.134 175.113 268.757 175.179 268.313 175.179ZM268.492 174.125C268.956 174.125 269.347 174.034 269.665 173.852C269.987 173.669 270.229 173.434 270.391 173.146C270.557 172.857 270.64 172.554 270.64 172.236V171.162C270.59 171.222 270.481 171.276 270.312 171.326C270.146 171.372 269.954 171.414 269.735 171.45C269.52 171.483 269.309 171.513 269.104 171.54C268.902 171.563 268.737 171.583 268.612 171.599C268.307 171.639 268.022 171.704 267.756 171.793C267.495 171.879 267.282 172.01 267.12 172.186C266.961 172.358 266.881 172.594 266.881 172.892C266.881 173.3 267.032 173.608 267.334 173.817C267.639 174.022 268.025 174.125 268.492 174.125ZM273.955 175V167.364H275.088V168.557H275.188C275.347 168.149 275.604 167.833 275.958 167.607C276.313 167.379 276.739 167.264 277.236 167.264C277.74 167.264 278.159 167.379 278.494 167.607C278.832 167.833 279.095 168.149 279.284 168.557H279.364C279.559 168.162 279.853 167.849 280.244 167.617C280.635 167.382 281.104 167.264 281.651 167.264C282.334 167.264 282.892 167.478 283.326 167.906C283.76 168.33 283.977 168.991 283.977 169.889V175H282.804V169.889C282.804 169.326 282.65 168.923 282.342 168.681C282.034 168.439 281.671 168.318 281.253 168.318C280.716 168.318 280.3 168.481 280.005 168.805C279.71 169.127 279.563 169.535 279.563 170.028V175H278.369V169.77C278.369 169.336 278.229 168.986 277.947 168.721C277.665 168.452 277.302 168.318 276.858 168.318C276.553 168.318 276.268 168.399 276.003 168.562C275.741 168.724 275.529 168.95 275.367 169.238C275.208 169.523 275.128 169.853 275.128 170.227V175H273.955ZM74.7126 195.179C74.2287 195.179 73.7896 195.088 73.3952 194.906C73.0007 194.72 72.6875 194.453 72.4555 194.105C72.2235 193.754 72.1075 193.33 72.1075 192.832C72.1075 192.395 72.1937 192.04 72.366 191.768C72.5384 191.493 72.7687 191.278 73.0571 191.122C73.3454 190.966 73.6636 190.85 74.0116 190.774C74.363 190.695 74.7159 190.632 75.0706 190.585C75.5346 190.526 75.9108 190.481 76.1991 190.451C76.4908 190.418 76.7029 190.363 76.8355 190.287C76.9714 190.211 77.0393 190.078 77.0393 189.889V189.849C77.0393 189.359 76.9051 188.978 76.6366 188.706C76.3715 188.434 75.9688 188.298 75.4285 188.298C74.8684 188.298 74.4292 188.421 74.1111 188.666C73.7929 188.911 73.5692 189.173 73.4399 189.452L72.3263 189.054C72.5251 188.59 72.7903 188.229 73.1217 187.97C73.4565 187.708 73.8211 187.526 74.2155 187.423C74.6132 187.317 75.0043 187.264 75.3888 187.264C75.634 187.264 75.9157 187.294 76.2339 187.354C76.5554 187.41 76.8653 187.528 77.1636 187.707C77.4652 187.886 77.7155 188.156 77.9143 188.517C78.1132 188.878 78.2126 189.362 78.2126 189.969V195H77.0393V193.966H76.9797C76.9001 194.132 76.7675 194.309 76.5819 194.498C76.3963 194.687 76.1494 194.848 75.8412 194.98C75.5329 195.113 75.1568 195.179 74.7126 195.179ZM74.8916 194.125C75.3556 194.125 75.7467 194.034 76.0649 193.852C76.3864 193.669 76.6283 193.434 76.7907 193.146C76.9565 192.857 77.0393 192.554 77.0393 192.236V191.162C76.9896 191.222 76.8802 191.276 76.7112 191.326C76.5455 191.372 76.3532 191.414 76.1345 191.45C75.9191 191.483 75.7086 191.513 75.5031 191.54C75.3009 191.563 75.1369 191.583 75.0109 191.599C74.706 191.639 74.421 191.704 74.1558 191.793C73.894 191.879 73.6818 192.01 73.5194 192.186C73.3604 192.358 73.2808 192.594 73.2808 192.892C73.2808 193.3 73.4316 193.608 73.7332 193.817C74.0381 194.022 74.4243 194.125 74.8916 194.125ZM85.4649 190.406V195H84.2916V187.364H85.4252V188.557H85.5246C85.7036 188.169 85.9753 187.857 86.3399 187.622C86.7045 187.384 87.1752 187.264 87.7519 187.264C88.2689 187.264 88.7213 187.37 89.1091 187.582C89.4969 187.791 89.7985 188.109 90.0139 188.537C90.2294 188.961 90.3371 189.498 90.3371 190.148V195H89.1638V190.227C89.1638 189.627 89.008 189.16 88.6965 188.825C88.3849 188.487 87.9574 188.318 87.4138 188.318C87.0393 188.318 86.7045 188.399 86.4095 188.562C86.1179 188.724 85.8875 188.961 85.7185 189.273C85.5494 189.584 85.4649 189.962 85.4649 190.406ZM97.2936 191.878V187.364H98.4669V195H97.2936V193.707H97.214C97.0351 194.095 96.7567 194.425 96.3788 194.697C96.001 194.965 95.5237 195.099 94.947 195.099C94.4697 195.099 94.0455 194.995 93.6743 194.786C93.3031 194.574 93.0114 194.256 92.7993 193.832C92.5872 193.404 92.4811 192.866 92.4811 192.216V187.364H93.6544V192.136C93.6544 192.693 93.8102 193.137 94.1217 193.469C94.4366 193.8 94.8376 193.966 95.3248 193.966C95.6165 193.966 95.9131 193.891 96.2148 193.742C96.5197 193.593 96.7749 193.364 96.9804 193.056C97.1892 192.748 97.2936 192.355 97.2936 191.878ZM101.789 184.818V195H100.616V184.818H101.789ZM105.111 184.818V195H103.938V184.818H105.111ZM109.508 195.179C109.024 195.179 108.584 195.088 108.19 194.906C107.796 194.72 107.482 194.453 107.25 194.105C107.018 193.754 106.902 193.33 106.902 192.832C106.902 192.395 106.989 192.04 107.161 191.768C107.333 191.493 107.564 191.278 107.852 191.122C108.14 190.966 108.459 190.85 108.807 190.774C109.158 190.695 109.511 190.632 109.866 190.585C110.33 190.526 110.706 190.481 110.994 190.451C111.286 190.418 111.498 190.363 111.63 190.287C111.766 190.211 111.834 190.078 111.834 189.889V189.849C111.834 189.359 111.7 188.978 111.432 188.706C111.166 188.434 110.764 188.298 110.223 188.298C109.663 188.298 109.224 188.421 108.906 188.666C108.588 188.911 108.364 189.173 108.235 189.452L107.121 189.054C107.32 188.59 107.585 188.229 107.917 187.97C108.251 187.708 108.616 187.526 109.01 187.423C109.408 187.317 109.799 187.264 110.184 187.264C110.429 187.264 110.711 187.294 111.029 187.354C111.35 187.41 111.66 187.528 111.959 187.707C112.26 187.886 112.51 188.156 112.709 188.517C112.908 188.878 113.008 189.362 113.008 189.969V195H111.834V193.966H111.775C111.695 194.132 111.562 194.309 111.377 194.498C111.191 194.687 110.944 194.848 110.636 194.98C110.328 195.113 109.952 195.179 109.508 195.179ZM109.687 194.125C110.151 194.125 110.542 194.034 110.86 193.852C111.181 193.669 111.423 193.434 111.586 193.146C111.751 192.857 111.834 192.554 111.834 192.236V191.162C111.785 191.222 111.675 191.276 111.506 191.326C111.34 191.372 111.148 191.414 110.929 191.45C110.714 191.483 110.504 191.513 110.298 191.54C110.096 191.563 109.932 191.583 109.806 191.599C109.501 191.639 109.216 191.704 108.951 191.793C108.689 191.879 108.477 192.01 108.314 192.186C108.155 192.358 108.076 192.594 108.076 192.892C108.076 193.3 108.227 193.608 108.528 193.817C108.833 194.022 109.219 194.125 109.687 194.125ZM121.334 195.179C120.85 195.179 120.411 195.088 120.016 194.906C119.622 194.72 119.309 194.453 119.077 194.105C118.845 193.754 118.729 193.33 118.729 192.832C118.729 192.395 118.815 192.04 118.987 191.768C119.159 191.493 119.39 191.278 119.678 191.122C119.967 190.966 120.285 190.85 120.633 190.774C120.984 190.695 121.337 190.632 121.692 190.585C122.156 190.526 122.532 190.481 122.82 190.451C123.112 190.418 123.324 190.363 123.457 190.287C123.592 190.211 123.66 190.078 123.66 189.889V189.849C123.66 189.359 123.526 188.978 123.258 188.706C122.993 188.434 122.59 188.298 122.05 188.298C121.489 188.298 121.05 188.421 120.732 188.666C120.414 188.911 120.19 189.173 120.061 189.452L118.947 189.054C119.146 188.59 119.411 188.229 119.743 187.97C120.078 187.708 120.442 187.526 120.837 187.423C121.234 187.317 121.625 187.264 122.01 187.264C122.255 187.264 122.537 187.294 122.855 187.354C123.177 187.41 123.486 187.528 123.785 187.707C124.086 187.886 124.337 188.156 124.535 188.517C124.734 188.878 124.834 189.362 124.834 189.969V195H123.66V193.966H123.601C123.521 194.132 123.389 194.309 123.203 194.498C123.017 194.687 122.771 194.848 122.462 194.98C122.154 195.113 121.778 195.179 121.334 195.179ZM121.513 194.125C121.977 194.125 122.368 194.034 122.686 193.852C123.007 193.669 123.249 193.434 123.412 193.146C123.578 192.857 123.66 192.554 123.66 192.236V191.162C123.611 191.222 123.501 191.276 123.332 191.326C123.167 191.372 122.974 191.414 122.756 191.45C122.54 191.483 122.33 191.513 122.124 191.54C121.922 191.563 121.758 191.583 121.632 191.599C121.327 191.639 121.042 191.704 120.777 191.793C120.515 191.879 120.303 192.01 120.141 192.186C119.981 192.358 119.902 192.594 119.902 192.892C119.902 193.3 120.053 193.608 120.354 193.817C120.659 194.022 121.045 194.125 121.513 194.125ZM128.149 190.406V195H126.975V187.364H128.109V188.557H128.208C128.387 188.169 128.659 187.857 129.024 187.622C129.388 187.384 129.859 187.264 130.435 187.264C130.953 187.264 131.405 187.37 131.793 187.582C132.18 187.791 132.482 188.109 132.698 188.537C132.913 188.961 133.021 189.498 133.021 190.148V195H131.847V190.227C131.847 189.627 131.692 189.16 131.38 188.825C131.069 188.487 130.641 188.318 130.097 188.318C129.723 188.318 129.388 188.399 129.093 188.562C128.801 188.724 128.571 188.961 128.402 189.273C128.233 189.584 128.149 189.962 128.149 190.406ZM138.486 187.364V188.358H134.528V187.364H138.486ZM135.682 185.534H136.855V192.812C136.855 193.144 136.903 193.393 136.999 193.558C137.099 193.721 137.225 193.83 137.377 193.886C137.533 193.939 137.697 193.966 137.869 193.966C137.998 193.966 138.105 193.959 138.187 193.946C138.27 193.929 138.337 193.916 138.386 193.906L138.625 194.96C138.545 194.99 138.434 195.02 138.292 195.05C138.149 195.083 137.969 195.099 137.75 195.099C137.418 195.099 137.094 195.028 136.775 194.886C136.461 194.743 136.199 194.526 135.99 194.234C135.784 193.943 135.682 193.575 135.682 193.131V185.534ZM143.37 195.159C142.634 195.159 142 194.997 141.466 194.672C140.936 194.344 140.527 193.886 140.238 193.3C139.953 192.71 139.811 192.024 139.811 191.241C139.811 190.459 139.953 189.77 140.238 189.173C140.527 188.573 140.928 188.106 141.441 187.771C141.958 187.433 142.562 187.264 143.251 187.264C143.649 187.264 144.041 187.33 144.429 187.463C144.817 187.596 145.17 187.811 145.488 188.109C145.806 188.404 146.06 188.795 146.249 189.283C146.438 189.77 146.532 190.37 146.532 191.082V191.58H140.646V190.565H145.339C145.339 190.134 145.253 189.75 145.081 189.412C144.911 189.074 144.67 188.807 144.355 188.612C144.043 188.416 143.675 188.318 143.251 188.318C142.784 188.318 142.379 188.434 142.038 188.666C141.7 188.895 141.44 189.193 141.257 189.561C141.075 189.929 140.984 190.323 140.984 190.744V191.42C140.984 191.997 141.083 192.486 141.282 192.887C141.484 193.285 141.764 193.588 142.122 193.797C142.48 194.002 142.896 194.105 143.37 194.105C143.679 194.105 143.957 194.062 144.206 193.976C144.457 193.886 144.675 193.754 144.857 193.578C145.039 193.399 145.18 193.177 145.279 192.912L146.413 193.23C146.294 193.615 146.093 193.953 145.811 194.244C145.53 194.533 145.182 194.758 144.767 194.92C144.353 195.08 143.887 195.159 143.37 195.159ZM149.172 195.08C148.927 195.08 148.716 194.992 148.541 194.816C148.365 194.64 148.277 194.43 148.277 194.185C148.277 193.939 148.365 193.729 148.541 193.553C148.716 193.378 148.927 193.29 149.172 193.29C149.417 193.29 149.628 193.378 149.804 193.553C149.979 193.729 150.067 193.939 150.067 194.185C150.067 194.347 150.026 194.496 149.943 194.632C149.863 194.768 149.755 194.877 149.62 194.96C149.487 195.04 149.338 195.08 149.172 195.08ZM164.343 184.818V195H163.15L157.601 187.006H157.502V195H156.269V184.818H157.462L163.03 192.832H163.13V184.818H164.343ZM168.898 195.179C168.414 195.179 167.975 195.088 167.581 194.906C167.186 194.72 166.873 194.453 166.641 194.105C166.409 193.754 166.293 193.33 166.293 192.832C166.293 192.395 166.379 192.04 166.552 191.768C166.724 191.493 166.954 191.278 167.243 191.122C167.531 190.966 167.849 190.85 168.197 190.774C168.549 190.695 168.901 190.632 169.256 190.585C169.72 190.526 170.096 190.481 170.385 190.451C170.676 190.418 170.888 190.363 171.021 190.287C171.157 190.211 171.225 190.078 171.225 189.889V189.849C171.225 189.359 171.091 188.978 170.822 188.706C170.557 188.434 170.154 188.298 169.614 188.298C169.054 188.298 168.615 188.421 168.297 188.666C167.978 188.911 167.755 189.173 167.625 189.452L166.512 189.054C166.711 188.59 166.976 188.229 167.307 187.97C167.642 187.708 168.007 187.526 168.401 187.423C168.799 187.317 169.19 187.264 169.574 187.264C169.82 187.264 170.101 187.294 170.419 187.354C170.741 187.41 171.051 187.528 171.349 187.707C171.651 187.886 171.901 188.156 172.1 188.517C172.299 188.878 172.398 189.362 172.398 189.969V195H171.225V193.966H171.165C171.086 194.132 170.953 194.309 170.767 194.498C170.582 194.687 170.335 194.848 170.027 194.98C169.718 195.113 169.342 195.179 168.898 195.179ZM169.077 194.125C169.541 194.125 169.932 194.034 170.25 193.852C170.572 193.669 170.814 193.434 170.976 193.146C171.142 192.857 171.225 192.554 171.225 192.236V191.162C171.175 191.222 171.066 191.276 170.897 191.326C170.731 191.372 170.539 191.414 170.32 191.45C170.105 191.483 169.894 191.513 169.689 191.54C169.486 191.563 169.322 191.583 169.196 191.599C168.892 191.639 168.607 191.704 168.341 191.793C168.08 191.879 167.867 192.01 167.705 192.186C167.546 192.358 167.466 192.594 167.466 192.892C167.466 193.3 167.617 193.608 167.919 193.817C168.224 194.022 168.61 194.125 169.077 194.125ZM174.54 195V187.364H175.673V188.557H175.773C175.932 188.149 176.189 187.833 176.543 187.607C176.898 187.379 177.324 187.264 177.821 187.264C178.325 187.264 178.744 187.379 179.079 187.607C179.417 187.833 179.68 188.149 179.869 188.557H179.949C180.144 188.162 180.438 187.849 180.829 187.617C181.22 187.382 181.689 187.264 182.236 187.264C182.918 187.264 183.477 187.478 183.911 187.906C184.345 188.33 184.562 188.991 184.562 189.889V195H183.389V189.889C183.389 189.326 183.235 188.923 182.927 188.681C182.619 188.439 182.256 188.318 181.838 188.318C181.301 188.318 180.885 188.481 180.59 188.805C180.295 189.127 180.148 189.535 180.148 190.028V195H178.954V189.77C178.954 189.336 178.814 188.986 178.532 188.721C178.25 188.452 177.887 188.318 177.443 188.318C177.138 188.318 176.853 188.399 176.588 188.562C176.326 188.724 176.114 188.95 175.952 189.238C175.793 189.523 175.713 189.853 175.713 190.227V195H174.54ZM196.054 189.074L195 189.372C194.934 189.196 194.836 189.026 194.707 188.86C194.581 188.691 194.409 188.552 194.19 188.442C193.971 188.333 193.691 188.278 193.35 188.278C192.882 188.278 192.493 188.386 192.181 188.602C191.873 188.814 191.719 189.084 191.719 189.412C191.719 189.704 191.825 189.934 192.037 190.103C192.249 190.272 192.581 190.413 193.032 190.526L194.165 190.804C194.848 190.97 195.357 191.223 195.691 191.565C196.026 191.903 196.193 192.339 196.193 192.872C196.193 193.31 196.068 193.701 195.816 194.045C195.567 194.39 195.219 194.662 194.772 194.861C194.324 195.06 193.804 195.159 193.21 195.159C192.432 195.159 191.787 194.99 191.277 194.652C190.766 194.314 190.443 193.82 190.307 193.17L191.421 192.892C191.527 193.303 191.727 193.611 192.022 193.817C192.321 194.022 192.71 194.125 193.191 194.125C193.737 194.125 194.172 194.009 194.493 193.777C194.818 193.542 194.98 193.26 194.98 192.932C194.98 192.667 194.888 192.445 194.702 192.266C194.516 192.083 194.231 191.947 193.847 191.858L192.574 191.56C191.875 191.394 191.361 191.137 191.033 190.789C190.708 190.438 190.546 189.999 190.546 189.472C190.546 189.041 190.667 188.66 190.909 188.328C191.154 187.997 191.487 187.737 191.908 187.548C192.332 187.359 192.813 187.264 193.35 187.264C194.105 187.264 194.699 187.43 195.13 187.761C195.564 188.093 195.872 188.53 196.054 189.074ZM201.062 195.159C200.372 195.159 199.768 194.995 199.247 194.667C198.73 194.339 198.326 193.88 198.034 193.29C197.746 192.7 197.602 192.01 197.602 191.222C197.602 190.426 197.746 189.732 198.034 189.138C198.326 188.545 198.73 188.085 199.247 187.756C199.768 187.428 200.372 187.264 201.062 187.264C201.751 187.264 202.354 187.428 202.872 187.756C203.392 188.085 203.796 188.545 204.085 189.138C204.376 189.732 204.522 190.426 204.522 191.222C204.522 192.01 204.376 192.7 204.085 193.29C203.796 193.88 203.392 194.339 202.872 194.667C202.354 194.995 201.751 195.159 201.062 195.159ZM201.062 194.105C201.586 194.105 202.016 193.971 202.354 193.702C202.693 193.434 202.943 193.081 203.105 192.643C203.268 192.206 203.349 191.732 203.349 191.222C203.349 190.711 203.268 190.236 203.105 189.795C202.943 189.354 202.693 188.998 202.354 188.726C202.016 188.454 201.586 188.318 201.062 188.318C200.538 188.318 200.107 188.454 199.769 188.726C199.431 188.998 199.181 189.354 199.019 189.795C198.856 190.236 198.775 190.711 198.775 191.222C198.775 191.732 198.856 192.206 199.019 192.643C199.181 193.081 199.431 193.434 199.769 193.702C200.107 193.971 200.538 194.105 201.062 194.105ZM209.197 195.159C208.56 195.159 207.998 194.998 207.511 194.677C207.024 194.352 206.643 193.895 206.368 193.305C206.093 192.711 205.955 192.01 205.955 191.202C205.955 190.4 206.093 189.704 206.368 189.114C206.643 188.524 207.026 188.068 207.516 187.746C208.007 187.425 208.574 187.264 209.217 187.264C209.714 187.264 210.106 187.347 210.395 187.513C210.686 187.675 210.909 187.861 211.061 188.07C211.217 188.275 211.338 188.444 211.424 188.577H211.523V184.818H212.697V195H211.563V193.827H211.424C211.338 193.966 211.215 194.142 211.056 194.354C210.897 194.562 210.67 194.75 210.375 194.915C210.08 195.078 209.687 195.159 209.197 195.159ZM209.356 194.105C209.826 194.105 210.224 193.982 210.549 193.737C210.874 193.489 211.121 193.146 211.29 192.708C211.459 192.267 211.543 191.759 211.543 191.182C211.543 190.612 211.46 190.113 211.295 189.685C211.129 189.254 210.884 188.92 210.559 188.681C210.234 188.439 209.833 188.318 209.356 188.318C208.859 188.318 208.444 188.446 208.113 188.701C207.785 188.953 207.538 189.296 207.372 189.73C207.21 190.161 207.128 190.645 207.128 191.182C207.128 191.725 207.211 192.219 207.377 192.663C207.546 193.104 207.795 193.455 208.123 193.717C208.454 193.976 208.865 194.105 209.356 194.105ZM217.256 195.179C216.772 195.179 216.333 195.088 215.938 194.906C215.544 194.72 215.23 194.453 214.998 194.105C214.766 193.754 214.65 193.33 214.65 192.832C214.65 192.395 214.737 192.04 214.909 191.768C215.081 191.493 215.312 191.278 215.6 191.122C215.888 190.966 216.207 190.85 216.555 190.774C216.906 190.695 217.259 190.632 217.614 190.585C218.078 190.526 218.454 190.481 218.742 190.451C219.034 190.418 219.246 190.363 219.378 190.287C219.514 190.211 219.582 190.078 219.582 189.889V189.849C219.582 189.359 219.448 188.978 219.18 188.706C218.914 188.434 218.512 188.298 217.972 188.298C217.411 188.298 216.972 188.421 216.654 188.666C216.336 188.911 216.112 189.173 215.983 189.452L214.869 189.054C215.068 188.59 215.333 188.229 215.665 187.97C215.999 187.708 216.364 187.526 216.758 187.423C217.156 187.317 217.547 187.264 217.932 187.264C218.177 187.264 218.459 187.294 218.777 187.354C219.098 187.41 219.408 187.528 219.707 187.707C220.008 187.886 220.258 188.156 220.457 188.517C220.656 188.878 220.756 189.362 220.756 189.969V195H219.582V193.966H219.523C219.443 194.132 219.311 194.309 219.125 194.498C218.939 194.687 218.692 194.848 218.384 194.98C218.076 195.113 217.7 195.179 217.256 195.179ZM217.435 194.125C217.899 194.125 218.29 194.034 218.608 193.852C218.929 193.669 219.171 193.434 219.334 193.146C219.499 192.857 219.582 192.554 219.582 192.236V191.162C219.533 191.222 219.423 191.276 219.254 191.326C219.088 191.372 218.896 191.414 218.677 191.45C218.462 191.483 218.252 191.513 218.046 191.54C217.844 191.563 217.68 191.583 217.554 191.599C217.249 191.639 216.964 191.704 216.699 191.793C216.437 191.879 216.225 192.01 216.062 192.186C215.903 192.358 215.824 192.594 215.824 192.892C215.824 193.3 215.975 193.608 216.276 193.817C216.581 194.022 216.967 194.125 217.435 194.125ZM224.07 184.818V195H222.897V184.818H224.07ZM229.421 195.159C228.685 195.159 228.051 194.997 227.517 194.672C226.987 194.344 226.577 193.886 226.289 193.3C226.004 192.71 225.861 192.024 225.861 191.241C225.861 190.459 226.004 189.77 226.289 189.173C226.577 188.573 226.978 188.106 227.492 187.771C228.009 187.433 228.612 187.264 229.302 187.264C229.699 187.264 230.092 187.33 230.48 187.463C230.868 187.596 231.221 187.811 231.539 188.109C231.857 188.404 232.111 188.795 232.3 189.283C232.489 189.77 232.583 190.37 232.583 191.082V191.58H226.697V190.565H231.39C231.39 190.134 231.304 189.75 231.131 189.412C230.962 189.074 230.72 188.807 230.405 188.612C230.094 188.416 229.726 188.318 229.302 188.318C228.834 188.318 228.43 188.434 228.089 188.666C227.751 188.895 227.49 189.193 227.308 189.561C227.126 189.929 227.035 190.323 227.035 190.744V191.42C227.035 191.997 227.134 192.486 227.333 192.887C227.535 193.285 227.815 193.588 228.173 193.797C228.531 194.002 228.947 194.105 229.421 194.105C229.729 194.105 230.008 194.062 230.256 193.976C230.508 193.886 230.725 193.754 230.908 193.578C231.09 193.399 231.231 193.177 231.33 192.912L232.464 193.23C232.344 193.615 232.144 193.953 231.862 194.244C231.58 194.533 231.232 194.758 230.818 194.92C230.404 195.08 229.938 195.159 229.421 195.159ZM239.777 189.074L238.723 189.372C238.657 189.196 238.559 189.026 238.43 188.86C238.304 188.691 238.131 188.552 237.913 188.442C237.694 188.333 237.414 188.278 237.072 188.278C236.605 188.278 236.216 188.386 235.904 188.602C235.596 188.814 235.442 189.084 235.442 189.412C235.442 189.704 235.548 189.934 235.76 190.103C235.972 190.272 236.303 190.413 236.754 190.526L237.888 190.804C238.57 190.97 239.079 191.223 239.414 191.565C239.749 191.903 239.916 192.339 239.916 192.872C239.916 193.31 239.79 193.701 239.538 194.045C239.29 194.39 238.942 194.662 238.494 194.861C238.047 195.06 237.526 195.159 236.933 195.159C236.154 195.159 235.51 194.99 234.999 194.652C234.489 194.314 234.166 193.82 234.03 193.17L235.143 192.892C235.249 193.303 235.45 193.611 235.745 193.817C236.043 194.022 236.433 194.125 236.913 194.125C237.46 194.125 237.894 194.009 238.216 193.777C238.541 193.542 238.703 193.26 238.703 192.932C238.703 192.667 238.61 192.445 238.425 192.266C238.239 192.083 237.954 191.947 237.57 191.858L236.297 191.56C235.597 191.394 235.084 191.137 234.756 190.789C234.431 190.438 234.268 189.999 234.268 189.472C234.268 189.041 234.389 188.66 234.631 188.328C234.877 187.997 235.21 187.737 235.631 187.548C236.055 187.359 236.535 187.264 237.072 187.264C237.828 187.264 238.421 187.43 238.852 187.761C239.286 188.093 239.595 188.53 239.777 189.074Z" fill="#767F8C"/>
<defs>
<clipPath id="clip0_1647_31997">
<rect width="32" height="32" fill="white" transform="translate(140 44)"/>
</clipPath>
</defs>
</svg>
